G04 #@! TF.GenerationSoftware,KiCad,Pcbnew,(5.99.0-1468-g7e1294a4b)*
G04 #@! TF.CreationDate,2020-10-04T20:21:57+02:00*
G04 #@! TF.ProjectId,GB Dumper_SMD,47422044-756d-4706-9572-5f534d442e6b,rev?*
G04 #@! TF.SameCoordinates,Original*
G04 #@! TF.FileFunction,Copper,L1,Top*
G04 #@! TF.FilePolarity,Positive*
%FSLAX46Y46*%
G04 Gerber Fmt 4.6, Leading zero omitted, Abs format (unit mm)*
G04 Created by KiCad (PCBNEW (5.99.0-1468-g7e1294a4b)) date 2020-10-04 20:21:57*
%MOMM*%
%LPD*%
G01*
G04 APERTURE LIST*
G04 #@! TA.AperFunction,EtchedComponent*
%ADD10C,0.200000*%
G04 #@! TD*
G04 #@! TA.AperFunction,ComponentPad*
%ADD11O,1.600000X1.600000*%
G04 #@! TD*
G04 #@! TA.AperFunction,SMDPad,CuDef*
%ADD12R,1.000000X3.500000*%
G04 #@! TD*
G04 #@! TA.AperFunction,SMDPad,CuDef*
%ADD13R,1.000000X5.000000*%
G04 #@! TD*
G04 #@! TA.AperFunction,SMDPad,CuDef*
%ADD14R,7.000000X3.000000*%
G04 #@! TD*
G04 #@! TA.AperFunction,ComponentPad*
%ADD15R,1.600000X1.600000*%
G04 #@! TD*
G04 #@! TA.AperFunction,ComponentPad*
%ADD16C,1.400000*%
G04 #@! TD*
G04 #@! TA.AperFunction,ViaPad*
%ADD17C,0.800000*%
G04 #@! TD*
G04 #@! TA.AperFunction,Conductor*
%ADD18C,0.400000*%
G04 #@! TD*
G04 #@! TA.AperFunction,Conductor*
%ADD19C,0.250000*%
G04 #@! TD*
G04 APERTURE END LIST*
G36*
X116783137Y-66156592D02*
G01*
X117108016Y-66602790D01*
X117150152Y-66822769D01*
X117072773Y-67466799D01*
X116613896Y-67632583D01*
X115742063Y-67729397D01*
X115117297Y-67863832D01*
X114520309Y-67952762D01*
X114428892Y-67630142D01*
X114535683Y-67232891D01*
X114783235Y-66504049D01*
X115091202Y-66204109D01*
X115748005Y-66109491D01*
X116008538Y-66091145D01*
X116783137Y-66156592D01*
G37*
D10*
X116783137Y-66156592D02*
X117108016Y-66602790D01*
X117150152Y-66822769D01*
X117072773Y-67466799D01*
X116613896Y-67632583D01*
X115742063Y-67729397D01*
X115117297Y-67863832D01*
X114520309Y-67952762D01*
X114428892Y-67630142D01*
X114535683Y-67232891D01*
X114783235Y-66504049D01*
X115091202Y-66204109D01*
X115748005Y-66109491D01*
X116008538Y-66091145D01*
X116783137Y-66156592D01*
G36*
X123731716Y-67559641D02*
G01*
X124210590Y-68052835D01*
X124529230Y-68464511D01*
X125217308Y-69526182D01*
X125384460Y-70344225D01*
X125057980Y-71134782D01*
X124895242Y-71362975D01*
X124505056Y-71829905D01*
X124379880Y-71725253D01*
X124370000Y-71405217D01*
X124123275Y-70776789D01*
X123501745Y-69959073D01*
X123175196Y-69626181D01*
X121980392Y-68499336D01*
X122797806Y-67882760D01*
X123337779Y-67528818D01*
X123731716Y-67559641D01*
G37*
X123731716Y-67559641D02*
X124210590Y-68052835D01*
X124529230Y-68464511D01*
X125217308Y-69526182D01*
X125384460Y-70344225D01*
X125057980Y-71134782D01*
X124895242Y-71362975D01*
X124505056Y-71829905D01*
X124379880Y-71725253D01*
X124370000Y-71405217D01*
X124123275Y-70776789D01*
X123501745Y-69959073D01*
X123175196Y-69626181D01*
X121980392Y-68499336D01*
X122797806Y-67882760D01*
X123337779Y-67528818D01*
X123731716Y-67559641D01*
G36*
X133451058Y-71675666D02*
G01*
X133732990Y-71790544D01*
X134877447Y-72457022D01*
X135336169Y-73218269D01*
X135184006Y-73908598D01*
X134894936Y-74213122D01*
X134562413Y-73876669D01*
X134557379Y-73868974D01*
X134008244Y-73483318D01*
X133047917Y-73154992D01*
X132648356Y-73073120D01*
X131088685Y-72812356D01*
X131753990Y-72030368D01*
X132233214Y-71546605D01*
X132701470Y-71440179D01*
X133451058Y-71675666D01*
G37*
X133451058Y-71675666D02*
X133732990Y-71790544D01*
X134877447Y-72457022D01*
X135336169Y-73218269D01*
X135184006Y-73908598D01*
X134894936Y-74213122D01*
X134562413Y-73876669D01*
X134557379Y-73868974D01*
X134008244Y-73483318D01*
X133047917Y-73154992D01*
X132648356Y-73073120D01*
X131088685Y-72812356D01*
X131753990Y-72030368D01*
X132233214Y-71546605D01*
X132701470Y-71440179D01*
X133451058Y-71675666D01*
G36*
X114701372Y-72930552D02*
G01*
X115356158Y-72412053D01*
X115907236Y-72386390D01*
X116416495Y-72897635D01*
X116398209Y-73741909D01*
X115860704Y-74778141D01*
X115758119Y-74913256D01*
X114980867Y-75673117D01*
X114385440Y-75810765D01*
X114046047Y-75330032D01*
X113995352Y-74822260D01*
X114024944Y-74672130D01*
X114353099Y-74672130D01*
X114516780Y-75114404D01*
X114894704Y-75026824D01*
X115317195Y-74483307D01*
X115445202Y-74196393D01*
X115637335Y-73441841D01*
X115585971Y-73034279D01*
X115254752Y-73103605D01*
X114817591Y-73581360D01*
X114459186Y-74222174D01*
X114353099Y-74672130D01*
X114024944Y-74672130D01*
X114197161Y-73798433D01*
X114701372Y-72930552D01*
G37*
X114701372Y-72930552D02*
X115356158Y-72412053D01*
X115907236Y-72386390D01*
X116416495Y-72897635D01*
X116398209Y-73741909D01*
X115860704Y-74778141D01*
X115758119Y-74913256D01*
X114980867Y-75673117D01*
X114385440Y-75810765D01*
X114046047Y-75330032D01*
X113995352Y-74822260D01*
X114024944Y-74672130D01*
X114353099Y-74672130D01*
X114516780Y-75114404D01*
X114894704Y-75026824D01*
X115317195Y-74483307D01*
X115445202Y-74196393D01*
X115637335Y-73441841D01*
X115585971Y-73034279D01*
X115254752Y-73103605D01*
X114817591Y-73581360D01*
X114459186Y-74222174D01*
X114353099Y-74672130D01*
X114024944Y-74672130D01*
X114197161Y-73798433D01*
X114701372Y-72930552D01*
G36*
X121121239Y-85513814D02*
G01*
X121732393Y-84783226D01*
X122302691Y-84323099D01*
X122613877Y-84283063D01*
X122923853Y-84848965D01*
X122770771Y-85730914D01*
X122197556Y-86718890D01*
X121458963Y-87429973D01*
X120841728Y-87631224D01*
X120479252Y-87303378D01*
X120434789Y-86973456D01*
X120530074Y-86656637D01*
X121150282Y-86656637D01*
X121341097Y-86946030D01*
X121730111Y-86787755D01*
X122006373Y-86380129D01*
X122212123Y-85607662D01*
X122106896Y-85314527D01*
X121735441Y-85596388D01*
X121675524Y-85672835D01*
X121267606Y-86319750D01*
X121150282Y-86656637D01*
X120530074Y-86656637D01*
X120633836Y-86311634D01*
X121121239Y-85513814D01*
G37*
X121121239Y-85513814D02*
X121732393Y-84783226D01*
X122302691Y-84323099D01*
X122613877Y-84283063D01*
X122923853Y-84848965D01*
X122770771Y-85730914D01*
X122197556Y-86718890D01*
X121458963Y-87429973D01*
X120841728Y-87631224D01*
X120479252Y-87303378D01*
X120434789Y-86973456D01*
X120530074Y-86656637D01*
X121150282Y-86656637D01*
X121341097Y-86946030D01*
X121730111Y-86787755D01*
X122006373Y-86380129D01*
X122212123Y-85607662D01*
X122106896Y-85314527D01*
X121735441Y-85596388D01*
X121675524Y-85672835D01*
X121267606Y-86319750D01*
X121150282Y-86656637D01*
X120530074Y-86656637D01*
X120633836Y-86311634D01*
X121121239Y-85513814D01*
G36*
X130258736Y-83173048D02*
G01*
X131114054Y-83380463D01*
X131453457Y-83562104D01*
X132244679Y-84278512D01*
X132535427Y-85326846D01*
X132538637Y-85371496D01*
X132531150Y-86197788D01*
X132259634Y-86531986D01*
X131724196Y-86588262D01*
X130875384Y-86312411D01*
X130282004Y-85532788D01*
X129806023Y-84310928D01*
X129806725Y-84184240D01*
X130523753Y-84184240D01*
X130539674Y-84592091D01*
X130822024Y-85180794D01*
X131269353Y-85723360D01*
X131696499Y-85866315D01*
X131882676Y-85544281D01*
X131684730Y-84703714D01*
X131213042Y-84157489D01*
X130950035Y-84084036D01*
X130523753Y-84184240D01*
X129806725Y-84184240D01*
X129810496Y-83503776D01*
X130258736Y-83173048D01*
G37*
X130258736Y-83173048D02*
X131114054Y-83380463D01*
X131453457Y-83562104D01*
X132244679Y-84278512D01*
X132535427Y-85326846D01*
X132538637Y-85371496D01*
X132531150Y-86197788D01*
X132259634Y-86531986D01*
X131724196Y-86588262D01*
X130875384Y-86312411D01*
X130282004Y-85532788D01*
X129806023Y-84310928D01*
X129806725Y-84184240D01*
X130523753Y-84184240D01*
X130539674Y-84592091D01*
X130822024Y-85180794D01*
X131269353Y-85723360D01*
X131696499Y-85866315D01*
X131882676Y-85544281D01*
X131684730Y-84703714D01*
X131213042Y-84157489D01*
X130950035Y-84084036D01*
X130523753Y-84184240D01*
X129806725Y-84184240D01*
X129810496Y-83503776D01*
X130258736Y-83173048D01*
D11*
X173250000Y-99000000D03*
X170710000Y-99000000D03*
X168170000Y-99000000D03*
X165630000Y-99000000D03*
X163090000Y-99000000D03*
X160550000Y-99000000D03*
X158010000Y-99000000D03*
X155470000Y-99000000D03*
X152930000Y-99000000D03*
X150390000Y-99000000D03*
X147850000Y-99000000D03*
X145310000Y-99000000D03*
X142770000Y-99000000D03*
X140230000Y-99000000D03*
X137690000Y-99000000D03*
X135150000Y-99000000D03*
X132610000Y-99000000D03*
X130070000Y-99000000D03*
X127530000Y-99000000D03*
X124990000Y-99000000D03*
X124990000Y-114240000D03*
X127530000Y-114240000D03*
X130070000Y-114240000D03*
X132610000Y-114240000D03*
X135150000Y-114240000D03*
X137690000Y-114240000D03*
X140230000Y-114240000D03*
X142770000Y-114240000D03*
X145310000Y-114240000D03*
X147850000Y-114240000D03*
X150390000Y-114240000D03*
X152930000Y-114240000D03*
X155470000Y-114240000D03*
X158010000Y-114240000D03*
X160550000Y-114240000D03*
X163090000Y-114240000D03*
X165630000Y-114240000D03*
X168170000Y-114240000D03*
X170710000Y-114240000D03*
X173250000Y-114240000D03*
D12*
X121760000Y-57310000D03*
X123260000Y-57310000D03*
X124760000Y-57310000D03*
X126260000Y-57310000D03*
X127760000Y-57310000D03*
X129260000Y-57310000D03*
X130760000Y-57310000D03*
X132260000Y-57310000D03*
X133760000Y-57310000D03*
X135260000Y-57310000D03*
X136760000Y-57310000D03*
X138260000Y-57310000D03*
X139760000Y-57310000D03*
X141260000Y-57310000D03*
X142760000Y-57310000D03*
X144260000Y-57310000D03*
X145760000Y-57310000D03*
X147260000Y-57310000D03*
X148760000Y-57310000D03*
X150260000Y-57310000D03*
X151760000Y-57310000D03*
X153260000Y-57310000D03*
X154760000Y-57310000D03*
X156260000Y-57310000D03*
X157760000Y-57310000D03*
X159260000Y-57310000D03*
X160760000Y-57310000D03*
X162260000Y-57310000D03*
X163760000Y-57310000D03*
X165260000Y-57310000D03*
X166760000Y-57310000D03*
D13*
X168260000Y-56560000D03*
D14*
X132260000Y-39000000D03*
X157760000Y-39000000D03*
D15*
X165000000Y-66250000D03*
D11*
X172620000Y-89110000D03*
X165000000Y-68790000D03*
X172620000Y-86570000D03*
X165000000Y-71330000D03*
X172620000Y-84030000D03*
X165000000Y-73870000D03*
X172620000Y-81490000D03*
X165000000Y-76410000D03*
X172620000Y-78950000D03*
X165000000Y-78950000D03*
X172620000Y-76410000D03*
X165000000Y-81490000D03*
X172620000Y-73870000D03*
X165000000Y-84030000D03*
X172620000Y-71330000D03*
X165000000Y-86570000D03*
X172620000Y-68790000D03*
X165000000Y-89110000D03*
X172620000Y-66250000D03*
D15*
X143000000Y-65750000D03*
D11*
X150620000Y-88610000D03*
X143000000Y-68290000D03*
X150620000Y-86070000D03*
X143000000Y-70830000D03*
X150620000Y-83530000D03*
X143000000Y-73370000D03*
X150620000Y-80990000D03*
X143000000Y-75910000D03*
X150620000Y-78450000D03*
X143000000Y-78450000D03*
X150620000Y-75910000D03*
X143000000Y-80990000D03*
X150620000Y-73370000D03*
X143000000Y-83530000D03*
X150620000Y-70830000D03*
X143000000Y-86070000D03*
X150620000Y-68290000D03*
X143000000Y-88610000D03*
X150620000Y-65750000D03*
D16*
X155750000Y-66000000D03*
X158250000Y-66000000D03*
X180500000Y-66500000D03*
X178000000Y-66500000D03*
D17*
X175020000Y-98580000D03*
X121580000Y-99290000D03*
X155581218Y-68298782D03*
X149140000Y-101250000D03*
X148900000Y-88030000D03*
X147640000Y-87830000D03*
X146660000Y-88360000D03*
X145040000Y-89560000D03*
X138500000Y-104260000D03*
X134250000Y-51080000D03*
X143270000Y-50330000D03*
X147260000Y-68130000D03*
X147680000Y-66170000D03*
X146170000Y-73280000D03*
X141770000Y-51420000D03*
X131270000Y-52060000D03*
X141617340Y-48817340D03*
X143896088Y-46974990D03*
X146320000Y-66290000D03*
X145830000Y-68160000D03*
X141780000Y-52830000D03*
X145180000Y-66190000D03*
X157660000Y-107600000D03*
X153150000Y-110440000D03*
X156860000Y-101940000D03*
X153910000Y-70830000D03*
X156440000Y-107460000D03*
X133225000Y-108530000D03*
X135510000Y-109170000D03*
X152980000Y-109140000D03*
X153380000Y-101150000D03*
X152989990Y-73290000D03*
X146640000Y-83410000D03*
X130990000Y-109740000D03*
X128790000Y-100550000D03*
X128800000Y-112360000D03*
X136210000Y-107590000D03*
X132900000Y-107510000D03*
X147700000Y-83950000D03*
X147770000Y-80990000D03*
X151897653Y-106552347D03*
X124625000Y-54625000D03*
X126125000Y-54625000D03*
X130800000Y-54675000D03*
X132275000Y-54625000D03*
X133750000Y-54600000D03*
X135250000Y-54650000D03*
X136725000Y-54700000D03*
X138225000Y-54700000D03*
X139750000Y-54675000D03*
X174500000Y-67900000D03*
X141350000Y-54525000D03*
X174200000Y-74500000D03*
X175200000Y-76400000D03*
X146000000Y-45500000D03*
X175300000Y-83300000D03*
X147700000Y-43900000D03*
X148600000Y-45500000D03*
X150300000Y-46975000D03*
X152000000Y-43175000D03*
X153825000Y-106275000D03*
X154000000Y-69500000D03*
X153150000Y-54125000D03*
X155400000Y-72110000D03*
X163090000Y-111710000D03*
X154700000Y-54225000D03*
X157600000Y-79864999D03*
X156200000Y-54275000D03*
X159000000Y-82350000D03*
X157700000Y-54275000D03*
X160200000Y-83530000D03*
X159350000Y-54275000D03*
X161100000Y-80950000D03*
X160850000Y-54300000D03*
X162300000Y-73910000D03*
X162250000Y-54350000D03*
X163675000Y-54475000D03*
X160000000Y-105200000D03*
X165225000Y-54550000D03*
X163200000Y-104500000D03*
X166750000Y-54650000D03*
X180600000Y-64000000D03*
X170000000Y-55000000D03*
X171680000Y-118900000D03*
X124880000Y-101620000D03*
X170200000Y-89200000D03*
X127700000Y-54650000D03*
X123100000Y-54575000D03*
X140824055Y-88649654D03*
D18*
X170020000Y-116090000D02*
X174200000Y-116090000D01*
X168170000Y-114240000D02*
X170020000Y-116090000D01*
X174200000Y-116090000D02*
X178600000Y-111690000D01*
X178600000Y-111690000D02*
X178600000Y-72800000D01*
X170710000Y-114240000D02*
X175020000Y-109930000D01*
X175020000Y-109930000D02*
X175020000Y-98580000D01*
X170000000Y-55000000D02*
X178810000Y-55000000D01*
X178810000Y-55000000D02*
X180600000Y-56790000D01*
X180600000Y-56790000D02*
X180600000Y-64000000D01*
X124990000Y-99000000D02*
X121870000Y-99000000D01*
X121870000Y-99000000D02*
X121580000Y-99290000D01*
D19*
X149140000Y-101250000D02*
X149140000Y-103794694D01*
X149140000Y-103794694D02*
X151897653Y-106552347D01*
X148900000Y-85250000D02*
X148900000Y-88030000D01*
X150620000Y-83530000D02*
X148900000Y-85250000D01*
X149210000Y-83790000D02*
X147640000Y-85360000D01*
X149210000Y-82350000D02*
X149210000Y-83790000D01*
X147640000Y-85360000D02*
X147640000Y-87830000D01*
X146240000Y-85410000D02*
X146240000Y-87940000D01*
X147700000Y-83950000D02*
X146240000Y-85410000D01*
X146240000Y-87940000D02*
X146660000Y-88360000D01*
X146640000Y-83410000D02*
X145040000Y-85010000D01*
X145040000Y-85010000D02*
X145040000Y-89560000D01*
X138300000Y-104260000D02*
X136210000Y-106350000D01*
X138500000Y-104260000D02*
X138300000Y-104260000D01*
X136210000Y-106350000D02*
X136210000Y-107590000D01*
X143270000Y-50330000D02*
X135000000Y-50330000D01*
X135000000Y-50330000D02*
X134250000Y-51080000D01*
X143867340Y-48817340D02*
X144450000Y-49400000D01*
X144450000Y-53170000D02*
X142490000Y-55130000D01*
X141617340Y-48817340D02*
X143867340Y-48817340D01*
X144450000Y-49400000D02*
X144450000Y-53170000D01*
X142490000Y-55130000D02*
X142490000Y-57420000D01*
X144910000Y-55000000D02*
X144910000Y-47988902D01*
X143990000Y-55920000D02*
X144910000Y-55000000D01*
X144910000Y-47988902D02*
X143896088Y-46974990D01*
X147260000Y-66590000D02*
X147680000Y-66170000D01*
X144540000Y-78450000D02*
X146170000Y-76820000D01*
X146170000Y-76820000D02*
X146170000Y-73280000D01*
X147260000Y-68130000D02*
X147260000Y-66590000D01*
X143000000Y-78450000D02*
X144540000Y-78450000D01*
X130800000Y-54675000D02*
X130800000Y-57270000D01*
X140300000Y-52060000D02*
X131270000Y-52060000D01*
X141770000Y-51420000D02*
X140940000Y-51420000D01*
X140940000Y-51420000D02*
X140300000Y-52060000D01*
X145830000Y-66780000D02*
X146320000Y-66290000D01*
X145830000Y-68160000D02*
X145830000Y-66780000D01*
X129200000Y-53500000D02*
X129200000Y-54700000D01*
X141780000Y-52830000D02*
X129870000Y-52830000D01*
X129870000Y-52830000D02*
X129200000Y-53500000D01*
X145180000Y-67710000D02*
X145180000Y-66190000D01*
X144600000Y-68290000D02*
X145180000Y-67710000D01*
X144270000Y-68290000D02*
X144600000Y-68290000D01*
X151396207Y-67030000D02*
X149820000Y-67030000D01*
X152264990Y-67898783D02*
X151396207Y-67030000D01*
X149820000Y-67030000D02*
X148100000Y-65310000D01*
X148100000Y-65310000D02*
X143440000Y-65310000D01*
X143440000Y-65310000D02*
X143000000Y-65750000D01*
X143000000Y-68290000D02*
X144270000Y-68290000D01*
X134740000Y-110440000D02*
X132610000Y-112570000D01*
X153150000Y-110440000D02*
X134740000Y-110440000D01*
X132610000Y-112570000D02*
X132610000Y-114240000D01*
X154860000Y-103310000D02*
X154860000Y-104460000D01*
X156230000Y-101940000D02*
X154860000Y-103310000D01*
X156860000Y-101940000D02*
X156230000Y-101940000D01*
X157660000Y-107260000D02*
X157660000Y-107600000D01*
X154860000Y-104460000D02*
X157660000Y-107260000D01*
X150620000Y-70830000D02*
X153910000Y-70830000D01*
X153910000Y-70830000D02*
X162020000Y-70830000D01*
X152980000Y-109140000D02*
X135540000Y-109140000D01*
X133225000Y-108530000D02*
X133225000Y-110085000D01*
X155880000Y-106960000D02*
X155940000Y-106960000D01*
X135540000Y-109140000D02*
X135510000Y-109170000D01*
X133225000Y-110085000D02*
X130070000Y-113240000D01*
X155940000Y-106960000D02*
X156440000Y-107460000D01*
X130070000Y-113240000D02*
X130070000Y-114240000D01*
X145310000Y-100990000D02*
X152700000Y-108380000D01*
X145310000Y-99000000D02*
X145310000Y-100990000D01*
X152700000Y-108380000D02*
X159320000Y-108380000D01*
X159320000Y-108380000D02*
X163200000Y-104500000D01*
X153380000Y-101150000D02*
X153380000Y-104460000D01*
X153380000Y-104460000D02*
X155880000Y-106960000D01*
X151831370Y-73290000D02*
X152970000Y-73290000D01*
X152970000Y-73290000D02*
X161680000Y-73290000D01*
X152970000Y-73290000D02*
X152989990Y-73290000D01*
X130990000Y-109650000D02*
X130990000Y-109740000D01*
X128790000Y-112350000D02*
X128800000Y-112360000D01*
X128790000Y-100550000D02*
X128790000Y-112350000D01*
X136240000Y-107620000D02*
X136210000Y-107590000D01*
X136310000Y-107620000D02*
X136240000Y-107620000D01*
X132900000Y-107510000D02*
X130990000Y-109420000D01*
X130990000Y-109420000D02*
X130990000Y-109650000D01*
X147770000Y-80990000D02*
X150620000Y-80990000D01*
X145311370Y-82350000D02*
X149210000Y-82350000D01*
X149210000Y-82350000D02*
X159000000Y-82350000D01*
X150620000Y-83530000D02*
X150590000Y-83560000D01*
D18*
X172870000Y-66500000D02*
X172620000Y-66250000D01*
X178000000Y-66500000D02*
X172870000Y-66500000D01*
X150870000Y-66000000D02*
X150620000Y-65750000D01*
X155750000Y-66000000D02*
X150870000Y-66000000D01*
X178000000Y-67489949D02*
X178000000Y-66500000D01*
X178200000Y-67689949D02*
X178000000Y-67489949D01*
X178200000Y-71500000D02*
X178200000Y-67689949D01*
X178600000Y-71900000D02*
X178200000Y-71500000D01*
X178600000Y-72800000D02*
X178600000Y-71900000D01*
X170120000Y-63750000D02*
X172620000Y-66250000D01*
X155750000Y-66000000D02*
X156449999Y-66699999D01*
X156449999Y-66699999D02*
X156449999Y-66849999D01*
X156449999Y-66849999D02*
X157000000Y-67400000D01*
X157000000Y-67400000D02*
X161529998Y-67400000D01*
X161529998Y-67400000D02*
X165179998Y-63750000D01*
X165179998Y-63750000D02*
X170120000Y-63750000D01*
X180200000Y-72800000D02*
X178600000Y-72800000D01*
X182600000Y-70400000D02*
X180200000Y-72800000D01*
X182600000Y-54900000D02*
X182600000Y-70400000D01*
X120390000Y-57420000D02*
X118210000Y-55240000D01*
X121490000Y-57420000D02*
X120390000Y-57420000D01*
X118210000Y-55240000D02*
X118210000Y-49630000D01*
X118210000Y-49630000D02*
X125465000Y-42375000D01*
X125465000Y-42375000D02*
X170075000Y-42375000D01*
X170075000Y-42375000D02*
X182600000Y-54900000D01*
D19*
X124625000Y-57175000D02*
X124760000Y-57310000D01*
X124625000Y-54625000D02*
X124625000Y-57175000D01*
X126125000Y-57175000D02*
X126260000Y-57310000D01*
X126125000Y-54625000D02*
X126125000Y-57175000D01*
X129200000Y-57250000D02*
X129260000Y-57310000D01*
X129200000Y-54700000D02*
X129200000Y-57250000D01*
X130800000Y-57270000D02*
X130760000Y-57310000D01*
X132275000Y-57295000D02*
X132260000Y-57310000D01*
X132275000Y-54625000D02*
X132275000Y-57295000D01*
X133750000Y-57300000D02*
X133760000Y-57310000D01*
X133750000Y-54600000D02*
X133750000Y-57300000D01*
X135250000Y-57300000D02*
X135260000Y-57310000D01*
X135250000Y-54650000D02*
X135250000Y-57300000D01*
X136725000Y-57275000D02*
X136760000Y-57310000D01*
X136725000Y-54700000D02*
X136725000Y-57275000D01*
X138225000Y-57275000D02*
X138260000Y-57310000D01*
X138225000Y-54700000D02*
X138225000Y-57275000D01*
X139750000Y-57300000D02*
X139760000Y-57310000D01*
X139750000Y-54675000D02*
X139750000Y-57300000D01*
X173934315Y-67900000D02*
X173534315Y-67500000D01*
X174500000Y-67900000D02*
X173934315Y-67900000D01*
X173534315Y-67500000D02*
X171400000Y-67500000D01*
X170110000Y-68790000D02*
X165000000Y-68790000D01*
X171400000Y-67500000D02*
X170110000Y-68790000D01*
X141260000Y-54615000D02*
X141350000Y-54525000D01*
X141260000Y-57310000D02*
X141260000Y-54615000D01*
X174200000Y-74500000D02*
X173500000Y-75200000D01*
X166131370Y-76410000D02*
X165000000Y-76410000D01*
X167341370Y-75200000D02*
X166131370Y-76410000D01*
X173500000Y-75200000D02*
X167341370Y-75200000D01*
X165799999Y-78150001D02*
X165000000Y-78950000D01*
X166250000Y-77700000D02*
X165799999Y-78150001D01*
X173900000Y-77700000D02*
X166250000Y-77700000D01*
X175200000Y-76400000D02*
X173900000Y-77700000D01*
X168130000Y-86570000D02*
X165000000Y-86570000D01*
X169400000Y-85300000D02*
X168130000Y-86570000D01*
X175300000Y-83300000D02*
X173300000Y-85300000D01*
X173300000Y-85300000D02*
X169400000Y-85300000D01*
X145490000Y-56288630D02*
X145490000Y-57420000D01*
X145800000Y-55978630D02*
X145490000Y-56288630D01*
X145800000Y-46265685D02*
X145800000Y-55978630D01*
X146000000Y-45500000D02*
X146000000Y-46065685D01*
X146000000Y-46065685D02*
X145800000Y-46265685D01*
X147225000Y-44375000D02*
X147700000Y-43900000D01*
X146990000Y-55920000D02*
X147225000Y-55685000D01*
X147225000Y-55685000D02*
X147225000Y-44375000D01*
X148800000Y-57110000D02*
X148490000Y-57420000D01*
X148600000Y-45500000D02*
X148800000Y-45700000D01*
X148800000Y-45700000D02*
X148800000Y-57110000D01*
X150300000Y-55610000D02*
X149990000Y-55920000D01*
X150300000Y-46975000D02*
X150300000Y-55610000D01*
X151490000Y-56288630D02*
X151490000Y-57420000D01*
X151490000Y-44250685D02*
X151490000Y-56288630D01*
X152000000Y-43740685D02*
X151490000Y-44250685D01*
X152000000Y-43175000D02*
X152000000Y-43740685D01*
X150390000Y-102840000D02*
X150390000Y-99000000D01*
X153825000Y-106275000D02*
X150390000Y-102840000D01*
X163170000Y-69500000D02*
X165000000Y-71330000D01*
X143000000Y-70830000D02*
X144131370Y-70830000D01*
X144131370Y-70830000D02*
X145461370Y-69500000D01*
X154000000Y-69500000D02*
X163170000Y-69500000D01*
X145461370Y-69500000D02*
X154000000Y-69500000D01*
X163090000Y-113260000D02*
X163090000Y-114240000D01*
X171940000Y-104410000D02*
X163090000Y-113260000D01*
X171940000Y-96340000D02*
X171940000Y-104410000D01*
X166131370Y-71330000D02*
X167421370Y-70040000D01*
X165000000Y-71330000D02*
X166131370Y-71330000D01*
X167421370Y-70040000D02*
X172995002Y-70040000D01*
X172995002Y-70040000D02*
X177120000Y-74164998D01*
X177120000Y-74164998D02*
X177120000Y-91160000D01*
X177120000Y-91160000D02*
X171940000Y-96340000D01*
X153150000Y-57200000D02*
X153260000Y-57310000D01*
X153150000Y-54125000D02*
X153150000Y-57200000D01*
X143960000Y-73370000D02*
X143000000Y-73370000D01*
X145220000Y-72110000D02*
X143960000Y-73370000D01*
X165000000Y-73870000D02*
X163868630Y-73870000D01*
X163868630Y-73870000D02*
X162108630Y-72110000D01*
X155400000Y-72110000D02*
X145220000Y-72110000D01*
X162108630Y-72110000D02*
X155400000Y-72110000D01*
X169460000Y-105340000D02*
X163090000Y-111710000D01*
X169460000Y-96640000D02*
X169460000Y-105340000D01*
X166131370Y-73870000D02*
X167311370Y-72690000D01*
X165000000Y-73870000D02*
X166131370Y-73870000D01*
X167311370Y-72690000D02*
X173730000Y-72690000D01*
X173730000Y-72690000D02*
X176400000Y-75360000D01*
X176400000Y-75360000D02*
X176400000Y-89700000D01*
X176400000Y-89700000D02*
X169460000Y-96640000D01*
X154700000Y-57250000D02*
X154760000Y-57310000D01*
X154700000Y-54225000D02*
X154700000Y-57250000D01*
X143799999Y-80190001D02*
X143809999Y-80190001D01*
X143000000Y-80990000D02*
X143799999Y-80190001D01*
X164200001Y-80690001D02*
X165000000Y-81490000D01*
X163374999Y-79864999D02*
X164200001Y-80690001D01*
X143809999Y-80190001D02*
X144135001Y-79864999D01*
X157600000Y-79864999D02*
X163374999Y-79864999D01*
X144135001Y-79864999D02*
X157600000Y-79864999D01*
X156200000Y-57250000D02*
X156260000Y-57310000D01*
X156200000Y-54275000D02*
X156200000Y-57250000D01*
X144131370Y-83530000D02*
X145311370Y-82350000D01*
X143000000Y-83530000D02*
X144131370Y-83530000D01*
X163330000Y-84030000D02*
X165000000Y-84030000D01*
X161650000Y-82350000D02*
X163330000Y-84030000D01*
X159000000Y-82350000D02*
X161650000Y-82350000D01*
X157700000Y-57250000D02*
X157760000Y-57310000D01*
X157700000Y-54275000D02*
X157700000Y-57250000D01*
X161570000Y-83530000D02*
X163310000Y-85270000D01*
X163310000Y-85270000D02*
X166020000Y-85270000D01*
X167260000Y-84030000D02*
X172620000Y-84030000D01*
X166020000Y-85270000D02*
X167260000Y-84030000D01*
X160200000Y-83530000D02*
X161570000Y-83530000D01*
X150620000Y-83530000D02*
X160200000Y-83530000D01*
X159350000Y-57220000D02*
X159260000Y-57310000D01*
X159350000Y-54275000D02*
X159350000Y-57220000D01*
X167380000Y-81490000D02*
X172620000Y-81490000D01*
X161890000Y-80950000D02*
X163680000Y-82740000D01*
X151751370Y-80990000D02*
X151791370Y-80950000D01*
X150620000Y-80990000D02*
X151751370Y-80990000D01*
X163680000Y-82740000D02*
X166130000Y-82740000D01*
X166130000Y-82740000D02*
X167380000Y-81490000D01*
X151791370Y-80950000D02*
X161100000Y-80950000D01*
X161100000Y-80950000D02*
X161890000Y-80950000D01*
X160850000Y-57220000D02*
X160760000Y-57310000D01*
X160850000Y-54300000D02*
X160850000Y-57220000D01*
X167410000Y-73870000D02*
X172620000Y-73870000D01*
X151751370Y-73370000D02*
X151831370Y-73290000D01*
X150620000Y-73370000D02*
X151751370Y-73370000D01*
X163490000Y-75100000D02*
X166180000Y-75100000D01*
X166180000Y-75100000D02*
X167410000Y-73870000D01*
X161680000Y-73290000D02*
X162300000Y-73910000D01*
X162300000Y-73910000D02*
X163490000Y-75100000D01*
X162250000Y-57300000D02*
X162260000Y-57310000D01*
X162250000Y-54350000D02*
X162250000Y-57300000D01*
X167460000Y-71330000D02*
X172620000Y-71330000D01*
X166230000Y-72560000D02*
X167460000Y-71330000D01*
X163750000Y-72560000D02*
X166230000Y-72560000D01*
X162020000Y-70830000D02*
X163750000Y-72560000D01*
X163675000Y-57225000D02*
X163760000Y-57310000D01*
X163675000Y-54475000D02*
X163675000Y-57225000D01*
X165225000Y-57275000D02*
X165260000Y-57310000D01*
X165225000Y-54550000D02*
X165225000Y-57275000D01*
X166750000Y-57300000D02*
X166760000Y-57310000D01*
X166750000Y-54650000D02*
X166750000Y-57300000D01*
D18*
X167990000Y-55920000D02*
X169080000Y-55920000D01*
X169080000Y-55920000D02*
X170000000Y-55000000D01*
X127530000Y-99000000D02*
X124990000Y-99000000D01*
X124990000Y-99000000D02*
X124990000Y-101510000D01*
X124990000Y-101510000D02*
X124880000Y-101620000D01*
X180500000Y-64100000D02*
X180600000Y-64000000D01*
X180500000Y-66500000D02*
X180500000Y-64100000D01*
X169400000Y-57330000D02*
X167990000Y-55920000D01*
X169400000Y-59200000D02*
X169400000Y-57330000D01*
X166000000Y-62600000D02*
X169400000Y-59200000D01*
X158250000Y-66000000D02*
X161650000Y-62600000D01*
X161650000Y-62600000D02*
X166000000Y-62600000D01*
X165000000Y-89110000D02*
X170110000Y-89110000D01*
X170110000Y-89110000D02*
X170200000Y-89200000D01*
D19*
X152664989Y-68298782D02*
X152264990Y-67898783D01*
X163950000Y-66250000D02*
X161901218Y-68298782D01*
X161901218Y-68298782D02*
X152664989Y-68298782D01*
X165000000Y-66250000D02*
X163950000Y-66250000D01*
X171820001Y-89909999D02*
X171820001Y-90439999D01*
X172620000Y-89110000D02*
X171820001Y-89909999D01*
X171820001Y-90439999D02*
X166910000Y-95350000D01*
X166910000Y-95350000D02*
X166910000Y-100000000D01*
X166910000Y-100000000D02*
X165940000Y-100970000D01*
X154900000Y-100970000D02*
X152930000Y-99000000D01*
X165940000Y-100970000D02*
X154900000Y-100970000D01*
X123100000Y-57150000D02*
X123260000Y-57310000D01*
X123100000Y-54575000D02*
X123100000Y-57150000D01*
D18*
X140863709Y-88610000D02*
X140824055Y-88649654D01*
X143000000Y-88610000D02*
X140863709Y-88610000D01*
M02*
