G04 #@! TF.GenerationSoftware,KiCad,Pcbnew,(5.99.0-1468-g7e1294a4b)*
G04 #@! TF.CreationDate,2020-10-04T20:21:57+02:00*
G04 #@! TF.ProjectId,GB Dumper_SMD,47422044-756d-4706-9572-5f534d442e6b,rev?*
G04 #@! TF.SameCoordinates,Original*
G04 #@! TF.FileFunction,Copper,L2,Bot*
G04 #@! TF.FilePolarity,Positive*
%FSLAX46Y46*%
G04 Gerber Fmt 4.6, Leading zero omitted, Abs format (unit mm)*
G04 Created by KiCad (PCBNEW (5.99.0-1468-g7e1294a4b)) date 2020-10-04 20:21:57*
%MOMM*%
%LPD*%
G01*
G04 APERTURE LIST*
G04 #@! TA.AperFunction,ComponentPad*
%ADD10O,1.600000X1.600000*%
G04 #@! TD*
G04 #@! TA.AperFunction,ComponentPad*
%ADD11R,1.600000X1.600000*%
G04 #@! TD*
G04 #@! TA.AperFunction,ComponentPad*
%ADD12C,1.400000*%
G04 #@! TD*
G04 #@! TA.AperFunction,ViaPad*
%ADD13C,0.800000*%
G04 #@! TD*
G04 #@! TA.AperFunction,Conductor*
%ADD14C,0.400000*%
G04 #@! TD*
G04 #@! TA.AperFunction,Conductor*
%ADD15C,0.250000*%
G04 #@! TD*
G04 #@! TA.AperFunction,Conductor*
%ADD16C,0.254000*%
G04 #@! TD*
G04 APERTURE END LIST*
D10*
X173250000Y-99000000D03*
X170710000Y-99000000D03*
X168170000Y-99000000D03*
X165630000Y-99000000D03*
X163090000Y-99000000D03*
X160550000Y-99000000D03*
X158010000Y-99000000D03*
X155470000Y-99000000D03*
X152930000Y-99000000D03*
X150390000Y-99000000D03*
X147850000Y-99000000D03*
X145310000Y-99000000D03*
X142770000Y-99000000D03*
X140230000Y-99000000D03*
X137690000Y-99000000D03*
X135150000Y-99000000D03*
X132610000Y-99000000D03*
X130070000Y-99000000D03*
X127530000Y-99000000D03*
X124990000Y-99000000D03*
X124990000Y-114240000D03*
X127530000Y-114240000D03*
X130070000Y-114240000D03*
X132610000Y-114240000D03*
X135150000Y-114240000D03*
X137690000Y-114240000D03*
X140230000Y-114240000D03*
X142770000Y-114240000D03*
X145310000Y-114240000D03*
X147850000Y-114240000D03*
X150390000Y-114240000D03*
X152930000Y-114240000D03*
X155470000Y-114240000D03*
X158010000Y-114240000D03*
X160550000Y-114240000D03*
X163090000Y-114240000D03*
X165630000Y-114240000D03*
X168170000Y-114240000D03*
X170710000Y-114240000D03*
X173250000Y-114240000D03*
D11*
X165000000Y-66250000D03*
D10*
X172620000Y-89110000D03*
X165000000Y-68790000D03*
X172620000Y-86570000D03*
X165000000Y-71330000D03*
X172620000Y-84030000D03*
X165000000Y-73870000D03*
X172620000Y-81490000D03*
X165000000Y-76410000D03*
X172620000Y-78950000D03*
X165000000Y-78950000D03*
X172620000Y-76410000D03*
X165000000Y-81490000D03*
X172620000Y-73870000D03*
X165000000Y-84030000D03*
X172620000Y-71330000D03*
X165000000Y-86570000D03*
X172620000Y-68790000D03*
X165000000Y-89110000D03*
X172620000Y-66250000D03*
D11*
X143000000Y-65750000D03*
D10*
X150620000Y-88610000D03*
X143000000Y-68290000D03*
X150620000Y-86070000D03*
X143000000Y-70830000D03*
X150620000Y-83530000D03*
X143000000Y-73370000D03*
X150620000Y-80990000D03*
X143000000Y-75910000D03*
X150620000Y-78450000D03*
X143000000Y-78450000D03*
X150620000Y-75910000D03*
X143000000Y-80990000D03*
X150620000Y-73370000D03*
X143000000Y-83530000D03*
X150620000Y-70830000D03*
X143000000Y-86070000D03*
X150620000Y-68290000D03*
X143000000Y-88610000D03*
X150620000Y-65750000D03*
D12*
X155750000Y-66000000D03*
X158250000Y-66000000D03*
X180500000Y-66500000D03*
X178000000Y-66500000D03*
D13*
X175020000Y-98580000D03*
X121580000Y-99290000D03*
X155581218Y-68298782D03*
X149140000Y-101250000D03*
X148900000Y-88030000D03*
X147640000Y-87830000D03*
X146660000Y-88360000D03*
X145040000Y-89560000D03*
X138500000Y-104260000D03*
X134250000Y-51080000D03*
X143270000Y-50330000D03*
X147260000Y-68130000D03*
X147680000Y-66170000D03*
X146170000Y-73280000D03*
X141770000Y-51420000D03*
X131270000Y-52060000D03*
X141617340Y-48817340D03*
X143896088Y-46974990D03*
X146320000Y-66290000D03*
X145830000Y-68160000D03*
X141780000Y-52830000D03*
X145180000Y-66190000D03*
X157660000Y-107600000D03*
X153150000Y-110440000D03*
X156860000Y-101940000D03*
X153910000Y-70830000D03*
X156440000Y-107460000D03*
X133225000Y-108530000D03*
X135510000Y-109170000D03*
X152980000Y-109140000D03*
X153380000Y-101150000D03*
X152989990Y-73290000D03*
X146640000Y-83410000D03*
X130990000Y-109740000D03*
X128790000Y-100550000D03*
X128800000Y-112360000D03*
X136210000Y-107590000D03*
X132900000Y-107510000D03*
X147700000Y-83950000D03*
X147770000Y-80990000D03*
X151897653Y-106552347D03*
X124625000Y-54625000D03*
X126125000Y-54625000D03*
X130800000Y-54675000D03*
X132275000Y-54625000D03*
X133750000Y-54600000D03*
X135250000Y-54650000D03*
X136725000Y-54700000D03*
X138225000Y-54700000D03*
X139750000Y-54675000D03*
X174500000Y-67900000D03*
X141350000Y-54525000D03*
X174200000Y-74500000D03*
X175200000Y-76400000D03*
X146000000Y-45500000D03*
X175300000Y-83300000D03*
X147700000Y-43900000D03*
X148600000Y-45500000D03*
X150300000Y-46975000D03*
X152000000Y-43175000D03*
X153825000Y-106275000D03*
X154000000Y-69500000D03*
X153150000Y-54125000D03*
X155400000Y-72110000D03*
X163090000Y-111710000D03*
X154700000Y-54225000D03*
X157600000Y-79864999D03*
X156200000Y-54275000D03*
X159000000Y-82350000D03*
X157700000Y-54275000D03*
X160200000Y-83530000D03*
X159350000Y-54275000D03*
X161100000Y-80950000D03*
X160850000Y-54300000D03*
X162300000Y-73910000D03*
X162250000Y-54350000D03*
X163675000Y-54475000D03*
X160000000Y-105200000D03*
X165225000Y-54550000D03*
X163200000Y-104500000D03*
X166750000Y-54650000D03*
X180600000Y-64000000D03*
X170000000Y-55000000D03*
X171680000Y-118900000D03*
X124880000Y-101620000D03*
X170200000Y-89200000D03*
X127700000Y-54650000D03*
X123100000Y-54575000D03*
X140824055Y-88649654D03*
D14*
X170200000Y-89200000D02*
X170200000Y-93760000D01*
X170200000Y-93760000D02*
X175020000Y-98580000D01*
D15*
X153910000Y-95580000D02*
X156770000Y-98440000D01*
X153910000Y-70830000D02*
X153910000Y-95580000D01*
X156770000Y-101850000D02*
X156860000Y-101940000D01*
X156770000Y-98440000D02*
X156770000Y-101850000D01*
X155470000Y-101470000D02*
X154460000Y-102480000D01*
X150620000Y-93080000D02*
X150620000Y-88610000D01*
X152950000Y-102480000D02*
X151700000Y-101230000D01*
X155470000Y-99000000D02*
X155470000Y-101470000D01*
X154460000Y-102480000D02*
X152950000Y-102480000D01*
X151700000Y-101230000D02*
X151700000Y-94160000D01*
X151700000Y-94160000D02*
X150620000Y-93080000D01*
X157210000Y-97410000D02*
X154680000Y-94880000D01*
X156380000Y-69097564D02*
X155581218Y-68298782D01*
X163090000Y-99000000D02*
X161500000Y-97410000D01*
X154680000Y-94880000D02*
X154680000Y-73610000D01*
X155130000Y-73160000D02*
X155710000Y-73160000D01*
X155710000Y-73160000D02*
X156380000Y-72490000D01*
X154680000Y-73610000D02*
X155130000Y-73160000D01*
X156380000Y-72490000D02*
X156380000Y-69097564D01*
X161500000Y-97410000D02*
X157210000Y-97410000D01*
X149140000Y-101250000D02*
X149140000Y-88270000D01*
X149140000Y-88270000D02*
X148900000Y-88030000D01*
X140060000Y-105090000D02*
X136220000Y-105090000D01*
X147640000Y-92960000D02*
X144010000Y-96590000D01*
X147640000Y-87830000D02*
X147640000Y-92960000D01*
X144010000Y-96590000D02*
X144010000Y-101140000D01*
X144010000Y-101140000D02*
X140060000Y-105090000D01*
X141510000Y-96080000D02*
X146660000Y-90930000D01*
X146660000Y-90930000D02*
X146660000Y-88360000D01*
X138500000Y-104260000D02*
X141510000Y-101250000D01*
X141510000Y-101250000D02*
X141510000Y-96080000D01*
X137690000Y-96910000D02*
X145040000Y-89560000D01*
X137690000Y-99000000D02*
X137690000Y-96910000D01*
X133884987Y-78806558D02*
X133884987Y-56015013D01*
X143530000Y-82250000D02*
X137328429Y-82250000D01*
X137328429Y-82250000D02*
X133884987Y-78806558D01*
X150620000Y-86070000D02*
X147350000Y-86070000D01*
X147350000Y-86070000D02*
X143530000Y-82250000D01*
X133884987Y-56015013D02*
X135250000Y-54650000D01*
X140512018Y-86070000D02*
X133350001Y-78907983D01*
X143000000Y-86070000D02*
X140512018Y-86070000D01*
X133350001Y-54999999D02*
X133750000Y-54600000D01*
X133350001Y-78907983D02*
X133350001Y-54999999D01*
X132270000Y-53060000D02*
X132270000Y-54620000D01*
X134250000Y-51080000D02*
X132270000Y-53060000D01*
X132270000Y-54620000D02*
X132275000Y-54625000D01*
X147680000Y-66170000D02*
X147680000Y-53500000D01*
X144510000Y-50330000D02*
X143270000Y-50330000D01*
X147680000Y-53500000D02*
X144510000Y-50330000D01*
X146170000Y-69220000D02*
X147260000Y-68130000D01*
X146170000Y-73280000D02*
X146170000Y-69220000D01*
X139528852Y-80874954D02*
X136589793Y-80874954D01*
X149350000Y-79720000D02*
X140683806Y-79720000D01*
X136589793Y-80874954D02*
X134334998Y-78620159D01*
X134334998Y-78620159D02*
X134334998Y-57090002D01*
X134334998Y-57090002D02*
X136725000Y-54700000D01*
X140683806Y-79720000D02*
X139528852Y-80874954D01*
X150620000Y-78450000D02*
X149350000Y-79720000D01*
X149350000Y-77180000D02*
X141323783Y-77180000D01*
X150620000Y-75910000D02*
X149350000Y-77180000D01*
X141323783Y-77180000D02*
X138225000Y-74081217D01*
X138225000Y-74081217D02*
X138225000Y-54700000D01*
X130750000Y-52580000D02*
X130750000Y-54625000D01*
X131270000Y-52060000D02*
X130750000Y-52580000D01*
X130750000Y-54625000D02*
X130800000Y-54675000D01*
X143330000Y-51420000D02*
X141770000Y-51420000D01*
X146320000Y-54530000D02*
X146320000Y-54410000D01*
X146320000Y-54410000D02*
X143330000Y-51420000D01*
X176750033Y-51313623D02*
X171686409Y-46249999D01*
X171686409Y-46249999D02*
X144621079Y-46249999D01*
X174500000Y-67900000D02*
X174500000Y-51000000D01*
X176750033Y-74849967D02*
X176750033Y-51313623D01*
X174200000Y-74500000D02*
X175500000Y-73200000D01*
X142734680Y-47700000D02*
X141617340Y-48817340D01*
X140720000Y-53895000D02*
X141350000Y-54525000D01*
X171836411Y-47700000D02*
X142734680Y-47700000D01*
X175500000Y-51363589D02*
X171836411Y-47700000D01*
X175500000Y-73200000D02*
X175500000Y-51363589D01*
X144621079Y-46249999D02*
X143896088Y-46974990D01*
X175200000Y-76400000D02*
X176750033Y-74849967D01*
X174500000Y-51000000D02*
X171800000Y-48300000D01*
X171800000Y-48300000D02*
X143160000Y-48300000D01*
X143160000Y-48300000D02*
X140720000Y-50740000D01*
X140720000Y-50740000D02*
X140720000Y-53895000D01*
X145090000Y-68900000D02*
X145830000Y-68160000D01*
X146320000Y-66290000D02*
X146320000Y-54530000D01*
X145090000Y-73820000D02*
X145090000Y-68900000D01*
X143000000Y-75910000D02*
X145090000Y-73820000D01*
X143210000Y-52800000D02*
X141810000Y-52800000D01*
X141810000Y-52800000D02*
X141780000Y-52830000D01*
X145180000Y-66190000D02*
X145180000Y-54770000D01*
X145180000Y-54770000D02*
X143210000Y-52800000D01*
X149410000Y-67080000D02*
X140580000Y-67080000D01*
X150620000Y-68290000D02*
X149410000Y-67080000D01*
X140580000Y-67080000D02*
X139500000Y-66000000D01*
X139500000Y-66000000D02*
X139500000Y-57430000D01*
X156500000Y-110440000D02*
X153150000Y-110440000D01*
X157660000Y-107600000D02*
X157660000Y-109280000D01*
X157660000Y-109280000D02*
X156500000Y-110440000D01*
X156440000Y-107460000D02*
X156440000Y-108370000D01*
X135510000Y-109170000D02*
X133865000Y-109170000D01*
X155670000Y-109140000D02*
X152980000Y-109140000D01*
X133865000Y-109170000D02*
X133225000Y-108530000D01*
X156440000Y-108370000D02*
X155670000Y-109140000D01*
X154190000Y-97990000D02*
X154190000Y-100340000D01*
X152989990Y-96789990D02*
X154190000Y-97990000D01*
X154190000Y-100340000D02*
X153380000Y-101150000D01*
X152989990Y-87969990D02*
X152989990Y-96789990D01*
X152989990Y-73290000D02*
X152989990Y-87969990D01*
X143000000Y-80990000D02*
X144220000Y-80990000D01*
X144220000Y-80990000D02*
X146640000Y-83410000D01*
X129610000Y-109740000D02*
X127530000Y-111820000D01*
X130990000Y-109740000D02*
X129610000Y-109740000D01*
X127530000Y-111820000D02*
X127530000Y-114240000D01*
X128800000Y-96400000D02*
X128800000Y-100540000D01*
X128800000Y-100540000D02*
X128790000Y-100550000D01*
X128800000Y-112360000D02*
X128800000Y-115100000D01*
X132980000Y-107590000D02*
X132900000Y-107510000D01*
X136210000Y-107590000D02*
X132980000Y-107590000D01*
X147770000Y-80990000D02*
X147770000Y-83880000D01*
X147770000Y-83880000D02*
X147700000Y-83950000D01*
X135150000Y-104020000D02*
X135150000Y-99000000D01*
X136220000Y-105090000D02*
X135150000Y-104020000D01*
X151520000Y-105200000D02*
X147850000Y-101530000D01*
X160000000Y-105200000D02*
X151520000Y-105200000D01*
X147850000Y-101530000D02*
X147850000Y-99000000D01*
X123100000Y-116400000D02*
X124700000Y-118000000D01*
X123100000Y-54575000D02*
X123100000Y-116400000D01*
X124700000Y-118000000D02*
X156790000Y-118000000D01*
X156790000Y-118000000D02*
X160550000Y-114240000D01*
X139700000Y-117500000D02*
X126290000Y-117500000D01*
X126290000Y-117500000D02*
X124990000Y-116200000D01*
X124990000Y-116200000D02*
X124990000Y-114240000D01*
X126300000Y-116270000D02*
X126300000Y-95400000D01*
X127000000Y-116970000D02*
X126300000Y-116270000D01*
X140230000Y-114240000D02*
X137500000Y-116970000D01*
X126300000Y-95400000D02*
X123690001Y-92790001D01*
X137500000Y-116970000D02*
X127000000Y-116970000D01*
X123690001Y-92790001D02*
X123690001Y-55559999D01*
X123690001Y-55559999D02*
X124625000Y-54625000D01*
X151804999Y-106645001D02*
X151804999Y-115605001D01*
X151897653Y-106552347D02*
X151804999Y-106645001D01*
X151804999Y-115605001D02*
X149910000Y-117500000D01*
X149910000Y-117500000D02*
X139700000Y-117500000D01*
X125990000Y-59414959D02*
X124349989Y-61054970D01*
X124349989Y-91949989D02*
X128800000Y-96400000D01*
X136890001Y-115039999D02*
X137690000Y-114240000D01*
X130000000Y-116300000D02*
X135630000Y-116300000D01*
X135630000Y-116300000D02*
X136890001Y-115039999D01*
X125990000Y-55920000D02*
X125990000Y-59414959D01*
X124349989Y-61054970D02*
X124349989Y-91949989D01*
X128800000Y-115100000D02*
X130000000Y-116300000D01*
X125990000Y-55920000D02*
X125990000Y-54760000D01*
X125990000Y-54760000D02*
X126125000Y-54625000D01*
X139500000Y-57430000D02*
X139490000Y-57420000D01*
X139500000Y-57430000D02*
X139500000Y-54925000D01*
X139500000Y-54925000D02*
X139750000Y-54675000D01*
X165000000Y-68790000D02*
X166131370Y-68790000D01*
X165000000Y-78950000D02*
X166250000Y-77700000D01*
X181999978Y-76600022D02*
X181999978Y-72936432D01*
X146800000Y-44700000D02*
X146399999Y-45100001D01*
X182399978Y-55572797D02*
X171527180Y-44700000D01*
X182399978Y-72536433D02*
X182399978Y-55572797D01*
X181999978Y-72936432D02*
X182399978Y-72536433D01*
X171527180Y-44700000D02*
X146800000Y-44700000D01*
X146399999Y-45100001D02*
X146000000Y-45500000D01*
X175300000Y-83300000D02*
X181999978Y-76600022D01*
X182849989Y-72722833D02*
X182849989Y-55386397D01*
X172666410Y-86570000D02*
X172736410Y-86500000D01*
X172736410Y-86500000D02*
X173500000Y-86500000D01*
X182849989Y-55386397D02*
X171363590Y-43900000D01*
X173500000Y-86500000D02*
X182449989Y-77550011D01*
X148265685Y-43900000D02*
X147700000Y-43900000D01*
X171363590Y-43900000D02*
X148265685Y-43900000D01*
X182449989Y-77550011D02*
X182449989Y-73122832D01*
X182449989Y-73122832D02*
X182849989Y-72722833D01*
X172620000Y-86570000D02*
X172666410Y-86570000D01*
X149165685Y-45500000D02*
X148600000Y-45500000D01*
X171690770Y-45500000D02*
X149165685Y-45500000D01*
X181949967Y-72350033D02*
X181949967Y-55759197D01*
X172620000Y-78950000D02*
X175350000Y-78950000D01*
X175350000Y-78950000D02*
X181949967Y-72350033D01*
X181949967Y-55759197D02*
X171690770Y-45500000D01*
X173751370Y-76410000D02*
X176200000Y-73961370D01*
X176200000Y-65972822D02*
X176300022Y-65872800D01*
X176300022Y-51500022D02*
X171775000Y-46975000D01*
X150865685Y-46975000D02*
X150300000Y-46975000D01*
X172620000Y-76410000D02*
X173751370Y-76410000D01*
X176300022Y-65872800D02*
X176300022Y-51500022D01*
X176200000Y-73961370D02*
X176200000Y-65972822D01*
X171775000Y-46975000D02*
X150865685Y-46975000D01*
X152565685Y-43175000D02*
X152000000Y-43175000D01*
X182900000Y-94900000D02*
X182900000Y-73309232D01*
X158030000Y-106600000D02*
X171200000Y-106600000D01*
X171200000Y-106600000D02*
X182900000Y-94900000D01*
X182900000Y-73309232D02*
X183300000Y-72909233D01*
X183300000Y-72909233D02*
X183300000Y-55199997D01*
X171275000Y-43175000D02*
X152565685Y-43175000D01*
X183300000Y-55199997D02*
X183165168Y-55065166D01*
X183165168Y-55065166D02*
X171275000Y-43175000D01*
X158030000Y-106600000D02*
X154150000Y-106600000D01*
X154150000Y-106600000D02*
X153825000Y-106275000D01*
X152990000Y-59790000D02*
X152990000Y-55920000D01*
X152990000Y-68790000D02*
X152990000Y-59790000D01*
X154000000Y-69500000D02*
X153700000Y-69500000D01*
X153700000Y-69500000D02*
X152990000Y-68790000D01*
X152990000Y-55920000D02*
X152990000Y-54285000D01*
X152990000Y-54285000D02*
X153150000Y-54125000D01*
X153900000Y-58010000D02*
X154490000Y-57420000D01*
X153900000Y-67900000D02*
X153900000Y-58010000D01*
X155000000Y-69000000D02*
X153900000Y-67900000D01*
X155000000Y-71800000D02*
X155000000Y-69000000D01*
X155400000Y-72110000D02*
X155310000Y-72110000D01*
X155310000Y-72110000D02*
X155000000Y-71800000D01*
X165630000Y-113684315D02*
X165630000Y-114240000D01*
X163090000Y-111710000D02*
X163655685Y-111710000D01*
X163655685Y-111710000D02*
X165630000Y-113684315D01*
X154490000Y-57420000D02*
X154490000Y-54435000D01*
X154490000Y-54435000D02*
X154700000Y-54225000D01*
X157999999Y-79465000D02*
X157999999Y-71600001D01*
X157600000Y-79864999D02*
X157999999Y-79465000D01*
X157999999Y-71600001D02*
X160200000Y-69400000D01*
X160200000Y-69400000D02*
X160200000Y-65500000D01*
X160200000Y-65500000D02*
X159100000Y-64400000D01*
X159100000Y-64400000D02*
X157000000Y-64400000D01*
X155990000Y-63390000D02*
X155990000Y-55920000D01*
X157000000Y-64400000D02*
X155990000Y-63390000D01*
X155990000Y-55920000D02*
X155990000Y-54485000D01*
X155990000Y-54485000D02*
X156200000Y-54275000D01*
X157500000Y-57430000D02*
X157490000Y-57420000D01*
X157500000Y-63500000D02*
X157500000Y-57430000D01*
X159000000Y-82300000D02*
X158700000Y-82000000D01*
X159400000Y-63500000D02*
X157500000Y-63500000D01*
X159000000Y-82350000D02*
X159000000Y-82300000D01*
X158700000Y-82000000D02*
X158700000Y-72200000D01*
X158700000Y-72200000D02*
X160800000Y-70100000D01*
X160800000Y-70100000D02*
X160800000Y-64900000D01*
X160800000Y-64900000D02*
X159400000Y-63500000D01*
X157500000Y-57430000D02*
X157500000Y-54475000D01*
X157500000Y-54475000D02*
X157700000Y-54275000D01*
X158990000Y-61790000D02*
X158990000Y-55920000D01*
X160200000Y-83530000D02*
X160200000Y-82964315D01*
X160200000Y-82964315D02*
X159900000Y-82664315D01*
X159900000Y-72300000D02*
X161400000Y-70800000D01*
X161400000Y-70800000D02*
X161400000Y-64200000D01*
X159900000Y-82664315D02*
X159900000Y-72300000D01*
X161400000Y-64200000D02*
X158990000Y-61790000D01*
X158990000Y-55920000D02*
X158990000Y-54635000D01*
X158990000Y-54635000D02*
X159350000Y-54275000D01*
X160490000Y-57420000D02*
X160490000Y-61990000D01*
X160490000Y-61990000D02*
X162200000Y-63700000D01*
X162200000Y-63700000D02*
X162200000Y-71500000D01*
X161100000Y-72600000D02*
X161100000Y-80950000D01*
X162200000Y-71500000D02*
X161100000Y-72600000D01*
X160490000Y-57420000D02*
X160490000Y-54660000D01*
X160490000Y-54660000D02*
X160850000Y-54300000D01*
X161990000Y-55920000D02*
X161990000Y-61890000D01*
X161990000Y-61890000D02*
X163100000Y-63000000D01*
X163100000Y-73110000D02*
X162300000Y-73910000D01*
X163100000Y-63000000D02*
X163100000Y-73110000D01*
X161990000Y-55920000D02*
X161990000Y-54610000D01*
X161990000Y-54610000D02*
X162250000Y-54350000D01*
X163375000Y-51025000D02*
X163025000Y-51375000D01*
X169725000Y-51025000D02*
X163375000Y-51025000D01*
X171488630Y-71330000D02*
X170958630Y-70800000D01*
X172620000Y-71330000D02*
X171488630Y-71330000D01*
X170958630Y-70800000D02*
X170958630Y-59941370D01*
X170958630Y-59941370D02*
X172100000Y-58800000D01*
X172100000Y-58800000D02*
X172100000Y-53400000D01*
X172100000Y-53400000D02*
X169725000Y-51025000D01*
X163025000Y-51375000D02*
X162975000Y-51375000D01*
X162975000Y-51375000D02*
X162600000Y-51750000D01*
X162600000Y-51750000D02*
X162600000Y-53400000D01*
X162600000Y-53400000D02*
X163675000Y-54475000D01*
X164990000Y-57051370D02*
X165000000Y-57061370D01*
X164990000Y-55920000D02*
X164990000Y-57051370D01*
X165000000Y-57061370D02*
X165000000Y-61800000D01*
X165000000Y-61800000D02*
X167600000Y-64400000D01*
X167600000Y-64400000D02*
X167600000Y-92500000D01*
X167600000Y-92500000D02*
X164400000Y-95700000D01*
X164400000Y-95700000D02*
X164400000Y-100800000D01*
X164400000Y-100800000D02*
X160000000Y-105200000D01*
X164990000Y-55920000D02*
X164990000Y-54785000D01*
X164990000Y-54785000D02*
X165225000Y-54550000D01*
X166490000Y-58551370D02*
X168800000Y-60861370D01*
X166490000Y-57420000D02*
X166490000Y-58551370D01*
X168800000Y-74700000D02*
X169000000Y-74900000D01*
X168800000Y-60861370D02*
X168800000Y-74700000D01*
X169000000Y-74900000D02*
X169000000Y-93700000D01*
X169000000Y-93700000D02*
X166900000Y-95800000D01*
X166900000Y-95800000D02*
X166900000Y-100800000D01*
X166900000Y-100800000D02*
X163200000Y-104500000D01*
X166490000Y-57420000D02*
X166490000Y-54910000D01*
X166490000Y-54910000D02*
X166750000Y-54650000D01*
D14*
X170710000Y-114240000D02*
X170710000Y-117930000D01*
X170710000Y-117930000D02*
X171680000Y-118900000D01*
D15*
X135150000Y-111550000D02*
X135150000Y-114240000D01*
X127490000Y-58551370D02*
X124800000Y-61241370D01*
X127490000Y-57420000D02*
X127490000Y-58551370D01*
X124800000Y-61241370D02*
X124800000Y-89400000D01*
X124800000Y-89400000D02*
X131400000Y-96000000D01*
X131400000Y-96000000D02*
X131400000Y-107800000D01*
X131400000Y-107800000D02*
X135150000Y-111550000D01*
X127490000Y-57420000D02*
X127490000Y-54860000D01*
X127490000Y-54860000D02*
X127700000Y-54650000D01*
G36*
X183856000Y-37593920D02*
G01*
X183856000Y-54679782D01*
X183738612Y-54562394D01*
X171891412Y-42715198D01*
X171891407Y-42715191D01*
X171734980Y-42558764D01*
X171718934Y-42547106D01*
X171673847Y-42524133D01*
X171632916Y-42494394D01*
X171615244Y-42485389D01*
X171567126Y-42469755D01*
X171522039Y-42446782D01*
X171503176Y-42440653D01*
X171453193Y-42432737D01*
X171405078Y-42417103D01*
X171385489Y-42414001D01*
X171330191Y-42414001D01*
X171330179Y-42414000D01*
X152704124Y-42414000D01*
X152642009Y-42351884D01*
X152628905Y-42341829D01*
X152407095Y-42213767D01*
X152391835Y-42207446D01*
X152144438Y-42141156D01*
X152128062Y-42139000D01*
X151871938Y-42139000D01*
X151855562Y-42141156D01*
X151608165Y-42207446D01*
X151592905Y-42213767D01*
X151371095Y-42341829D01*
X151357991Y-42351884D01*
X151176884Y-42532991D01*
X151166829Y-42546095D01*
X151038767Y-42767905D01*
X151032446Y-42783165D01*
X150966156Y-43030562D01*
X150964000Y-43046938D01*
X150964000Y-43139000D01*
X148404124Y-43139000D01*
X148342009Y-43076884D01*
X148328905Y-43066829D01*
X148107095Y-42938767D01*
X148091835Y-42932446D01*
X147844438Y-42866156D01*
X147828062Y-42864000D01*
X147571938Y-42864000D01*
X147555562Y-42866156D01*
X147308165Y-42932446D01*
X147292905Y-42938767D01*
X147071095Y-43066829D01*
X147057991Y-43076884D01*
X146876884Y-43257991D01*
X146866829Y-43271095D01*
X146738767Y-43492905D01*
X146732446Y-43508165D01*
X146666156Y-43755562D01*
X146664000Y-43771938D01*
X146664000Y-43944027D01*
X146621808Y-43957736D01*
X146571823Y-43965653D01*
X146552962Y-43971782D01*
X146507879Y-43994753D01*
X146459754Y-44010390D01*
X146442082Y-44019394D01*
X146401147Y-44049136D01*
X146356066Y-44072106D01*
X146340020Y-44083764D01*
X146183593Y-44240191D01*
X146183588Y-44240198D01*
X145959786Y-44464000D01*
X145871938Y-44464000D01*
X145855562Y-44466156D01*
X145608165Y-44532446D01*
X145592905Y-44538767D01*
X145371095Y-44666829D01*
X145357991Y-44676884D01*
X145176884Y-44857991D01*
X145166829Y-44871095D01*
X145038767Y-45092905D01*
X145032446Y-45108165D01*
X144966156Y-45355562D01*
X144964000Y-45371938D01*
X144964000Y-45488999D01*
X144565900Y-45488999D01*
X144565888Y-45489000D01*
X144510588Y-45489000D01*
X144491000Y-45492103D01*
X144442885Y-45507736D01*
X144392902Y-45515652D01*
X144374039Y-45521781D01*
X144328950Y-45544756D01*
X144280834Y-45560389D01*
X144263162Y-45569393D01*
X144222227Y-45599134D01*
X144177145Y-45622105D01*
X144161099Y-45633763D01*
X143855873Y-45938990D01*
X143768026Y-45938990D01*
X143751650Y-45941146D01*
X143504253Y-46007436D01*
X143488993Y-46013757D01*
X143267183Y-46141819D01*
X143254079Y-46151874D01*
X143072972Y-46332981D01*
X143062917Y-46346085D01*
X142934855Y-46567895D01*
X142928534Y-46583155D01*
X142862244Y-46830552D01*
X142860088Y-46846928D01*
X142860088Y-46939000D01*
X142679501Y-46939000D01*
X142679489Y-46939001D01*
X142624189Y-46939001D01*
X142604600Y-46942103D01*
X142556485Y-46957737D01*
X142506503Y-46965654D01*
X142487641Y-46971782D01*
X142442553Y-46994755D01*
X142394434Y-47010390D01*
X142376764Y-47019394D01*
X142335830Y-47049134D01*
X142290746Y-47072106D01*
X142274700Y-47083764D01*
X142235084Y-47123381D01*
X142235069Y-47123394D01*
X141577124Y-47781340D01*
X141489278Y-47781340D01*
X141472902Y-47783496D01*
X141225505Y-47849786D01*
X141210245Y-47856107D01*
X140988435Y-47984169D01*
X140975331Y-47994224D01*
X140794224Y-48175331D01*
X140784169Y-48188435D01*
X140656107Y-48410245D01*
X140649786Y-48425505D01*
X140583496Y-48672902D01*
X140581340Y-48689278D01*
X140581340Y-48945402D01*
X140583496Y-48961778D01*
X140649786Y-49209175D01*
X140656107Y-49224435D01*
X140784169Y-49446245D01*
X140794224Y-49459349D01*
X140859331Y-49524455D01*
X140260197Y-50123589D01*
X140260190Y-50123594D01*
X140103763Y-50280022D01*
X140092106Y-50296067D01*
X140069138Y-50341145D01*
X140039394Y-50382083D01*
X140030390Y-50399755D01*
X140014753Y-50447880D01*
X139991782Y-50492963D01*
X139985653Y-50511824D01*
X139977736Y-50561809D01*
X139962103Y-50609923D01*
X139959001Y-50629511D01*
X139959001Y-50684810D01*
X139959000Y-50684822D01*
X139959001Y-53658456D01*
X139894438Y-53641156D01*
X139878062Y-53639000D01*
X139621938Y-53639000D01*
X139605562Y-53641156D01*
X139358165Y-53707446D01*
X139342905Y-53713767D01*
X139121095Y-53841829D01*
X139107991Y-53851884D01*
X138975000Y-53984875D01*
X138867009Y-53876884D01*
X138853905Y-53866829D01*
X138632095Y-53738767D01*
X138616835Y-53732446D01*
X138369438Y-53666156D01*
X138353062Y-53664000D01*
X138096938Y-53664000D01*
X138080562Y-53666156D01*
X137833165Y-53732446D01*
X137817905Y-53738767D01*
X137596095Y-53866829D01*
X137582991Y-53876884D01*
X137475000Y-53984875D01*
X137367009Y-53876884D01*
X137353905Y-53866829D01*
X137132095Y-53738767D01*
X137116835Y-53732446D01*
X136869438Y-53666156D01*
X136853062Y-53664000D01*
X136596938Y-53664000D01*
X136580562Y-53666156D01*
X136333165Y-53732446D01*
X136317905Y-53738767D01*
X136096095Y-53866829D01*
X136082991Y-53876884D01*
X136012500Y-53947375D01*
X135892009Y-53826884D01*
X135878905Y-53816829D01*
X135657095Y-53688767D01*
X135641835Y-53682446D01*
X135394438Y-53616156D01*
X135378062Y-53614000D01*
X135121938Y-53614000D01*
X135105562Y-53616156D01*
X134858165Y-53682446D01*
X134842905Y-53688767D01*
X134621095Y-53816829D01*
X134607991Y-53826884D01*
X134525000Y-53909875D01*
X134392009Y-53776884D01*
X134378905Y-53766829D01*
X134157095Y-53638767D01*
X134141835Y-53632446D01*
X133894438Y-53566156D01*
X133878062Y-53564000D01*
X133621938Y-53564000D01*
X133605562Y-53566156D01*
X133358165Y-53632446D01*
X133342905Y-53638767D01*
X133121095Y-53766829D01*
X133107991Y-53776884D01*
X133031000Y-53853875D01*
X133031000Y-53375214D01*
X134290215Y-52116000D01*
X134378062Y-52116000D01*
X134394438Y-52113844D01*
X134641835Y-52047554D01*
X134657095Y-52041233D01*
X134878905Y-51913171D01*
X134892009Y-51903116D01*
X135073116Y-51722009D01*
X135083171Y-51708905D01*
X135211233Y-51487095D01*
X135217554Y-51471835D01*
X135283844Y-51224438D01*
X135286000Y-51208062D01*
X135286000Y-50951938D01*
X135283844Y-50935562D01*
X135217554Y-50688165D01*
X135211233Y-50672905D01*
X135083171Y-50451095D01*
X135073116Y-50437991D01*
X134892009Y-50256884D01*
X134878905Y-50246829D01*
X134657095Y-50118767D01*
X134641835Y-50112446D01*
X134394438Y-50046156D01*
X134378062Y-50044000D01*
X134121938Y-50044000D01*
X134105562Y-50046156D01*
X133998999Y-50074709D01*
X134018222Y-49953341D01*
X134018999Y-49943470D01*
X134018999Y-49676530D01*
X134018222Y-49666659D01*
X133976464Y-49403005D01*
X133974153Y-49393377D01*
X133891663Y-49139501D01*
X133887874Y-49130354D01*
X133766685Y-48892508D01*
X133761512Y-48884066D01*
X133604608Y-48668106D01*
X133598178Y-48660577D01*
X133409423Y-48471822D01*
X133401894Y-48465392D01*
X133185934Y-48308488D01*
X133177492Y-48303315D01*
X132939646Y-48182126D01*
X132930499Y-48178337D01*
X132676623Y-48095847D01*
X132666995Y-48093536D01*
X132403341Y-48051778D01*
X132393470Y-48051001D01*
X132126530Y-48051001D01*
X132116659Y-48051778D01*
X131853005Y-48093536D01*
X131843377Y-48095847D01*
X131589501Y-48178337D01*
X131580354Y-48182126D01*
X131342508Y-48303315D01*
X131334066Y-48308488D01*
X131118106Y-48465392D01*
X131110577Y-48471822D01*
X130921822Y-48660577D01*
X130915392Y-48668106D01*
X130758488Y-48884066D01*
X130753315Y-48892508D01*
X130632126Y-49130354D01*
X130628337Y-49139501D01*
X130545847Y-49393377D01*
X130543536Y-49403005D01*
X130501778Y-49666659D01*
X130501001Y-49676530D01*
X130501001Y-49943470D01*
X130501778Y-49953341D01*
X130543536Y-50216995D01*
X130545847Y-50226623D01*
X130628337Y-50480499D01*
X130632126Y-50489646D01*
X130753315Y-50727492D01*
X130758488Y-50735934D01*
X130915392Y-50951894D01*
X130921822Y-50959423D01*
X131017508Y-51055109D01*
X130878165Y-51092446D01*
X130862905Y-51098767D01*
X130641095Y-51226829D01*
X130627991Y-51236884D01*
X130446884Y-51417991D01*
X130436829Y-51431095D01*
X130308767Y-51652905D01*
X130302446Y-51668165D01*
X130236156Y-51915562D01*
X130234000Y-51931938D01*
X130234000Y-52019784D01*
X130133763Y-52120022D01*
X130122106Y-52136067D01*
X130099138Y-52181145D01*
X130069394Y-52222083D01*
X130060390Y-52239755D01*
X130044753Y-52287880D01*
X130021782Y-52332963D01*
X130015653Y-52351824D01*
X130007736Y-52401809D01*
X129992103Y-52449923D01*
X129989001Y-52469511D01*
X129989001Y-52524810D01*
X129989000Y-52524822D01*
X129989001Y-54020874D01*
X129976884Y-54032991D01*
X129966829Y-54046095D01*
X129838767Y-54267905D01*
X129832446Y-54283165D01*
X129766156Y-54530562D01*
X129764000Y-54546938D01*
X129764000Y-54803062D01*
X129766156Y-54819438D01*
X129832446Y-55066835D01*
X129838767Y-55082095D01*
X129966829Y-55303905D01*
X129976884Y-55317009D01*
X130157991Y-55498116D01*
X130171095Y-55508171D01*
X130392905Y-55636233D01*
X130408165Y-55642554D01*
X130655562Y-55708844D01*
X130671938Y-55711000D01*
X130928062Y-55711000D01*
X130944438Y-55708844D01*
X131191835Y-55642554D01*
X131207095Y-55636233D01*
X131428905Y-55508171D01*
X131442009Y-55498116D01*
X131562500Y-55377625D01*
X131632991Y-55448116D01*
X131646095Y-55458171D01*
X131867905Y-55586233D01*
X131883165Y-55592554D01*
X132130562Y-55658844D01*
X132146938Y-55661000D01*
X132403062Y-55661000D01*
X132419438Y-55658844D01*
X132589002Y-55613409D01*
X132589001Y-78963161D01*
X132589002Y-78963173D01*
X132589002Y-79018472D01*
X132592104Y-79038060D01*
X132607737Y-79086174D01*
X132615654Y-79136159D01*
X132621783Y-79155020D01*
X132644754Y-79200103D01*
X132660391Y-79248228D01*
X132669395Y-79265900D01*
X132699139Y-79306838D01*
X132722107Y-79351916D01*
X132733764Y-79367961D01*
X132890191Y-79524389D01*
X132890198Y-79524394D01*
X140012408Y-86646607D01*
X140012423Y-86646620D01*
X140052038Y-86686236D01*
X140068083Y-86697893D01*
X140113163Y-86720863D01*
X140154102Y-86750607D01*
X140171773Y-86759611D01*
X140219897Y-86775248D01*
X140264980Y-86798218D01*
X140283841Y-86804347D01*
X140333826Y-86812264D01*
X140381940Y-86827897D01*
X140401528Y-86830999D01*
X140456827Y-86830999D01*
X140456839Y-86831000D01*
X141783524Y-86831000D01*
X141818088Y-86890868D01*
X141824399Y-86899881D01*
X141978587Y-87083634D01*
X141986366Y-87091413D01*
X142170119Y-87245601D01*
X142179132Y-87251912D01*
X142331705Y-87340000D01*
X142179132Y-87428088D01*
X142170119Y-87434399D01*
X141986366Y-87588587D01*
X141978587Y-87596366D01*
X141824399Y-87780119D01*
X141818088Y-87789132D01*
X141698152Y-87996868D01*
X141693502Y-88006840D01*
X141611460Y-88232247D01*
X141608613Y-88242874D01*
X141582320Y-88391982D01*
X141657854Y-88482000D01*
X144342146Y-88482000D01*
X144417680Y-88391982D01*
X144391387Y-88242874D01*
X144388540Y-88232247D01*
X144306498Y-88006840D01*
X144301848Y-87996868D01*
X144181912Y-87789132D01*
X144175601Y-87780119D01*
X144021413Y-87596366D01*
X144013634Y-87588587D01*
X143829881Y-87434399D01*
X143820868Y-87428088D01*
X143668295Y-87340000D01*
X143820868Y-87251912D01*
X143829881Y-87245601D01*
X144013634Y-87091413D01*
X144021413Y-87083634D01*
X144175601Y-86899881D01*
X144181912Y-86890868D01*
X144301848Y-86683132D01*
X144306498Y-86673160D01*
X144388540Y-86447753D01*
X144391387Y-86437126D01*
X144433041Y-86200897D01*
X144434000Y-86189936D01*
X144434000Y-85950064D01*
X144433041Y-85939103D01*
X144391387Y-85702874D01*
X144388540Y-85692247D01*
X144306498Y-85466840D01*
X144301848Y-85456868D01*
X144181912Y-85249132D01*
X144175601Y-85240119D01*
X144021413Y-85056366D01*
X144013634Y-85048587D01*
X143829881Y-84894399D01*
X143820868Y-84888088D01*
X143668295Y-84800000D01*
X143820868Y-84711912D01*
X143829881Y-84705601D01*
X144013634Y-84551413D01*
X144021413Y-84543634D01*
X144175601Y-84359881D01*
X144181912Y-84350868D01*
X144301848Y-84143132D01*
X144306498Y-84133160D01*
X144314623Y-84110838D01*
X146890021Y-86686237D01*
X146906066Y-86697894D01*
X146951144Y-86720862D01*
X146992082Y-86750606D01*
X147009754Y-86759610D01*
X147057879Y-86775247D01*
X147102962Y-86798218D01*
X147121823Y-86804347D01*
X147171808Y-86812264D01*
X147219922Y-86827897D01*
X147239510Y-86830999D01*
X147294809Y-86830999D01*
X147294821Y-86831000D01*
X147365523Y-86831000D01*
X147248165Y-86862446D01*
X147232905Y-86868767D01*
X147011095Y-86996829D01*
X146997991Y-87006884D01*
X146816884Y-87187991D01*
X146806829Y-87201095D01*
X146735870Y-87324000D01*
X146531938Y-87324000D01*
X146515562Y-87326156D01*
X146268165Y-87392446D01*
X146252905Y-87398767D01*
X146031095Y-87526829D01*
X146017991Y-87536884D01*
X145836884Y-87717991D01*
X145826829Y-87731095D01*
X145698767Y-87952905D01*
X145692446Y-87968165D01*
X145626156Y-88215562D01*
X145624000Y-88231938D01*
X145624000Y-88488062D01*
X145626156Y-88504438D01*
X145690794Y-88745669D01*
X145682009Y-88736884D01*
X145668905Y-88726829D01*
X145447095Y-88598767D01*
X145431835Y-88592446D01*
X145184438Y-88526156D01*
X145168062Y-88524000D01*
X144911938Y-88524000D01*
X144895562Y-88526156D01*
X144648165Y-88592446D01*
X144632905Y-88598767D01*
X144411095Y-88726829D01*
X144397991Y-88736884D01*
X144367116Y-88767759D01*
X144342146Y-88738000D01*
X143201809Y-88738000D01*
X143128000Y-88811809D01*
X143128000Y-89952146D01*
X143218018Y-90027680D01*
X143367126Y-90001387D01*
X143377753Y-89998540D01*
X143603160Y-89916498D01*
X143610893Y-89912892D01*
X137223010Y-96300776D01*
X137073765Y-96450020D01*
X137062108Y-96466065D01*
X137039138Y-96511144D01*
X137009393Y-96552085D01*
X137000389Y-96569757D01*
X136984753Y-96617882D01*
X136961783Y-96662960D01*
X136955654Y-96681823D01*
X136947739Y-96731801D01*
X136932103Y-96779922D01*
X136929001Y-96799511D01*
X136929001Y-97783523D01*
X136869132Y-97818088D01*
X136860119Y-97824399D01*
X136676366Y-97978587D01*
X136668587Y-97986366D01*
X136514399Y-98170119D01*
X136508088Y-98179132D01*
X136420000Y-98331705D01*
X136331912Y-98179132D01*
X136325601Y-98170119D01*
X136171413Y-97986366D01*
X136163634Y-97978587D01*
X135979881Y-97824399D01*
X135970868Y-97818088D01*
X135763132Y-97698152D01*
X135753160Y-97693502D01*
X135527753Y-97611460D01*
X135517126Y-97608613D01*
X135280897Y-97566959D01*
X135269936Y-97566000D01*
X135030064Y-97566000D01*
X135019103Y-97566959D01*
X134782874Y-97608613D01*
X134772247Y-97611460D01*
X134546840Y-97693502D01*
X134536868Y-97698152D01*
X134329132Y-97818088D01*
X134320119Y-97824399D01*
X134136366Y-97978587D01*
X134128587Y-97986366D01*
X133974399Y-98170119D01*
X133968088Y-98179132D01*
X133880000Y-98331705D01*
X133791912Y-98179132D01*
X133785601Y-98170119D01*
X133631413Y-97986366D01*
X133623634Y-97978587D01*
X133439881Y-97824399D01*
X133430868Y-97818088D01*
X133223132Y-97698152D01*
X133213160Y-97693502D01*
X132987753Y-97611460D01*
X132977126Y-97608613D01*
X132740897Y-97566959D01*
X132729936Y-97566000D01*
X132490064Y-97566000D01*
X132479103Y-97566959D01*
X132242874Y-97608613D01*
X132232247Y-97611460D01*
X132161000Y-97637392D01*
X132161000Y-95944821D01*
X132160999Y-95944809D01*
X132160999Y-95889510D01*
X132157897Y-95869922D01*
X132142264Y-95821808D01*
X132134347Y-95771823D01*
X132128218Y-95752962D01*
X132105248Y-95707879D01*
X132089611Y-95659755D01*
X132080607Y-95642084D01*
X132050863Y-95601145D01*
X132027893Y-95556064D01*
X132016235Y-95540019D01*
X131978916Y-95502701D01*
X131978909Y-95502692D01*
X125561000Y-89084786D01*
X125561000Y-88828018D01*
X141582320Y-88828018D01*
X141608613Y-88977126D01*
X141611460Y-88987753D01*
X141693502Y-89213160D01*
X141698152Y-89223132D01*
X141818088Y-89430868D01*
X141824399Y-89439881D01*
X141978587Y-89623634D01*
X141986366Y-89631413D01*
X142170119Y-89785601D01*
X142179132Y-89791912D01*
X142386868Y-89911848D01*
X142396840Y-89916498D01*
X142622247Y-89998540D01*
X142632874Y-90001387D01*
X142781982Y-90027680D01*
X142872000Y-89952146D01*
X142872000Y-88811809D01*
X142798191Y-88738000D01*
X141657854Y-88738000D01*
X141582320Y-88828018D01*
X125561000Y-88828018D01*
X125561000Y-61556584D01*
X128066606Y-59050981D01*
X128066619Y-59050966D01*
X128106236Y-59011350D01*
X128117894Y-58995304D01*
X128140866Y-58950220D01*
X128170606Y-58909286D01*
X128179610Y-58891616D01*
X128195245Y-58843497D01*
X128218218Y-58798409D01*
X128224346Y-58779547D01*
X128232263Y-58729565D01*
X128247897Y-58681450D01*
X128250999Y-58661861D01*
X128250999Y-58606561D01*
X128251000Y-58606549D01*
X128251000Y-55528150D01*
X128328905Y-55483171D01*
X128342009Y-55473116D01*
X128523116Y-55292009D01*
X128533171Y-55278905D01*
X128661233Y-55057095D01*
X128667554Y-55041835D01*
X128733844Y-54794438D01*
X128736000Y-54778062D01*
X128736000Y-54521938D01*
X128733844Y-54505562D01*
X128667554Y-54258165D01*
X128661233Y-54242905D01*
X128533171Y-54021095D01*
X128523116Y-54007991D01*
X128342009Y-53826884D01*
X128328905Y-53816829D01*
X128107095Y-53688767D01*
X128091835Y-53682446D01*
X127844438Y-53616156D01*
X127828062Y-53614000D01*
X127571938Y-53614000D01*
X127555562Y-53616156D01*
X127308165Y-53682446D01*
X127292905Y-53688767D01*
X127071095Y-53816829D01*
X127057991Y-53826884D01*
X126925000Y-53959875D01*
X126767009Y-53801884D01*
X126753905Y-53791829D01*
X126532095Y-53663767D01*
X126516835Y-53657446D01*
X126269438Y-53591156D01*
X126253062Y-53589000D01*
X125996938Y-53589000D01*
X125980562Y-53591156D01*
X125768255Y-53648044D01*
X125875931Y-53463037D01*
X125880500Y-53453392D01*
X125966432Y-53223555D01*
X125969311Y-53213279D01*
X126015347Y-52971952D01*
X126016462Y-52960729D01*
X126019078Y-52688219D01*
X126018179Y-52676977D01*
X125976785Y-52434811D01*
X125974104Y-52424481D01*
X125892600Y-52193037D01*
X125888216Y-52183306D01*
X125768881Y-51968904D01*
X125762921Y-51960052D01*
X125609168Y-51768820D01*
X125601801Y-51761098D01*
X125418025Y-51598508D01*
X125409463Y-51592137D01*
X125200920Y-51462836D01*
X125191408Y-51457999D01*
X124964061Y-51365682D01*
X124953868Y-51362517D01*
X124714216Y-51309826D01*
X124703636Y-51308424D01*
X124458533Y-51296866D01*
X124447869Y-51297266D01*
X124204322Y-51327169D01*
X124193877Y-51329361D01*
X123958851Y-51399873D01*
X123948926Y-51403793D01*
X123729140Y-51512895D01*
X123720016Y-51518431D01*
X123521755Y-51663006D01*
X123513695Y-51670001D01*
X123342626Y-51845912D01*
X123335859Y-51854165D01*
X123196878Y-52056387D01*
X123191598Y-52065661D01*
X123088675Y-52288407D01*
X123085033Y-52298439D01*
X123021112Y-52535342D01*
X123019213Y-52545844D01*
X122996121Y-52790131D01*
X122996019Y-52800802D01*
X123014417Y-53045487D01*
X123016114Y-53056024D01*
X123075476Y-53294111D01*
X123078924Y-53304210D01*
X123177551Y-53528892D01*
X123182652Y-53538267D01*
X123183135Y-53539000D01*
X122971938Y-53539000D01*
X122955562Y-53541156D01*
X122708165Y-53607446D01*
X122692905Y-53613767D01*
X122471095Y-53741829D01*
X122457991Y-53751884D01*
X122276884Y-53932991D01*
X122266829Y-53946095D01*
X122138767Y-54167905D01*
X122132446Y-54183165D01*
X122066156Y-54430562D01*
X122064000Y-54446938D01*
X122064000Y-54703062D01*
X122066156Y-54719438D01*
X122132446Y-54966835D01*
X122138767Y-54982095D01*
X122266829Y-55203905D01*
X122276884Y-55217009D01*
X122339000Y-55279124D01*
X122339001Y-116299427D01*
X122339001Y-116510489D01*
X122342103Y-116530078D01*
X122357739Y-116578199D01*
X122365654Y-116628177D01*
X122371783Y-116647040D01*
X122394753Y-116692118D01*
X122410389Y-116740243D01*
X122419393Y-116757915D01*
X122449138Y-116798856D01*
X122472108Y-116843935D01*
X122483765Y-116859980D01*
X122526556Y-116902770D01*
X124090776Y-118466991D01*
X124240021Y-118616237D01*
X124256066Y-118627894D01*
X124301144Y-118650862D01*
X124342082Y-118680606D01*
X124359754Y-118689610D01*
X124407879Y-118705247D01*
X124452962Y-118728218D01*
X124471823Y-118734347D01*
X124521808Y-118742264D01*
X124569922Y-118757897D01*
X124589510Y-118760999D01*
X124644809Y-118760999D01*
X124644821Y-118761000D01*
X156845179Y-118761000D01*
X156845191Y-118760999D01*
X156900489Y-118760999D01*
X156920078Y-118757897D01*
X156968193Y-118742263D01*
X157018176Y-118734347D01*
X157037039Y-118728218D01*
X157082126Y-118705245D01*
X157130244Y-118689611D01*
X157147916Y-118680606D01*
X157188847Y-118650867D01*
X157233934Y-118627894D01*
X157249980Y-118616236D01*
X157406407Y-118459809D01*
X157406412Y-118459802D01*
X159541616Y-116324598D01*
X178624541Y-116324598D01*
X178625035Y-116333164D01*
X178662133Y-116626832D01*
X178663785Y-116635252D01*
X178740397Y-116921168D01*
X178743176Y-116929285D01*
X178857881Y-117202159D01*
X178861736Y-117209824D01*
X179012413Y-117464606D01*
X179017273Y-117471677D01*
X179201134Y-117703652D01*
X179206909Y-117709998D01*
X179420551Y-117914873D01*
X179427133Y-117920377D01*
X179666605Y-118094363D01*
X179673873Y-118098922D01*
X179934740Y-118238798D01*
X179942560Y-118242329D01*
X180219998Y-118345507D01*
X180228224Y-118347944D01*
X180517098Y-118412514D01*
X180525579Y-118413812D01*
X180820543Y-118438581D01*
X180829122Y-118438716D01*
X181124718Y-118423225D01*
X181133236Y-118422194D01*
X181423996Y-118366728D01*
X181432295Y-118364551D01*
X181712836Y-118270138D01*
X181720762Y-118266855D01*
X181985895Y-118135242D01*
X181993303Y-118130914D01*
X182238121Y-117964536D01*
X182244873Y-117959242D01*
X182464846Y-117761178D01*
X182470816Y-117755016D01*
X182661873Y-117528930D01*
X182666953Y-117522015D01*
X182825559Y-117272093D01*
X182829653Y-117264553D01*
X182952873Y-116995417D01*
X182955905Y-116987391D01*
X183041459Y-116704022D01*
X183043375Y-116695659D01*
X183089731Y-116402974D01*
X183090505Y-116393766D01*
X183094073Y-116052988D01*
X183093493Y-116043766D01*
X183053276Y-115750176D01*
X183051536Y-115741774D01*
X182971936Y-115456675D01*
X182969072Y-115448588D01*
X182851515Y-115176930D01*
X182847580Y-115169306D01*
X182694243Y-114916116D01*
X182689309Y-114909096D01*
X182503029Y-114679060D01*
X182497188Y-114672775D01*
X182281412Y-114470147D01*
X182274772Y-114464713D01*
X182033493Y-114293244D01*
X182026177Y-114288761D01*
X181763859Y-114151625D01*
X181756003Y-114148176D01*
X181477500Y-114047909D01*
X181469248Y-114045558D01*
X181179715Y-113984016D01*
X181171220Y-113982807D01*
X180876013Y-113961128D01*
X180867433Y-113961083D01*
X180572015Y-113979669D01*
X180563508Y-113980789D01*
X180273346Y-114039297D01*
X180265070Y-114041561D01*
X179985533Y-114138905D01*
X179977641Y-114142272D01*
X179713901Y-114276654D01*
X179706539Y-114281060D01*
X179463476Y-114449992D01*
X179456781Y-114455357D01*
X179238894Y-114655713D01*
X179232988Y-114661937D01*
X179044309Y-114890011D01*
X179039302Y-114896979D01*
X178883323Y-115148549D01*
X178879308Y-115156131D01*
X178758912Y-115426543D01*
X178755964Y-115434601D01*
X178673382Y-115718850D01*
X178671554Y-115727233D01*
X178628313Y-116020059D01*
X178627640Y-116028613D01*
X178624541Y-116324598D01*
X159541616Y-116324598D01*
X160227040Y-115639175D01*
X160419103Y-115673041D01*
X160430064Y-115674000D01*
X160669936Y-115674000D01*
X160680897Y-115673041D01*
X160917126Y-115631387D01*
X160927753Y-115628540D01*
X161153160Y-115546498D01*
X161163132Y-115541848D01*
X161370868Y-115421912D01*
X161379881Y-115415601D01*
X161563634Y-115261413D01*
X161571413Y-115253634D01*
X161725601Y-115069881D01*
X161731912Y-115060868D01*
X161820000Y-114908295D01*
X161908088Y-115060868D01*
X161914399Y-115069881D01*
X162068587Y-115253634D01*
X162076366Y-115261413D01*
X162260119Y-115415601D01*
X162269132Y-115421912D01*
X162476868Y-115541848D01*
X162486840Y-115546498D01*
X162712247Y-115628540D01*
X162722874Y-115631387D01*
X162959103Y-115673041D01*
X162970064Y-115674000D01*
X163209936Y-115674000D01*
X163220897Y-115673041D01*
X163457126Y-115631387D01*
X163467753Y-115628540D01*
X163693160Y-115546498D01*
X163703132Y-115541848D01*
X163910868Y-115421912D01*
X163919881Y-115415601D01*
X164103634Y-115261413D01*
X164111413Y-115253634D01*
X164265601Y-115069881D01*
X164271912Y-115060868D01*
X164360000Y-114908295D01*
X164448088Y-115060868D01*
X164454399Y-115069881D01*
X164608587Y-115253634D01*
X164616366Y-115261413D01*
X164800119Y-115415601D01*
X164809132Y-115421912D01*
X165016868Y-115541848D01*
X165026840Y-115546498D01*
X165252247Y-115628540D01*
X165262874Y-115631387D01*
X165499103Y-115673041D01*
X165510064Y-115674000D01*
X165749936Y-115674000D01*
X165760897Y-115673041D01*
X165997126Y-115631387D01*
X166007753Y-115628540D01*
X166233160Y-115546498D01*
X166243132Y-115541848D01*
X166450868Y-115421912D01*
X166459881Y-115415601D01*
X166643634Y-115261413D01*
X166651413Y-115253634D01*
X166805601Y-115069881D01*
X166811912Y-115060868D01*
X166900000Y-114908295D01*
X166988088Y-115060868D01*
X166994399Y-115069881D01*
X167148587Y-115253634D01*
X167156366Y-115261413D01*
X167340119Y-115415601D01*
X167349132Y-115421912D01*
X167556868Y-115541848D01*
X167566840Y-115546498D01*
X167792247Y-115628540D01*
X167802874Y-115631387D01*
X168039103Y-115673041D01*
X168050064Y-115674000D01*
X168289936Y-115674000D01*
X168300897Y-115673041D01*
X168537126Y-115631387D01*
X168547753Y-115628540D01*
X168773160Y-115546498D01*
X168783132Y-115541848D01*
X168990868Y-115421912D01*
X168999881Y-115415601D01*
X169183634Y-115261413D01*
X169191413Y-115253634D01*
X169345601Y-115069881D01*
X169351912Y-115060868D01*
X169440000Y-114908295D01*
X169528088Y-115060868D01*
X169534399Y-115069881D01*
X169688587Y-115253634D01*
X169696366Y-115261413D01*
X169880119Y-115415601D01*
X169889132Y-115421912D01*
X170096868Y-115541848D01*
X170106840Y-115546498D01*
X170332247Y-115628540D01*
X170342874Y-115631387D01*
X170491982Y-115657680D01*
X170582000Y-115582146D01*
X170582001Y-114441808D01*
X170582000Y-114441807D01*
X170582000Y-114038192D01*
X170837999Y-114038192D01*
X170838000Y-114038193D01*
X170837999Y-115582146D01*
X170928017Y-115657679D01*
X171077125Y-115631387D01*
X171087753Y-115628540D01*
X171313160Y-115546498D01*
X171323132Y-115541848D01*
X171530868Y-115421912D01*
X171539881Y-115415601D01*
X171723634Y-115261413D01*
X171731413Y-115253634D01*
X171885601Y-115069881D01*
X171891912Y-115060868D01*
X171980000Y-114908295D01*
X172068088Y-115060868D01*
X172074399Y-115069881D01*
X172228587Y-115253634D01*
X172236366Y-115261413D01*
X172420119Y-115415601D01*
X172429132Y-115421912D01*
X172636868Y-115541848D01*
X172646840Y-115546498D01*
X172872247Y-115628540D01*
X172882874Y-115631387D01*
X173119103Y-115673041D01*
X173130064Y-115674000D01*
X173369936Y-115674000D01*
X173380897Y-115673041D01*
X173617126Y-115631387D01*
X173627753Y-115628540D01*
X173853160Y-115546498D01*
X173863132Y-115541848D01*
X174070868Y-115421912D01*
X174079881Y-115415601D01*
X174263634Y-115261413D01*
X174271413Y-115253634D01*
X174425601Y-115069881D01*
X174431912Y-115060868D01*
X174551848Y-114853132D01*
X174556498Y-114843160D01*
X174638540Y-114617753D01*
X174641387Y-114607126D01*
X174683041Y-114370897D01*
X174684000Y-114359936D01*
X174684000Y-114120064D01*
X174683041Y-114109103D01*
X174641387Y-113872874D01*
X174638540Y-113862247D01*
X174556498Y-113636840D01*
X174551848Y-113626868D01*
X174431912Y-113419132D01*
X174425601Y-113410119D01*
X174271413Y-113226366D01*
X174263634Y-113218587D01*
X174079881Y-113064399D01*
X174070868Y-113058088D01*
X173863132Y-112938152D01*
X173853160Y-112933502D01*
X173627753Y-112851460D01*
X173617126Y-112848613D01*
X173380897Y-112806959D01*
X173369936Y-112806000D01*
X173130064Y-112806000D01*
X173119103Y-112806959D01*
X172882874Y-112848613D01*
X172872247Y-112851460D01*
X172646840Y-112933502D01*
X172636868Y-112938152D01*
X172429132Y-113058088D01*
X172420119Y-113064399D01*
X172236366Y-113218587D01*
X172228587Y-113226366D01*
X172074399Y-113410119D01*
X172068088Y-113419132D01*
X171980000Y-113571705D01*
X171891912Y-113419132D01*
X171885601Y-113410119D01*
X171731413Y-113226366D01*
X171723634Y-113218587D01*
X171539881Y-113064399D01*
X171530868Y-113058088D01*
X171323132Y-112938152D01*
X171313160Y-112933502D01*
X171087753Y-112851460D01*
X171077126Y-112848613D01*
X170928018Y-112822320D01*
X170838000Y-112897854D01*
X170837999Y-114038192D01*
X170582000Y-114038192D01*
X170582001Y-112897854D01*
X170491983Y-112822321D01*
X170342875Y-112848613D01*
X170332247Y-112851460D01*
X170106840Y-112933502D01*
X170096868Y-112938152D01*
X169889132Y-113058088D01*
X169880119Y-113064399D01*
X169696366Y-113218587D01*
X169688587Y-113226366D01*
X169534399Y-113410119D01*
X169528088Y-113419132D01*
X169440000Y-113571705D01*
X169351912Y-113419132D01*
X169345601Y-113410119D01*
X169191413Y-113226366D01*
X169183634Y-113218587D01*
X168999881Y-113064399D01*
X168990868Y-113058088D01*
X168783132Y-112938152D01*
X168773160Y-112933502D01*
X168547753Y-112851460D01*
X168537126Y-112848613D01*
X168300897Y-112806959D01*
X168289936Y-112806000D01*
X168050064Y-112806000D01*
X168039103Y-112806959D01*
X167802874Y-112848613D01*
X167792247Y-112851460D01*
X167566840Y-112933502D01*
X167556868Y-112938152D01*
X167349132Y-113058088D01*
X167340119Y-113064399D01*
X167156366Y-113218587D01*
X167148587Y-113226366D01*
X166994399Y-113410119D01*
X166988088Y-113419132D01*
X166900000Y-113571705D01*
X166811912Y-113419132D01*
X166805601Y-113410119D01*
X166651413Y-113226366D01*
X166643634Y-113218587D01*
X166459881Y-113064399D01*
X166450868Y-113058088D01*
X166243132Y-112938152D01*
X166233160Y-112933502D01*
X166007753Y-112851460D01*
X165997126Y-112848613D01*
X165843408Y-112821508D01*
X164272097Y-111250198D01*
X164272092Y-111250191D01*
X164115665Y-111093764D01*
X164099619Y-111082106D01*
X164054532Y-111059133D01*
X164013601Y-111029394D01*
X163995929Y-111020389D01*
X163947811Y-111004755D01*
X163902724Y-110981782D01*
X163883861Y-110975653D01*
X163833878Y-110967737D01*
X163802745Y-110957621D01*
X163732009Y-110886884D01*
X163718905Y-110876829D01*
X163497095Y-110748767D01*
X163481835Y-110742446D01*
X163234438Y-110676156D01*
X163218062Y-110674000D01*
X162961938Y-110674000D01*
X162945562Y-110676156D01*
X162698165Y-110742446D01*
X162682905Y-110748767D01*
X162461095Y-110876829D01*
X162447991Y-110886884D01*
X162266884Y-111067991D01*
X162256829Y-111081095D01*
X162128767Y-111302905D01*
X162122446Y-111318165D01*
X162056156Y-111565562D01*
X162054000Y-111581938D01*
X162054000Y-111838062D01*
X162056156Y-111854438D01*
X162122446Y-112101835D01*
X162128767Y-112117095D01*
X162256829Y-112338905D01*
X162266884Y-112352009D01*
X162447991Y-112533116D01*
X162461095Y-112543171D01*
X162682905Y-112671233D01*
X162698165Y-112677554D01*
X162945562Y-112743844D01*
X162961938Y-112746000D01*
X163218062Y-112746000D01*
X163234438Y-112743844D01*
X163481835Y-112677554D01*
X163497095Y-112671234D01*
X163524743Y-112655272D01*
X164006822Y-113137352D01*
X163919881Y-113064399D01*
X163910868Y-113058088D01*
X163703132Y-112938152D01*
X163693160Y-112933502D01*
X163467753Y-112851460D01*
X163457126Y-112848613D01*
X163220897Y-112806959D01*
X163209936Y-112806000D01*
X162970064Y-112806000D01*
X162959103Y-112806959D01*
X162722874Y-112848613D01*
X162712247Y-112851460D01*
X162486840Y-112933502D01*
X162476868Y-112938152D01*
X162269132Y-113058088D01*
X162260119Y-113064399D01*
X162076366Y-113218587D01*
X162068587Y-113226366D01*
X161914399Y-113410119D01*
X161908088Y-113419132D01*
X161820000Y-113571705D01*
X161731912Y-113419132D01*
X161725601Y-113410119D01*
X161571413Y-113226366D01*
X161563634Y-113218587D01*
X161379881Y-113064399D01*
X161370868Y-113058088D01*
X161163132Y-112938152D01*
X161153160Y-112933502D01*
X160927753Y-112851460D01*
X160917126Y-112848613D01*
X160680897Y-112806959D01*
X160669936Y-112806000D01*
X160430064Y-112806000D01*
X160419103Y-112806959D01*
X160182874Y-112848613D01*
X160172247Y-112851460D01*
X159946840Y-112933502D01*
X159936868Y-112938152D01*
X159729132Y-113058088D01*
X159720119Y-113064399D01*
X159536366Y-113218587D01*
X159528587Y-113226366D01*
X159374399Y-113410119D01*
X159368088Y-113419132D01*
X159280000Y-113571705D01*
X159191912Y-113419132D01*
X159185601Y-113410119D01*
X159031413Y-113226366D01*
X159023634Y-113218587D01*
X158839881Y-113064399D01*
X158830868Y-113058088D01*
X158623132Y-112938152D01*
X158613160Y-112933502D01*
X158387753Y-112851460D01*
X158377126Y-112848613D01*
X158140897Y-112806959D01*
X158129936Y-112806000D01*
X157890064Y-112806000D01*
X157879103Y-112806959D01*
X157642874Y-112848613D01*
X157632247Y-112851460D01*
X157406840Y-112933502D01*
X157396868Y-112938152D01*
X157189132Y-113058088D01*
X157180119Y-113064399D01*
X156996366Y-113218587D01*
X156988587Y-113226366D01*
X156834399Y-113410119D01*
X156828088Y-113419132D01*
X156740000Y-113571705D01*
X156651912Y-113419132D01*
X156645601Y-113410119D01*
X156491413Y-113226366D01*
X156483634Y-113218587D01*
X156299881Y-113064399D01*
X156290868Y-113058088D01*
X156083132Y-112938152D01*
X156073160Y-112933502D01*
X155847753Y-112851460D01*
X155837126Y-112848613D01*
X155600897Y-112806959D01*
X155589936Y-112806000D01*
X155350064Y-112806000D01*
X155339103Y-112806959D01*
X155102874Y-112848613D01*
X155092247Y-112851460D01*
X154866840Y-112933502D01*
X154856868Y-112938152D01*
X154649132Y-113058088D01*
X154640119Y-113064399D01*
X154456366Y-113218587D01*
X154448587Y-113226366D01*
X154294399Y-113410119D01*
X154288088Y-113419132D01*
X154200000Y-113571705D01*
X154111912Y-113419132D01*
X154105601Y-113410119D01*
X153951413Y-113226366D01*
X153943634Y-113218587D01*
X153759881Y-113064399D01*
X153750868Y-113058088D01*
X153543132Y-112938152D01*
X153533160Y-112933502D01*
X153307753Y-112851460D01*
X153297126Y-112848613D01*
X153060897Y-112806959D01*
X153049936Y-112806000D01*
X152810064Y-112806000D01*
X152799103Y-112806959D01*
X152565999Y-112848062D01*
X152565999Y-111299096D01*
X152742905Y-111401233D01*
X152758165Y-111407554D01*
X153005562Y-111473844D01*
X153021938Y-111476000D01*
X153278062Y-111476000D01*
X153294438Y-111473844D01*
X153541835Y-111407554D01*
X153557095Y-111401233D01*
X153778905Y-111273171D01*
X153792009Y-111263116D01*
X153854124Y-111201000D01*
X156555179Y-111201000D01*
X156555191Y-111200999D01*
X156610489Y-111200999D01*
X156630078Y-111197897D01*
X156678193Y-111182263D01*
X156728176Y-111174347D01*
X156747039Y-111168218D01*
X156792126Y-111145245D01*
X156840244Y-111129611D01*
X156857916Y-111120606D01*
X156898847Y-111090867D01*
X156943934Y-111067894D01*
X156959980Y-111056236D01*
X157116407Y-110899809D01*
X157116412Y-110899802D01*
X158233444Y-109782771D01*
X158276237Y-109739979D01*
X158287894Y-109723934D01*
X158310862Y-109678856D01*
X158340606Y-109637918D01*
X158349610Y-109620246D01*
X158365247Y-109572121D01*
X158388218Y-109527038D01*
X158394347Y-109508177D01*
X158402264Y-109458192D01*
X158417897Y-109410078D01*
X158420999Y-109390490D01*
X158420999Y-109335191D01*
X158421000Y-109335179D01*
X158421000Y-108304124D01*
X158483116Y-108242009D01*
X158493171Y-108228905D01*
X158621233Y-108007095D01*
X158627554Y-107991835D01*
X158693844Y-107744438D01*
X158696000Y-107728062D01*
X158696000Y-107471938D01*
X158693844Y-107455562D01*
X158668506Y-107361000D01*
X171255179Y-107361000D01*
X171255191Y-107360999D01*
X171310489Y-107360999D01*
X171330078Y-107357897D01*
X171378193Y-107342263D01*
X171428176Y-107334347D01*
X171447039Y-107328218D01*
X171492126Y-107305245D01*
X171540244Y-107289611D01*
X171557916Y-107280606D01*
X171598847Y-107250867D01*
X171643934Y-107227894D01*
X171659980Y-107216236D01*
X171816407Y-107059809D01*
X171816412Y-107059802D01*
X183473444Y-95402771D01*
X183516237Y-95359979D01*
X183527894Y-95343934D01*
X183550862Y-95298856D01*
X183580606Y-95257918D01*
X183589610Y-95240246D01*
X183605247Y-95192121D01*
X183628218Y-95147038D01*
X183634347Y-95128177D01*
X183642264Y-95078192D01*
X183657897Y-95030078D01*
X183660999Y-95010490D01*
X183660999Y-94955191D01*
X183661000Y-94955179D01*
X183661000Y-73624448D01*
X183856000Y-73429448D01*
X183856001Y-119375921D01*
X105634000Y-119366080D01*
X105634000Y-116324598D01*
X106664541Y-116324598D01*
X106665035Y-116333164D01*
X106702133Y-116626832D01*
X106703785Y-116635252D01*
X106780397Y-116921168D01*
X106783176Y-116929285D01*
X106897881Y-117202159D01*
X106901736Y-117209824D01*
X107052413Y-117464606D01*
X107057273Y-117471677D01*
X107241134Y-117703652D01*
X107246909Y-117709998D01*
X107460551Y-117914873D01*
X107467133Y-117920377D01*
X107706605Y-118094363D01*
X107713873Y-118098922D01*
X107974740Y-118238798D01*
X107982560Y-118242329D01*
X108259998Y-118345507D01*
X108268224Y-118347944D01*
X108557098Y-118412514D01*
X108565579Y-118413812D01*
X108860543Y-118438581D01*
X108869122Y-118438716D01*
X109164718Y-118423225D01*
X109173236Y-118422194D01*
X109463996Y-118366728D01*
X109472295Y-118364551D01*
X109752836Y-118270138D01*
X109760762Y-118266855D01*
X110025895Y-118135242D01*
X110033303Y-118130914D01*
X110278121Y-117964536D01*
X110284873Y-117959242D01*
X110504846Y-117761178D01*
X110510816Y-117755016D01*
X110701873Y-117528930D01*
X110706953Y-117522015D01*
X110865559Y-117272093D01*
X110869653Y-117264553D01*
X110992873Y-116995417D01*
X110995905Y-116987391D01*
X111081459Y-116704022D01*
X111083375Y-116695659D01*
X111129731Y-116402974D01*
X111130505Y-116393766D01*
X111134073Y-116052988D01*
X111133493Y-116043766D01*
X111093276Y-115750176D01*
X111091536Y-115741774D01*
X111011936Y-115456675D01*
X111009072Y-115448588D01*
X110891515Y-115176930D01*
X110887580Y-115169306D01*
X110734243Y-114916116D01*
X110729309Y-114909096D01*
X110543029Y-114679060D01*
X110537188Y-114672775D01*
X110321412Y-114470147D01*
X110314772Y-114464713D01*
X110073493Y-114293244D01*
X110066177Y-114288761D01*
X109803859Y-114151625D01*
X109796003Y-114148176D01*
X109517500Y-114047909D01*
X109509248Y-114045558D01*
X109219715Y-113984016D01*
X109211220Y-113982807D01*
X108916013Y-113961128D01*
X108907433Y-113961083D01*
X108612015Y-113979669D01*
X108603508Y-113980789D01*
X108313346Y-114039297D01*
X108305070Y-114041561D01*
X108025533Y-114138905D01*
X108017641Y-114142272D01*
X107753901Y-114276654D01*
X107746539Y-114281060D01*
X107503476Y-114449992D01*
X107496781Y-114455357D01*
X107278894Y-114655713D01*
X107272988Y-114661937D01*
X107084309Y-114890011D01*
X107079302Y-114896979D01*
X106923323Y-115148549D01*
X106919308Y-115156131D01*
X106798912Y-115426543D01*
X106795964Y-115434601D01*
X106713382Y-115718850D01*
X106711554Y-115727233D01*
X106668313Y-116020059D01*
X106667640Y-116028613D01*
X106664541Y-116324598D01*
X105634000Y-116324598D01*
X105634000Y-40824598D01*
X106664541Y-40824598D01*
X106665035Y-40833164D01*
X106702133Y-41126832D01*
X106703785Y-41135252D01*
X106780397Y-41421168D01*
X106783176Y-41429285D01*
X106897881Y-41702159D01*
X106901736Y-41709824D01*
X107052413Y-41964606D01*
X107057273Y-41971677D01*
X107241134Y-42203652D01*
X107246909Y-42209998D01*
X107460551Y-42414873D01*
X107467133Y-42420377D01*
X107706605Y-42594363D01*
X107713873Y-42598922D01*
X107974740Y-42738798D01*
X107982560Y-42742329D01*
X108259998Y-42845507D01*
X108268224Y-42847944D01*
X108557098Y-42912514D01*
X108565579Y-42913812D01*
X108860543Y-42938581D01*
X108869122Y-42938716D01*
X109164718Y-42923225D01*
X109173236Y-42922194D01*
X109463996Y-42866728D01*
X109472295Y-42864551D01*
X109752836Y-42770138D01*
X109760762Y-42766855D01*
X110025895Y-42635242D01*
X110033303Y-42630914D01*
X110278121Y-42464536D01*
X110284873Y-42459242D01*
X110504846Y-42261178D01*
X110510816Y-42255016D01*
X110701873Y-42028930D01*
X110706953Y-42022015D01*
X110865559Y-41772093D01*
X110869653Y-41764553D01*
X110992873Y-41495417D01*
X110995905Y-41487391D01*
X111081459Y-41204022D01*
X111083375Y-41195659D01*
X111129731Y-40902974D01*
X111130505Y-40893766D01*
X111131229Y-40824598D01*
X178324541Y-40824598D01*
X178325035Y-40833164D01*
X178362133Y-41126832D01*
X178363785Y-41135252D01*
X178440397Y-41421168D01*
X178443176Y-41429285D01*
X178557881Y-41702159D01*
X178561736Y-41709824D01*
X178712413Y-41964606D01*
X178717273Y-41971677D01*
X178901134Y-42203652D01*
X178906909Y-42209998D01*
X179120551Y-42414873D01*
X179127133Y-42420377D01*
X179366605Y-42594363D01*
X179373873Y-42598922D01*
X179634740Y-42738798D01*
X179642560Y-42742329D01*
X179919998Y-42845507D01*
X179928224Y-42847944D01*
X180217098Y-42912514D01*
X180225579Y-42913812D01*
X180520543Y-42938581D01*
X180529122Y-42938716D01*
X180824718Y-42923225D01*
X180833236Y-42922194D01*
X181123996Y-42866728D01*
X181132295Y-42864551D01*
X181412836Y-42770138D01*
X181420762Y-42766855D01*
X181685895Y-42635242D01*
X181693303Y-42630914D01*
X181938121Y-42464536D01*
X181944873Y-42459242D01*
X182164846Y-42261178D01*
X182170816Y-42255016D01*
X182361873Y-42028930D01*
X182366953Y-42022015D01*
X182525559Y-41772093D01*
X182529653Y-41764553D01*
X182652873Y-41495417D01*
X182655905Y-41487391D01*
X182741459Y-41204022D01*
X182743375Y-41195659D01*
X182789731Y-40902974D01*
X182790505Y-40893766D01*
X182794073Y-40552988D01*
X182793493Y-40543766D01*
X182753276Y-40250176D01*
X182751536Y-40241774D01*
X182671936Y-39956675D01*
X182669072Y-39948588D01*
X182551515Y-39676930D01*
X182547580Y-39669306D01*
X182394243Y-39416116D01*
X182389309Y-39409096D01*
X182203029Y-39179060D01*
X182197188Y-39172775D01*
X181981412Y-38970147D01*
X181974772Y-38964713D01*
X181733493Y-38793244D01*
X181726177Y-38788761D01*
X181463859Y-38651625D01*
X181456003Y-38648176D01*
X181177500Y-38547909D01*
X181169248Y-38545558D01*
X180879715Y-38484016D01*
X180871220Y-38482807D01*
X180576013Y-38461128D01*
X180567433Y-38461083D01*
X180272015Y-38479669D01*
X180263508Y-38480789D01*
X179973346Y-38539297D01*
X179965070Y-38541561D01*
X179685533Y-38638905D01*
X179677641Y-38642272D01*
X179413901Y-38776654D01*
X179406539Y-38781060D01*
X179163476Y-38949992D01*
X179156781Y-38955357D01*
X178938894Y-39155713D01*
X178932988Y-39161937D01*
X178744309Y-39390011D01*
X178739302Y-39396979D01*
X178583323Y-39648549D01*
X178579308Y-39656131D01*
X178458912Y-39926543D01*
X178455964Y-39934601D01*
X178373382Y-40218850D01*
X178371554Y-40227233D01*
X178328313Y-40520059D01*
X178327640Y-40528613D01*
X178324541Y-40824598D01*
X111131229Y-40824598D01*
X111134073Y-40552988D01*
X111133493Y-40543766D01*
X111093276Y-40250176D01*
X111091536Y-40241774D01*
X111011936Y-39956675D01*
X111009072Y-39948588D01*
X110891515Y-39676930D01*
X110887580Y-39669306D01*
X110734243Y-39416116D01*
X110729309Y-39409096D01*
X110543029Y-39179060D01*
X110537188Y-39172775D01*
X110321412Y-38970147D01*
X110314772Y-38964713D01*
X110073493Y-38793244D01*
X110066177Y-38788761D01*
X109803859Y-38651625D01*
X109796003Y-38648176D01*
X109517500Y-38547909D01*
X109509248Y-38545558D01*
X109219715Y-38484016D01*
X109211220Y-38482807D01*
X108916013Y-38461128D01*
X108907433Y-38461083D01*
X108612015Y-38479669D01*
X108603508Y-38480789D01*
X108313346Y-38539297D01*
X108305070Y-38541561D01*
X108025533Y-38638905D01*
X108017641Y-38642272D01*
X107753901Y-38776654D01*
X107746539Y-38781060D01*
X107503476Y-38949992D01*
X107496781Y-38955357D01*
X107278894Y-39155713D01*
X107272988Y-39161937D01*
X107084309Y-39390011D01*
X107079302Y-39396979D01*
X106923323Y-39648549D01*
X106919308Y-39656131D01*
X106798912Y-39926543D01*
X106795964Y-39934601D01*
X106713382Y-40218850D01*
X106711554Y-40227233D01*
X106668313Y-40520059D01*
X106667640Y-40528613D01*
X106664541Y-40824598D01*
X105634000Y-40824598D01*
X105634000Y-37584079D01*
X183856000Y-37593920D01*
G37*
D16*
X183856000Y-37593920D02*
X183856000Y-54679782D01*
X183738612Y-54562394D01*
X171891412Y-42715198D01*
X171891407Y-42715191D01*
X171734980Y-42558764D01*
X171718934Y-42547106D01*
X171673847Y-42524133D01*
X171632916Y-42494394D01*
X171615244Y-42485389D01*
X171567126Y-42469755D01*
X171522039Y-42446782D01*
X171503176Y-42440653D01*
X171453193Y-42432737D01*
X171405078Y-42417103D01*
X171385489Y-42414001D01*
X171330191Y-42414001D01*
X171330179Y-42414000D01*
X152704124Y-42414000D01*
X152642009Y-42351884D01*
X152628905Y-42341829D01*
X152407095Y-42213767D01*
X152391835Y-42207446D01*
X152144438Y-42141156D01*
X152128062Y-42139000D01*
X151871938Y-42139000D01*
X151855562Y-42141156D01*
X151608165Y-42207446D01*
X151592905Y-42213767D01*
X151371095Y-42341829D01*
X151357991Y-42351884D01*
X151176884Y-42532991D01*
X151166829Y-42546095D01*
X151038767Y-42767905D01*
X151032446Y-42783165D01*
X150966156Y-43030562D01*
X150964000Y-43046938D01*
X150964000Y-43139000D01*
X148404124Y-43139000D01*
X148342009Y-43076884D01*
X148328905Y-43066829D01*
X148107095Y-42938767D01*
X148091835Y-42932446D01*
X147844438Y-42866156D01*
X147828062Y-42864000D01*
X147571938Y-42864000D01*
X147555562Y-42866156D01*
X147308165Y-42932446D01*
X147292905Y-42938767D01*
X147071095Y-43066829D01*
X147057991Y-43076884D01*
X146876884Y-43257991D01*
X146866829Y-43271095D01*
X146738767Y-43492905D01*
X146732446Y-43508165D01*
X146666156Y-43755562D01*
X146664000Y-43771938D01*
X146664000Y-43944027D01*
X146621808Y-43957736D01*
X146571823Y-43965653D01*
X146552962Y-43971782D01*
X146507879Y-43994753D01*
X146459754Y-44010390D01*
X146442082Y-44019394D01*
X146401147Y-44049136D01*
X146356066Y-44072106D01*
X146340020Y-44083764D01*
X146183593Y-44240191D01*
X146183588Y-44240198D01*
X145959786Y-44464000D01*
X145871938Y-44464000D01*
X145855562Y-44466156D01*
X145608165Y-44532446D01*
X145592905Y-44538767D01*
X145371095Y-44666829D01*
X145357991Y-44676884D01*
X145176884Y-44857991D01*
X145166829Y-44871095D01*
X145038767Y-45092905D01*
X145032446Y-45108165D01*
X144966156Y-45355562D01*
X144964000Y-45371938D01*
X144964000Y-45488999D01*
X144565900Y-45488999D01*
X144565888Y-45489000D01*
X144510588Y-45489000D01*
X144491000Y-45492103D01*
X144442885Y-45507736D01*
X144392902Y-45515652D01*
X144374039Y-45521781D01*
X144328950Y-45544756D01*
X144280834Y-45560389D01*
X144263162Y-45569393D01*
X144222227Y-45599134D01*
X144177145Y-45622105D01*
X144161099Y-45633763D01*
X143855873Y-45938990D01*
X143768026Y-45938990D01*
X143751650Y-45941146D01*
X143504253Y-46007436D01*
X143488993Y-46013757D01*
X143267183Y-46141819D01*
X143254079Y-46151874D01*
X143072972Y-46332981D01*
X143062917Y-46346085D01*
X142934855Y-46567895D01*
X142928534Y-46583155D01*
X142862244Y-46830552D01*
X142860088Y-46846928D01*
X142860088Y-46939000D01*
X142679501Y-46939000D01*
X142679489Y-46939001D01*
X142624189Y-46939001D01*
X142604600Y-46942103D01*
X142556485Y-46957737D01*
X142506503Y-46965654D01*
X142487641Y-46971782D01*
X142442553Y-46994755D01*
X142394434Y-47010390D01*
X142376764Y-47019394D01*
X142335830Y-47049134D01*
X142290746Y-47072106D01*
X142274700Y-47083764D01*
X142235084Y-47123381D01*
X142235069Y-47123394D01*
X141577124Y-47781340D01*
X141489278Y-47781340D01*
X141472902Y-47783496D01*
X141225505Y-47849786D01*
X141210245Y-47856107D01*
X140988435Y-47984169D01*
X140975331Y-47994224D01*
X140794224Y-48175331D01*
X140784169Y-48188435D01*
X140656107Y-48410245D01*
X140649786Y-48425505D01*
X140583496Y-48672902D01*
X140581340Y-48689278D01*
X140581340Y-48945402D01*
X140583496Y-48961778D01*
X140649786Y-49209175D01*
X140656107Y-49224435D01*
X140784169Y-49446245D01*
X140794224Y-49459349D01*
X140859331Y-49524455D01*
X140260197Y-50123589D01*
X140260190Y-50123594D01*
X140103763Y-50280022D01*
X140092106Y-50296067D01*
X140069138Y-50341145D01*
X140039394Y-50382083D01*
X140030390Y-50399755D01*
X140014753Y-50447880D01*
X139991782Y-50492963D01*
X139985653Y-50511824D01*
X139977736Y-50561809D01*
X139962103Y-50609923D01*
X139959001Y-50629511D01*
X139959001Y-50684810D01*
X139959000Y-50684822D01*
X139959001Y-53658456D01*
X139894438Y-53641156D01*
X139878062Y-53639000D01*
X139621938Y-53639000D01*
X139605562Y-53641156D01*
X139358165Y-53707446D01*
X139342905Y-53713767D01*
X139121095Y-53841829D01*
X139107991Y-53851884D01*
X138975000Y-53984875D01*
X138867009Y-53876884D01*
X138853905Y-53866829D01*
X138632095Y-53738767D01*
X138616835Y-53732446D01*
X138369438Y-53666156D01*
X138353062Y-53664000D01*
X138096938Y-53664000D01*
X138080562Y-53666156D01*
X137833165Y-53732446D01*
X137817905Y-53738767D01*
X137596095Y-53866829D01*
X137582991Y-53876884D01*
X137475000Y-53984875D01*
X137367009Y-53876884D01*
X137353905Y-53866829D01*
X137132095Y-53738767D01*
X137116835Y-53732446D01*
X136869438Y-53666156D01*
X136853062Y-53664000D01*
X136596938Y-53664000D01*
X136580562Y-53666156D01*
X136333165Y-53732446D01*
X136317905Y-53738767D01*
X136096095Y-53866829D01*
X136082991Y-53876884D01*
X136012500Y-53947375D01*
X135892009Y-53826884D01*
X135878905Y-53816829D01*
X135657095Y-53688767D01*
X135641835Y-53682446D01*
X135394438Y-53616156D01*
X135378062Y-53614000D01*
X135121938Y-53614000D01*
X135105562Y-53616156D01*
X134858165Y-53682446D01*
X134842905Y-53688767D01*
X134621095Y-53816829D01*
X134607991Y-53826884D01*
X134525000Y-53909875D01*
X134392009Y-53776884D01*
X134378905Y-53766829D01*
X134157095Y-53638767D01*
X134141835Y-53632446D01*
X133894438Y-53566156D01*
X133878062Y-53564000D01*
X133621938Y-53564000D01*
X133605562Y-53566156D01*
X133358165Y-53632446D01*
X133342905Y-53638767D01*
X133121095Y-53766829D01*
X133107991Y-53776884D01*
X133031000Y-53853875D01*
X133031000Y-53375214D01*
X134290215Y-52116000D01*
X134378062Y-52116000D01*
X134394438Y-52113844D01*
X134641835Y-52047554D01*
X134657095Y-52041233D01*
X134878905Y-51913171D01*
X134892009Y-51903116D01*
X135073116Y-51722009D01*
X135083171Y-51708905D01*
X135211233Y-51487095D01*
X135217554Y-51471835D01*
X135283844Y-51224438D01*
X135286000Y-51208062D01*
X135286000Y-50951938D01*
X135283844Y-50935562D01*
X135217554Y-50688165D01*
X135211233Y-50672905D01*
X135083171Y-50451095D01*
X135073116Y-50437991D01*
X134892009Y-50256884D01*
X134878905Y-50246829D01*
X134657095Y-50118767D01*
X134641835Y-50112446D01*
X134394438Y-50046156D01*
X134378062Y-50044000D01*
X134121938Y-50044000D01*
X134105562Y-50046156D01*
X133998999Y-50074709D01*
X134018222Y-49953341D01*
X134018999Y-49943470D01*
X134018999Y-49676530D01*
X134018222Y-49666659D01*
X133976464Y-49403005D01*
X133974153Y-49393377D01*
X133891663Y-49139501D01*
X133887874Y-49130354D01*
X133766685Y-48892508D01*
X133761512Y-48884066D01*
X133604608Y-48668106D01*
X133598178Y-48660577D01*
X133409423Y-48471822D01*
X133401894Y-48465392D01*
X133185934Y-48308488D01*
X133177492Y-48303315D01*
X132939646Y-48182126D01*
X132930499Y-48178337D01*
X132676623Y-48095847D01*
X132666995Y-48093536D01*
X132403341Y-48051778D01*
X132393470Y-48051001D01*
X132126530Y-48051001D01*
X132116659Y-48051778D01*
X131853005Y-48093536D01*
X131843377Y-48095847D01*
X131589501Y-48178337D01*
X131580354Y-48182126D01*
X131342508Y-48303315D01*
X131334066Y-48308488D01*
X131118106Y-48465392D01*
X131110577Y-48471822D01*
X130921822Y-48660577D01*
X130915392Y-48668106D01*
X130758488Y-48884066D01*
X130753315Y-48892508D01*
X130632126Y-49130354D01*
X130628337Y-49139501D01*
X130545847Y-49393377D01*
X130543536Y-49403005D01*
X130501778Y-49666659D01*
X130501001Y-49676530D01*
X130501001Y-49943470D01*
X130501778Y-49953341D01*
X130543536Y-50216995D01*
X130545847Y-50226623D01*
X130628337Y-50480499D01*
X130632126Y-50489646D01*
X130753315Y-50727492D01*
X130758488Y-50735934D01*
X130915392Y-50951894D01*
X130921822Y-50959423D01*
X131017508Y-51055109D01*
X130878165Y-51092446D01*
X130862905Y-51098767D01*
X130641095Y-51226829D01*
X130627991Y-51236884D01*
X130446884Y-51417991D01*
X130436829Y-51431095D01*
X130308767Y-51652905D01*
X130302446Y-51668165D01*
X130236156Y-51915562D01*
X130234000Y-51931938D01*
X130234000Y-52019784D01*
X130133763Y-52120022D01*
X130122106Y-52136067D01*
X130099138Y-52181145D01*
X130069394Y-52222083D01*
X130060390Y-52239755D01*
X130044753Y-52287880D01*
X130021782Y-52332963D01*
X130015653Y-52351824D01*
X130007736Y-52401809D01*
X129992103Y-52449923D01*
X129989001Y-52469511D01*
X129989001Y-52524810D01*
X129989000Y-52524822D01*
X129989001Y-54020874D01*
X129976884Y-54032991D01*
X129966829Y-54046095D01*
X129838767Y-54267905D01*
X129832446Y-54283165D01*
X129766156Y-54530562D01*
X129764000Y-54546938D01*
X129764000Y-54803062D01*
X129766156Y-54819438D01*
X129832446Y-55066835D01*
X129838767Y-55082095D01*
X129966829Y-55303905D01*
X129976884Y-55317009D01*
X130157991Y-55498116D01*
X130171095Y-55508171D01*
X130392905Y-55636233D01*
X130408165Y-55642554D01*
X130655562Y-55708844D01*
X130671938Y-55711000D01*
X130928062Y-55711000D01*
X130944438Y-55708844D01*
X131191835Y-55642554D01*
X131207095Y-55636233D01*
X131428905Y-55508171D01*
X131442009Y-55498116D01*
X131562500Y-55377625D01*
X131632991Y-55448116D01*
X131646095Y-55458171D01*
X131867905Y-55586233D01*
X131883165Y-55592554D01*
X132130562Y-55658844D01*
X132146938Y-55661000D01*
X132403062Y-55661000D01*
X132419438Y-55658844D01*
X132589002Y-55613409D01*
X132589001Y-78963161D01*
X132589002Y-78963173D01*
X132589002Y-79018472D01*
X132592104Y-79038060D01*
X132607737Y-79086174D01*
X132615654Y-79136159D01*
X132621783Y-79155020D01*
X132644754Y-79200103D01*
X132660391Y-79248228D01*
X132669395Y-79265900D01*
X132699139Y-79306838D01*
X132722107Y-79351916D01*
X132733764Y-79367961D01*
X132890191Y-79524389D01*
X132890198Y-79524394D01*
X140012408Y-86646607D01*
X140012423Y-86646620D01*
X140052038Y-86686236D01*
X140068083Y-86697893D01*
X140113163Y-86720863D01*
X140154102Y-86750607D01*
X140171773Y-86759611D01*
X140219897Y-86775248D01*
X140264980Y-86798218D01*
X140283841Y-86804347D01*
X140333826Y-86812264D01*
X140381940Y-86827897D01*
X140401528Y-86830999D01*
X140456827Y-86830999D01*
X140456839Y-86831000D01*
X141783524Y-86831000D01*
X141818088Y-86890868D01*
X141824399Y-86899881D01*
X141978587Y-87083634D01*
X141986366Y-87091413D01*
X142170119Y-87245601D01*
X142179132Y-87251912D01*
X142331705Y-87340000D01*
X142179132Y-87428088D01*
X142170119Y-87434399D01*
X141986366Y-87588587D01*
X141978587Y-87596366D01*
X141824399Y-87780119D01*
X141818088Y-87789132D01*
X141698152Y-87996868D01*
X141693502Y-88006840D01*
X141611460Y-88232247D01*
X141608613Y-88242874D01*
X141582320Y-88391982D01*
X141657854Y-88482000D01*
X144342146Y-88482000D01*
X144417680Y-88391982D01*
X144391387Y-88242874D01*
X144388540Y-88232247D01*
X144306498Y-88006840D01*
X144301848Y-87996868D01*
X144181912Y-87789132D01*
X144175601Y-87780119D01*
X144021413Y-87596366D01*
X144013634Y-87588587D01*
X143829881Y-87434399D01*
X143820868Y-87428088D01*
X143668295Y-87340000D01*
X143820868Y-87251912D01*
X143829881Y-87245601D01*
X144013634Y-87091413D01*
X144021413Y-87083634D01*
X144175601Y-86899881D01*
X144181912Y-86890868D01*
X144301848Y-86683132D01*
X144306498Y-86673160D01*
X144388540Y-86447753D01*
X144391387Y-86437126D01*
X144433041Y-86200897D01*
X144434000Y-86189936D01*
X144434000Y-85950064D01*
X144433041Y-85939103D01*
X144391387Y-85702874D01*
X144388540Y-85692247D01*
X144306498Y-85466840D01*
X144301848Y-85456868D01*
X144181912Y-85249132D01*
X144175601Y-85240119D01*
X144021413Y-85056366D01*
X144013634Y-85048587D01*
X143829881Y-84894399D01*
X143820868Y-84888088D01*
X143668295Y-84800000D01*
X143820868Y-84711912D01*
X143829881Y-84705601D01*
X144013634Y-84551413D01*
X144021413Y-84543634D01*
X144175601Y-84359881D01*
X144181912Y-84350868D01*
X144301848Y-84143132D01*
X144306498Y-84133160D01*
X144314623Y-84110838D01*
X146890021Y-86686237D01*
X146906066Y-86697894D01*
X146951144Y-86720862D01*
X146992082Y-86750606D01*
X147009754Y-86759610D01*
X147057879Y-86775247D01*
X147102962Y-86798218D01*
X147121823Y-86804347D01*
X147171808Y-86812264D01*
X147219922Y-86827897D01*
X147239510Y-86830999D01*
X147294809Y-86830999D01*
X147294821Y-86831000D01*
X147365523Y-86831000D01*
X147248165Y-86862446D01*
X147232905Y-86868767D01*
X147011095Y-86996829D01*
X146997991Y-87006884D01*
X146816884Y-87187991D01*
X146806829Y-87201095D01*
X146735870Y-87324000D01*
X146531938Y-87324000D01*
X146515562Y-87326156D01*
X146268165Y-87392446D01*
X146252905Y-87398767D01*
X146031095Y-87526829D01*
X146017991Y-87536884D01*
X145836884Y-87717991D01*
X145826829Y-87731095D01*
X145698767Y-87952905D01*
X145692446Y-87968165D01*
X145626156Y-88215562D01*
X145624000Y-88231938D01*
X145624000Y-88488062D01*
X145626156Y-88504438D01*
X145690794Y-88745669D01*
X145682009Y-88736884D01*
X145668905Y-88726829D01*
X145447095Y-88598767D01*
X145431835Y-88592446D01*
X145184438Y-88526156D01*
X145168062Y-88524000D01*
X144911938Y-88524000D01*
X144895562Y-88526156D01*
X144648165Y-88592446D01*
X144632905Y-88598767D01*
X144411095Y-88726829D01*
X144397991Y-88736884D01*
X144367116Y-88767759D01*
X144342146Y-88738000D01*
X143201809Y-88738000D01*
X143128000Y-88811809D01*
X143128000Y-89952146D01*
X143218018Y-90027680D01*
X143367126Y-90001387D01*
X143377753Y-89998540D01*
X143603160Y-89916498D01*
X143610893Y-89912892D01*
X137223010Y-96300776D01*
X137073765Y-96450020D01*
X137062108Y-96466065D01*
X137039138Y-96511144D01*
X137009393Y-96552085D01*
X137000389Y-96569757D01*
X136984753Y-96617882D01*
X136961783Y-96662960D01*
X136955654Y-96681823D01*
X136947739Y-96731801D01*
X136932103Y-96779922D01*
X136929001Y-96799511D01*
X136929001Y-97783523D01*
X136869132Y-97818088D01*
X136860119Y-97824399D01*
X136676366Y-97978587D01*
X136668587Y-97986366D01*
X136514399Y-98170119D01*
X136508088Y-98179132D01*
X136420000Y-98331705D01*
X136331912Y-98179132D01*
X136325601Y-98170119D01*
X136171413Y-97986366D01*
X136163634Y-97978587D01*
X135979881Y-97824399D01*
X135970868Y-97818088D01*
X135763132Y-97698152D01*
X135753160Y-97693502D01*
X135527753Y-97611460D01*
X135517126Y-97608613D01*
X135280897Y-97566959D01*
X135269936Y-97566000D01*
X135030064Y-97566000D01*
X135019103Y-97566959D01*
X134782874Y-97608613D01*
X134772247Y-97611460D01*
X134546840Y-97693502D01*
X134536868Y-97698152D01*
X134329132Y-97818088D01*
X134320119Y-97824399D01*
X134136366Y-97978587D01*
X134128587Y-97986366D01*
X133974399Y-98170119D01*
X133968088Y-98179132D01*
X133880000Y-98331705D01*
X133791912Y-98179132D01*
X133785601Y-98170119D01*
X133631413Y-97986366D01*
X133623634Y-97978587D01*
X133439881Y-97824399D01*
X133430868Y-97818088D01*
X133223132Y-97698152D01*
X133213160Y-97693502D01*
X132987753Y-97611460D01*
X132977126Y-97608613D01*
X132740897Y-97566959D01*
X132729936Y-97566000D01*
X132490064Y-97566000D01*
X132479103Y-97566959D01*
X132242874Y-97608613D01*
X132232247Y-97611460D01*
X132161000Y-97637392D01*
X132161000Y-95944821D01*
X132160999Y-95944809D01*
X132160999Y-95889510D01*
X132157897Y-95869922D01*
X132142264Y-95821808D01*
X132134347Y-95771823D01*
X132128218Y-95752962D01*
X132105248Y-95707879D01*
X132089611Y-95659755D01*
X132080607Y-95642084D01*
X132050863Y-95601145D01*
X132027893Y-95556064D01*
X132016235Y-95540019D01*
X131978916Y-95502701D01*
X131978909Y-95502692D01*
X125561000Y-89084786D01*
X125561000Y-88828018D01*
X141582320Y-88828018D01*
X141608613Y-88977126D01*
X141611460Y-88987753D01*
X141693502Y-89213160D01*
X141698152Y-89223132D01*
X141818088Y-89430868D01*
X141824399Y-89439881D01*
X141978587Y-89623634D01*
X141986366Y-89631413D01*
X142170119Y-89785601D01*
X142179132Y-89791912D01*
X142386868Y-89911848D01*
X142396840Y-89916498D01*
X142622247Y-89998540D01*
X142632874Y-90001387D01*
X142781982Y-90027680D01*
X142872000Y-89952146D01*
X142872000Y-88811809D01*
X142798191Y-88738000D01*
X141657854Y-88738000D01*
X141582320Y-88828018D01*
X125561000Y-88828018D01*
X125561000Y-61556584D01*
X128066606Y-59050981D01*
X128066619Y-59050966D01*
X128106236Y-59011350D01*
X128117894Y-58995304D01*
X128140866Y-58950220D01*
X128170606Y-58909286D01*
X128179610Y-58891616D01*
X128195245Y-58843497D01*
X128218218Y-58798409D01*
X128224346Y-58779547D01*
X128232263Y-58729565D01*
X128247897Y-58681450D01*
X128250999Y-58661861D01*
X128250999Y-58606561D01*
X128251000Y-58606549D01*
X128251000Y-55528150D01*
X128328905Y-55483171D01*
X128342009Y-55473116D01*
X128523116Y-55292009D01*
X128533171Y-55278905D01*
X128661233Y-55057095D01*
X128667554Y-55041835D01*
X128733844Y-54794438D01*
X128736000Y-54778062D01*
X128736000Y-54521938D01*
X128733844Y-54505562D01*
X128667554Y-54258165D01*
X128661233Y-54242905D01*
X128533171Y-54021095D01*
X128523116Y-54007991D01*
X128342009Y-53826884D01*
X128328905Y-53816829D01*
X128107095Y-53688767D01*
X128091835Y-53682446D01*
X127844438Y-53616156D01*
X127828062Y-53614000D01*
X127571938Y-53614000D01*
X127555562Y-53616156D01*
X127308165Y-53682446D01*
X127292905Y-53688767D01*
X127071095Y-53816829D01*
X127057991Y-53826884D01*
X126925000Y-53959875D01*
X126767009Y-53801884D01*
X126753905Y-53791829D01*
X126532095Y-53663767D01*
X126516835Y-53657446D01*
X126269438Y-53591156D01*
X126253062Y-53589000D01*
X125996938Y-53589000D01*
X125980562Y-53591156D01*
X125768255Y-53648044D01*
X125875931Y-53463037D01*
X125880500Y-53453392D01*
X125966432Y-53223555D01*
X125969311Y-53213279D01*
X126015347Y-52971952D01*
X126016462Y-52960729D01*
X126019078Y-52688219D01*
X126018179Y-52676977D01*
X125976785Y-52434811D01*
X125974104Y-52424481D01*
X125892600Y-52193037D01*
X125888216Y-52183306D01*
X125768881Y-51968904D01*
X125762921Y-51960052D01*
X125609168Y-51768820D01*
X125601801Y-51761098D01*
X125418025Y-51598508D01*
X125409463Y-51592137D01*
X125200920Y-51462836D01*
X125191408Y-51457999D01*
X124964061Y-51365682D01*
X124953868Y-51362517D01*
X124714216Y-51309826D01*
X124703636Y-51308424D01*
X124458533Y-51296866D01*
X124447869Y-51297266D01*
X124204322Y-51327169D01*
X124193877Y-51329361D01*
X123958851Y-51399873D01*
X123948926Y-51403793D01*
X123729140Y-51512895D01*
X123720016Y-51518431D01*
X123521755Y-51663006D01*
X123513695Y-51670001D01*
X123342626Y-51845912D01*
X123335859Y-51854165D01*
X123196878Y-52056387D01*
X123191598Y-52065661D01*
X123088675Y-52288407D01*
X123085033Y-52298439D01*
X123021112Y-52535342D01*
X123019213Y-52545844D01*
X122996121Y-52790131D01*
X122996019Y-52800802D01*
X123014417Y-53045487D01*
X123016114Y-53056024D01*
X123075476Y-53294111D01*
X123078924Y-53304210D01*
X123177551Y-53528892D01*
X123182652Y-53538267D01*
X123183135Y-53539000D01*
X122971938Y-53539000D01*
X122955562Y-53541156D01*
X122708165Y-53607446D01*
X122692905Y-53613767D01*
X122471095Y-53741829D01*
X122457991Y-53751884D01*
X122276884Y-53932991D01*
X122266829Y-53946095D01*
X122138767Y-54167905D01*
X122132446Y-54183165D01*
X122066156Y-54430562D01*
X122064000Y-54446938D01*
X122064000Y-54703062D01*
X122066156Y-54719438D01*
X122132446Y-54966835D01*
X122138767Y-54982095D01*
X122266829Y-55203905D01*
X122276884Y-55217009D01*
X122339000Y-55279124D01*
X122339001Y-116299427D01*
X122339001Y-116510489D01*
X122342103Y-116530078D01*
X122357739Y-116578199D01*
X122365654Y-116628177D01*
X122371783Y-116647040D01*
X122394753Y-116692118D01*
X122410389Y-116740243D01*
X122419393Y-116757915D01*
X122449138Y-116798856D01*
X122472108Y-116843935D01*
X122483765Y-116859980D01*
X122526556Y-116902770D01*
X124090776Y-118466991D01*
X124240021Y-118616237D01*
X124256066Y-118627894D01*
X124301144Y-118650862D01*
X124342082Y-118680606D01*
X124359754Y-118689610D01*
X124407879Y-118705247D01*
X124452962Y-118728218D01*
X124471823Y-118734347D01*
X124521808Y-118742264D01*
X124569922Y-118757897D01*
X124589510Y-118760999D01*
X124644809Y-118760999D01*
X124644821Y-118761000D01*
X156845179Y-118761000D01*
X156845191Y-118760999D01*
X156900489Y-118760999D01*
X156920078Y-118757897D01*
X156968193Y-118742263D01*
X157018176Y-118734347D01*
X157037039Y-118728218D01*
X157082126Y-118705245D01*
X157130244Y-118689611D01*
X157147916Y-118680606D01*
X157188847Y-118650867D01*
X157233934Y-118627894D01*
X157249980Y-118616236D01*
X157406407Y-118459809D01*
X157406412Y-118459802D01*
X159541616Y-116324598D01*
X178624541Y-116324598D01*
X178625035Y-116333164D01*
X178662133Y-116626832D01*
X178663785Y-116635252D01*
X178740397Y-116921168D01*
X178743176Y-116929285D01*
X178857881Y-117202159D01*
X178861736Y-117209824D01*
X179012413Y-117464606D01*
X179017273Y-117471677D01*
X179201134Y-117703652D01*
X179206909Y-117709998D01*
X179420551Y-117914873D01*
X179427133Y-117920377D01*
X179666605Y-118094363D01*
X179673873Y-118098922D01*
X179934740Y-118238798D01*
X179942560Y-118242329D01*
X180219998Y-118345507D01*
X180228224Y-118347944D01*
X180517098Y-118412514D01*
X180525579Y-118413812D01*
X180820543Y-118438581D01*
X180829122Y-118438716D01*
X181124718Y-118423225D01*
X181133236Y-118422194D01*
X181423996Y-118366728D01*
X181432295Y-118364551D01*
X181712836Y-118270138D01*
X181720762Y-118266855D01*
X181985895Y-118135242D01*
X181993303Y-118130914D01*
X182238121Y-117964536D01*
X182244873Y-117959242D01*
X182464846Y-117761178D01*
X182470816Y-117755016D01*
X182661873Y-117528930D01*
X182666953Y-117522015D01*
X182825559Y-117272093D01*
X182829653Y-117264553D01*
X182952873Y-116995417D01*
X182955905Y-116987391D01*
X183041459Y-116704022D01*
X183043375Y-116695659D01*
X183089731Y-116402974D01*
X183090505Y-116393766D01*
X183094073Y-116052988D01*
X183093493Y-116043766D01*
X183053276Y-115750176D01*
X183051536Y-115741774D01*
X182971936Y-115456675D01*
X182969072Y-115448588D01*
X182851515Y-115176930D01*
X182847580Y-115169306D01*
X182694243Y-114916116D01*
X182689309Y-114909096D01*
X182503029Y-114679060D01*
X182497188Y-114672775D01*
X182281412Y-114470147D01*
X182274772Y-114464713D01*
X182033493Y-114293244D01*
X182026177Y-114288761D01*
X181763859Y-114151625D01*
X181756003Y-114148176D01*
X181477500Y-114047909D01*
X181469248Y-114045558D01*
X181179715Y-113984016D01*
X181171220Y-113982807D01*
X180876013Y-113961128D01*
X180867433Y-113961083D01*
X180572015Y-113979669D01*
X180563508Y-113980789D01*
X180273346Y-114039297D01*
X180265070Y-114041561D01*
X179985533Y-114138905D01*
X179977641Y-114142272D01*
X179713901Y-114276654D01*
X179706539Y-114281060D01*
X179463476Y-114449992D01*
X179456781Y-114455357D01*
X179238894Y-114655713D01*
X179232988Y-114661937D01*
X179044309Y-114890011D01*
X179039302Y-114896979D01*
X178883323Y-115148549D01*
X178879308Y-115156131D01*
X178758912Y-115426543D01*
X178755964Y-115434601D01*
X178673382Y-115718850D01*
X178671554Y-115727233D01*
X178628313Y-116020059D01*
X178627640Y-116028613D01*
X178624541Y-116324598D01*
X159541616Y-116324598D01*
X160227040Y-115639175D01*
X160419103Y-115673041D01*
X160430064Y-115674000D01*
X160669936Y-115674000D01*
X160680897Y-115673041D01*
X160917126Y-115631387D01*
X160927753Y-115628540D01*
X161153160Y-115546498D01*
X161163132Y-115541848D01*
X161370868Y-115421912D01*
X161379881Y-115415601D01*
X161563634Y-115261413D01*
X161571413Y-115253634D01*
X161725601Y-115069881D01*
X161731912Y-115060868D01*
X161820000Y-114908295D01*
X161908088Y-115060868D01*
X161914399Y-115069881D01*
X162068587Y-115253634D01*
X162076366Y-115261413D01*
X162260119Y-115415601D01*
X162269132Y-115421912D01*
X162476868Y-115541848D01*
X162486840Y-115546498D01*
X162712247Y-115628540D01*
X162722874Y-115631387D01*
X162959103Y-115673041D01*
X162970064Y-115674000D01*
X163209936Y-115674000D01*
X163220897Y-115673041D01*
X163457126Y-115631387D01*
X163467753Y-115628540D01*
X163693160Y-115546498D01*
X163703132Y-115541848D01*
X163910868Y-115421912D01*
X163919881Y-115415601D01*
X164103634Y-115261413D01*
X164111413Y-115253634D01*
X164265601Y-115069881D01*
X164271912Y-115060868D01*
X164360000Y-114908295D01*
X164448088Y-115060868D01*
X164454399Y-115069881D01*
X164608587Y-115253634D01*
X164616366Y-115261413D01*
X164800119Y-115415601D01*
X164809132Y-115421912D01*
X165016868Y-115541848D01*
X165026840Y-115546498D01*
X165252247Y-115628540D01*
X165262874Y-115631387D01*
X165499103Y-115673041D01*
X165510064Y-115674000D01*
X165749936Y-115674000D01*
X165760897Y-115673041D01*
X165997126Y-115631387D01*
X166007753Y-115628540D01*
X166233160Y-115546498D01*
X166243132Y-115541848D01*
X166450868Y-115421912D01*
X166459881Y-115415601D01*
X166643634Y-115261413D01*
X166651413Y-115253634D01*
X166805601Y-115069881D01*
X166811912Y-115060868D01*
X166900000Y-114908295D01*
X166988088Y-115060868D01*
X166994399Y-115069881D01*
X167148587Y-115253634D01*
X167156366Y-115261413D01*
X167340119Y-115415601D01*
X167349132Y-115421912D01*
X167556868Y-115541848D01*
X167566840Y-115546498D01*
X167792247Y-115628540D01*
X167802874Y-115631387D01*
X168039103Y-115673041D01*
X168050064Y-115674000D01*
X168289936Y-115674000D01*
X168300897Y-115673041D01*
X168537126Y-115631387D01*
X168547753Y-115628540D01*
X168773160Y-115546498D01*
X168783132Y-115541848D01*
X168990868Y-115421912D01*
X168999881Y-115415601D01*
X169183634Y-115261413D01*
X169191413Y-115253634D01*
X169345601Y-115069881D01*
X169351912Y-115060868D01*
X169440000Y-114908295D01*
X169528088Y-115060868D01*
X169534399Y-115069881D01*
X169688587Y-115253634D01*
X169696366Y-115261413D01*
X169880119Y-115415601D01*
X169889132Y-115421912D01*
X170096868Y-115541848D01*
X170106840Y-115546498D01*
X170332247Y-115628540D01*
X170342874Y-115631387D01*
X170491982Y-115657680D01*
X170582000Y-115582146D01*
X170582001Y-114441808D01*
X170582000Y-114441807D01*
X170582000Y-114038192D01*
X170837999Y-114038192D01*
X170838000Y-114038193D01*
X170837999Y-115582146D01*
X170928017Y-115657679D01*
X171077125Y-115631387D01*
X171087753Y-115628540D01*
X171313160Y-115546498D01*
X171323132Y-115541848D01*
X171530868Y-115421912D01*
X171539881Y-115415601D01*
X171723634Y-115261413D01*
X171731413Y-115253634D01*
X171885601Y-115069881D01*
X171891912Y-115060868D01*
X171980000Y-114908295D01*
X172068088Y-115060868D01*
X172074399Y-115069881D01*
X172228587Y-115253634D01*
X172236366Y-115261413D01*
X172420119Y-115415601D01*
X172429132Y-115421912D01*
X172636868Y-115541848D01*
X172646840Y-115546498D01*
X172872247Y-115628540D01*
X172882874Y-115631387D01*
X173119103Y-115673041D01*
X173130064Y-115674000D01*
X173369936Y-115674000D01*
X173380897Y-115673041D01*
X173617126Y-115631387D01*
X173627753Y-115628540D01*
X173853160Y-115546498D01*
X173863132Y-115541848D01*
X174070868Y-115421912D01*
X174079881Y-115415601D01*
X174263634Y-115261413D01*
X174271413Y-115253634D01*
X174425601Y-115069881D01*
X174431912Y-115060868D01*
X174551848Y-114853132D01*
X174556498Y-114843160D01*
X174638540Y-114617753D01*
X174641387Y-114607126D01*
X174683041Y-114370897D01*
X174684000Y-114359936D01*
X174684000Y-114120064D01*
X174683041Y-114109103D01*
X174641387Y-113872874D01*
X174638540Y-113862247D01*
X174556498Y-113636840D01*
X174551848Y-113626868D01*
X174431912Y-113419132D01*
X174425601Y-113410119D01*
X174271413Y-113226366D01*
X174263634Y-113218587D01*
X174079881Y-113064399D01*
X174070868Y-113058088D01*
X173863132Y-112938152D01*
X173853160Y-112933502D01*
X173627753Y-112851460D01*
X173617126Y-112848613D01*
X173380897Y-112806959D01*
X173369936Y-112806000D01*
X173130064Y-112806000D01*
X173119103Y-112806959D01*
X172882874Y-112848613D01*
X172872247Y-112851460D01*
X172646840Y-112933502D01*
X172636868Y-112938152D01*
X172429132Y-113058088D01*
X172420119Y-113064399D01*
X172236366Y-113218587D01*
X172228587Y-113226366D01*
X172074399Y-113410119D01*
X172068088Y-113419132D01*
X171980000Y-113571705D01*
X171891912Y-113419132D01*
X171885601Y-113410119D01*
X171731413Y-113226366D01*
X171723634Y-113218587D01*
X171539881Y-113064399D01*
X171530868Y-113058088D01*
X171323132Y-112938152D01*
X171313160Y-112933502D01*
X171087753Y-112851460D01*
X171077126Y-112848613D01*
X170928018Y-112822320D01*
X170838000Y-112897854D01*
X170837999Y-114038192D01*
X170582000Y-114038192D01*
X170582001Y-112897854D01*
X170491983Y-112822321D01*
X170342875Y-112848613D01*
X170332247Y-112851460D01*
X170106840Y-112933502D01*
X170096868Y-112938152D01*
X169889132Y-113058088D01*
X169880119Y-113064399D01*
X169696366Y-113218587D01*
X169688587Y-113226366D01*
X169534399Y-113410119D01*
X169528088Y-113419132D01*
X169440000Y-113571705D01*
X169351912Y-113419132D01*
X169345601Y-113410119D01*
X169191413Y-113226366D01*
X169183634Y-113218587D01*
X168999881Y-113064399D01*
X168990868Y-113058088D01*
X168783132Y-112938152D01*
X168773160Y-112933502D01*
X168547753Y-112851460D01*
X168537126Y-112848613D01*
X168300897Y-112806959D01*
X168289936Y-112806000D01*
X168050064Y-112806000D01*
X168039103Y-112806959D01*
X167802874Y-112848613D01*
X167792247Y-112851460D01*
X167566840Y-112933502D01*
X167556868Y-112938152D01*
X167349132Y-113058088D01*
X167340119Y-113064399D01*
X167156366Y-113218587D01*
X167148587Y-113226366D01*
X166994399Y-113410119D01*
X166988088Y-113419132D01*
X166900000Y-113571705D01*
X166811912Y-113419132D01*
X166805601Y-113410119D01*
X166651413Y-113226366D01*
X166643634Y-113218587D01*
X166459881Y-113064399D01*
X166450868Y-113058088D01*
X166243132Y-112938152D01*
X166233160Y-112933502D01*
X166007753Y-112851460D01*
X165997126Y-112848613D01*
X165843408Y-112821508D01*
X164272097Y-111250198D01*
X164272092Y-111250191D01*
X164115665Y-111093764D01*
X164099619Y-111082106D01*
X164054532Y-111059133D01*
X164013601Y-111029394D01*
X163995929Y-111020389D01*
X163947811Y-111004755D01*
X163902724Y-110981782D01*
X163883861Y-110975653D01*
X163833878Y-110967737D01*
X163802745Y-110957621D01*
X163732009Y-110886884D01*
X163718905Y-110876829D01*
X163497095Y-110748767D01*
X163481835Y-110742446D01*
X163234438Y-110676156D01*
X163218062Y-110674000D01*
X162961938Y-110674000D01*
X162945562Y-110676156D01*
X162698165Y-110742446D01*
X162682905Y-110748767D01*
X162461095Y-110876829D01*
X162447991Y-110886884D01*
X162266884Y-111067991D01*
X162256829Y-111081095D01*
X162128767Y-111302905D01*
X162122446Y-111318165D01*
X162056156Y-111565562D01*
X162054000Y-111581938D01*
X162054000Y-111838062D01*
X162056156Y-111854438D01*
X162122446Y-112101835D01*
X162128767Y-112117095D01*
X162256829Y-112338905D01*
X162266884Y-112352009D01*
X162447991Y-112533116D01*
X162461095Y-112543171D01*
X162682905Y-112671233D01*
X162698165Y-112677554D01*
X162945562Y-112743844D01*
X162961938Y-112746000D01*
X163218062Y-112746000D01*
X163234438Y-112743844D01*
X163481835Y-112677554D01*
X163497095Y-112671234D01*
X163524743Y-112655272D01*
X164006822Y-113137352D01*
X163919881Y-113064399D01*
X163910868Y-113058088D01*
X163703132Y-112938152D01*
X163693160Y-112933502D01*
X163467753Y-112851460D01*
X163457126Y-112848613D01*
X163220897Y-112806959D01*
X163209936Y-112806000D01*
X162970064Y-112806000D01*
X162959103Y-112806959D01*
X162722874Y-112848613D01*
X162712247Y-112851460D01*
X162486840Y-112933502D01*
X162476868Y-112938152D01*
X162269132Y-113058088D01*
X162260119Y-113064399D01*
X162076366Y-113218587D01*
X162068587Y-113226366D01*
X161914399Y-113410119D01*
X161908088Y-113419132D01*
X161820000Y-113571705D01*
X161731912Y-113419132D01*
X161725601Y-113410119D01*
X161571413Y-113226366D01*
X161563634Y-113218587D01*
X161379881Y-113064399D01*
X161370868Y-113058088D01*
X161163132Y-112938152D01*
X161153160Y-112933502D01*
X160927753Y-112851460D01*
X160917126Y-112848613D01*
X160680897Y-112806959D01*
X160669936Y-112806000D01*
X160430064Y-112806000D01*
X160419103Y-112806959D01*
X160182874Y-112848613D01*
X160172247Y-112851460D01*
X159946840Y-112933502D01*
X159936868Y-112938152D01*
X159729132Y-113058088D01*
X159720119Y-113064399D01*
X159536366Y-113218587D01*
X159528587Y-113226366D01*
X159374399Y-113410119D01*
X159368088Y-113419132D01*
X159280000Y-113571705D01*
X159191912Y-113419132D01*
X159185601Y-113410119D01*
X159031413Y-113226366D01*
X159023634Y-113218587D01*
X158839881Y-113064399D01*
X158830868Y-113058088D01*
X158623132Y-112938152D01*
X158613160Y-112933502D01*
X158387753Y-112851460D01*
X158377126Y-112848613D01*
X158140897Y-112806959D01*
X158129936Y-112806000D01*
X157890064Y-112806000D01*
X157879103Y-112806959D01*
X157642874Y-112848613D01*
X157632247Y-112851460D01*
X157406840Y-112933502D01*
X157396868Y-112938152D01*
X157189132Y-113058088D01*
X157180119Y-113064399D01*
X156996366Y-113218587D01*
X156988587Y-113226366D01*
X156834399Y-113410119D01*
X156828088Y-113419132D01*
X156740000Y-113571705D01*
X156651912Y-113419132D01*
X156645601Y-113410119D01*
X156491413Y-113226366D01*
X156483634Y-113218587D01*
X156299881Y-113064399D01*
X156290868Y-113058088D01*
X156083132Y-112938152D01*
X156073160Y-112933502D01*
X155847753Y-112851460D01*
X155837126Y-112848613D01*
X155600897Y-112806959D01*
X155589936Y-112806000D01*
X155350064Y-112806000D01*
X155339103Y-112806959D01*
X155102874Y-112848613D01*
X155092247Y-112851460D01*
X154866840Y-112933502D01*
X154856868Y-112938152D01*
X154649132Y-113058088D01*
X154640119Y-113064399D01*
X154456366Y-113218587D01*
X154448587Y-113226366D01*
X154294399Y-113410119D01*
X154288088Y-113419132D01*
X154200000Y-113571705D01*
X154111912Y-113419132D01*
X154105601Y-113410119D01*
X153951413Y-113226366D01*
X153943634Y-113218587D01*
X153759881Y-113064399D01*
X153750868Y-113058088D01*
X153543132Y-112938152D01*
X153533160Y-112933502D01*
X153307753Y-112851460D01*
X153297126Y-112848613D01*
X153060897Y-112806959D01*
X153049936Y-112806000D01*
X152810064Y-112806000D01*
X152799103Y-112806959D01*
X152565999Y-112848062D01*
X152565999Y-111299096D01*
X152742905Y-111401233D01*
X152758165Y-111407554D01*
X153005562Y-111473844D01*
X153021938Y-111476000D01*
X153278062Y-111476000D01*
X153294438Y-111473844D01*
X153541835Y-111407554D01*
X153557095Y-111401233D01*
X153778905Y-111273171D01*
X153792009Y-111263116D01*
X153854124Y-111201000D01*
X156555179Y-111201000D01*
X156555191Y-111200999D01*
X156610489Y-111200999D01*
X156630078Y-111197897D01*
X156678193Y-111182263D01*
X156728176Y-111174347D01*
X156747039Y-111168218D01*
X156792126Y-111145245D01*
X156840244Y-111129611D01*
X156857916Y-111120606D01*
X156898847Y-111090867D01*
X156943934Y-111067894D01*
X156959980Y-111056236D01*
X157116407Y-110899809D01*
X157116412Y-110899802D01*
X158233444Y-109782771D01*
X158276237Y-109739979D01*
X158287894Y-109723934D01*
X158310862Y-109678856D01*
X158340606Y-109637918D01*
X158349610Y-109620246D01*
X158365247Y-109572121D01*
X158388218Y-109527038D01*
X158394347Y-109508177D01*
X158402264Y-109458192D01*
X158417897Y-109410078D01*
X158420999Y-109390490D01*
X158420999Y-109335191D01*
X158421000Y-109335179D01*
X158421000Y-108304124D01*
X158483116Y-108242009D01*
X158493171Y-108228905D01*
X158621233Y-108007095D01*
X158627554Y-107991835D01*
X158693844Y-107744438D01*
X158696000Y-107728062D01*
X158696000Y-107471938D01*
X158693844Y-107455562D01*
X158668506Y-107361000D01*
X171255179Y-107361000D01*
X171255191Y-107360999D01*
X171310489Y-107360999D01*
X171330078Y-107357897D01*
X171378193Y-107342263D01*
X171428176Y-107334347D01*
X171447039Y-107328218D01*
X171492126Y-107305245D01*
X171540244Y-107289611D01*
X171557916Y-107280606D01*
X171598847Y-107250867D01*
X171643934Y-107227894D01*
X171659980Y-107216236D01*
X171816407Y-107059809D01*
X171816412Y-107059802D01*
X183473444Y-95402771D01*
X183516237Y-95359979D01*
X183527894Y-95343934D01*
X183550862Y-95298856D01*
X183580606Y-95257918D01*
X183589610Y-95240246D01*
X183605247Y-95192121D01*
X183628218Y-95147038D01*
X183634347Y-95128177D01*
X183642264Y-95078192D01*
X183657897Y-95030078D01*
X183660999Y-95010490D01*
X183660999Y-94955191D01*
X183661000Y-94955179D01*
X183661000Y-73624448D01*
X183856000Y-73429448D01*
X183856001Y-119375921D01*
X105634000Y-119366080D01*
X105634000Y-116324598D01*
X106664541Y-116324598D01*
X106665035Y-116333164D01*
X106702133Y-116626832D01*
X106703785Y-116635252D01*
X106780397Y-116921168D01*
X106783176Y-116929285D01*
X106897881Y-117202159D01*
X106901736Y-117209824D01*
X107052413Y-117464606D01*
X107057273Y-117471677D01*
X107241134Y-117703652D01*
X107246909Y-117709998D01*
X107460551Y-117914873D01*
X107467133Y-117920377D01*
X107706605Y-118094363D01*
X107713873Y-118098922D01*
X107974740Y-118238798D01*
X107982560Y-118242329D01*
X108259998Y-118345507D01*
X108268224Y-118347944D01*
X108557098Y-118412514D01*
X108565579Y-118413812D01*
X108860543Y-118438581D01*
X108869122Y-118438716D01*
X109164718Y-118423225D01*
X109173236Y-118422194D01*
X109463996Y-118366728D01*
X109472295Y-118364551D01*
X109752836Y-118270138D01*
X109760762Y-118266855D01*
X110025895Y-118135242D01*
X110033303Y-118130914D01*
X110278121Y-117964536D01*
X110284873Y-117959242D01*
X110504846Y-117761178D01*
X110510816Y-117755016D01*
X110701873Y-117528930D01*
X110706953Y-117522015D01*
X110865559Y-117272093D01*
X110869653Y-117264553D01*
X110992873Y-116995417D01*
X110995905Y-116987391D01*
X111081459Y-116704022D01*
X111083375Y-116695659D01*
X111129731Y-116402974D01*
X111130505Y-116393766D01*
X111134073Y-116052988D01*
X111133493Y-116043766D01*
X111093276Y-115750176D01*
X111091536Y-115741774D01*
X111011936Y-115456675D01*
X111009072Y-115448588D01*
X110891515Y-115176930D01*
X110887580Y-115169306D01*
X110734243Y-114916116D01*
X110729309Y-114909096D01*
X110543029Y-114679060D01*
X110537188Y-114672775D01*
X110321412Y-114470147D01*
X110314772Y-114464713D01*
X110073493Y-114293244D01*
X110066177Y-114288761D01*
X109803859Y-114151625D01*
X109796003Y-114148176D01*
X109517500Y-114047909D01*
X109509248Y-114045558D01*
X109219715Y-113984016D01*
X109211220Y-113982807D01*
X108916013Y-113961128D01*
X108907433Y-113961083D01*
X108612015Y-113979669D01*
X108603508Y-113980789D01*
X108313346Y-114039297D01*
X108305070Y-114041561D01*
X108025533Y-114138905D01*
X108017641Y-114142272D01*
X107753901Y-114276654D01*
X107746539Y-114281060D01*
X107503476Y-114449992D01*
X107496781Y-114455357D01*
X107278894Y-114655713D01*
X107272988Y-114661937D01*
X107084309Y-114890011D01*
X107079302Y-114896979D01*
X106923323Y-115148549D01*
X106919308Y-115156131D01*
X106798912Y-115426543D01*
X106795964Y-115434601D01*
X106713382Y-115718850D01*
X106711554Y-115727233D01*
X106668313Y-116020059D01*
X106667640Y-116028613D01*
X106664541Y-116324598D01*
X105634000Y-116324598D01*
X105634000Y-40824598D01*
X106664541Y-40824598D01*
X106665035Y-40833164D01*
X106702133Y-41126832D01*
X106703785Y-41135252D01*
X106780397Y-41421168D01*
X106783176Y-41429285D01*
X106897881Y-41702159D01*
X106901736Y-41709824D01*
X107052413Y-41964606D01*
X107057273Y-41971677D01*
X107241134Y-42203652D01*
X107246909Y-42209998D01*
X107460551Y-42414873D01*
X107467133Y-42420377D01*
X107706605Y-42594363D01*
X107713873Y-42598922D01*
X107974740Y-42738798D01*
X107982560Y-42742329D01*
X108259998Y-42845507D01*
X108268224Y-42847944D01*
X108557098Y-42912514D01*
X108565579Y-42913812D01*
X108860543Y-42938581D01*
X108869122Y-42938716D01*
X109164718Y-42923225D01*
X109173236Y-42922194D01*
X109463996Y-42866728D01*
X109472295Y-42864551D01*
X109752836Y-42770138D01*
X109760762Y-42766855D01*
X110025895Y-42635242D01*
X110033303Y-42630914D01*
X110278121Y-42464536D01*
X110284873Y-42459242D01*
X110504846Y-42261178D01*
X110510816Y-42255016D01*
X110701873Y-42028930D01*
X110706953Y-42022015D01*
X110865559Y-41772093D01*
X110869653Y-41764553D01*
X110992873Y-41495417D01*
X110995905Y-41487391D01*
X111081459Y-41204022D01*
X111083375Y-41195659D01*
X111129731Y-40902974D01*
X111130505Y-40893766D01*
X111131229Y-40824598D01*
X178324541Y-40824598D01*
X178325035Y-40833164D01*
X178362133Y-41126832D01*
X178363785Y-41135252D01*
X178440397Y-41421168D01*
X178443176Y-41429285D01*
X178557881Y-41702159D01*
X178561736Y-41709824D01*
X178712413Y-41964606D01*
X178717273Y-41971677D01*
X178901134Y-42203652D01*
X178906909Y-42209998D01*
X179120551Y-42414873D01*
X179127133Y-42420377D01*
X179366605Y-42594363D01*
X179373873Y-42598922D01*
X179634740Y-42738798D01*
X179642560Y-42742329D01*
X179919998Y-42845507D01*
X179928224Y-42847944D01*
X180217098Y-42912514D01*
X180225579Y-42913812D01*
X180520543Y-42938581D01*
X180529122Y-42938716D01*
X180824718Y-42923225D01*
X180833236Y-42922194D01*
X181123996Y-42866728D01*
X181132295Y-42864551D01*
X181412836Y-42770138D01*
X181420762Y-42766855D01*
X181685895Y-42635242D01*
X181693303Y-42630914D01*
X181938121Y-42464536D01*
X181944873Y-42459242D01*
X182164846Y-42261178D01*
X182170816Y-42255016D01*
X182361873Y-42028930D01*
X182366953Y-42022015D01*
X182525559Y-41772093D01*
X182529653Y-41764553D01*
X182652873Y-41495417D01*
X182655905Y-41487391D01*
X182741459Y-41204022D01*
X182743375Y-41195659D01*
X182789731Y-40902974D01*
X182790505Y-40893766D01*
X182794073Y-40552988D01*
X182793493Y-40543766D01*
X182753276Y-40250176D01*
X182751536Y-40241774D01*
X182671936Y-39956675D01*
X182669072Y-39948588D01*
X182551515Y-39676930D01*
X182547580Y-39669306D01*
X182394243Y-39416116D01*
X182389309Y-39409096D01*
X182203029Y-39179060D01*
X182197188Y-39172775D01*
X181981412Y-38970147D01*
X181974772Y-38964713D01*
X181733493Y-38793244D01*
X181726177Y-38788761D01*
X181463859Y-38651625D01*
X181456003Y-38648176D01*
X181177500Y-38547909D01*
X181169248Y-38545558D01*
X180879715Y-38484016D01*
X180871220Y-38482807D01*
X180576013Y-38461128D01*
X180567433Y-38461083D01*
X180272015Y-38479669D01*
X180263508Y-38480789D01*
X179973346Y-38539297D01*
X179965070Y-38541561D01*
X179685533Y-38638905D01*
X179677641Y-38642272D01*
X179413901Y-38776654D01*
X179406539Y-38781060D01*
X179163476Y-38949992D01*
X179156781Y-38955357D01*
X178938894Y-39155713D01*
X178932988Y-39161937D01*
X178744309Y-39390011D01*
X178739302Y-39396979D01*
X178583323Y-39648549D01*
X178579308Y-39656131D01*
X178458912Y-39926543D01*
X178455964Y-39934601D01*
X178373382Y-40218850D01*
X178371554Y-40227233D01*
X178328313Y-40520059D01*
X178327640Y-40528613D01*
X178324541Y-40824598D01*
X111131229Y-40824598D01*
X111134073Y-40552988D01*
X111133493Y-40543766D01*
X111093276Y-40250176D01*
X111091536Y-40241774D01*
X111011936Y-39956675D01*
X111009072Y-39948588D01*
X110891515Y-39676930D01*
X110887580Y-39669306D01*
X110734243Y-39416116D01*
X110729309Y-39409096D01*
X110543029Y-39179060D01*
X110537188Y-39172775D01*
X110321412Y-38970147D01*
X110314772Y-38964713D01*
X110073493Y-38793244D01*
X110066177Y-38788761D01*
X109803859Y-38651625D01*
X109796003Y-38648176D01*
X109517500Y-38547909D01*
X109509248Y-38545558D01*
X109219715Y-38484016D01*
X109211220Y-38482807D01*
X108916013Y-38461128D01*
X108907433Y-38461083D01*
X108612015Y-38479669D01*
X108603508Y-38480789D01*
X108313346Y-38539297D01*
X108305070Y-38541561D01*
X108025533Y-38638905D01*
X108017641Y-38642272D01*
X107753901Y-38776654D01*
X107746539Y-38781060D01*
X107503476Y-38949992D01*
X107496781Y-38955357D01*
X107278894Y-39155713D01*
X107272988Y-39161937D01*
X107084309Y-39390011D01*
X107079302Y-39396979D01*
X106923323Y-39648549D01*
X106919308Y-39656131D01*
X106798912Y-39926543D01*
X106795964Y-39934601D01*
X106713382Y-40218850D01*
X106711554Y-40227233D01*
X106668313Y-40520059D01*
X106667640Y-40528613D01*
X106664541Y-40824598D01*
X105634000Y-40824598D01*
X105634000Y-37584079D01*
X183856000Y-37593920D01*
G36*
X125539001Y-95715216D02*
G01*
X125539001Y-97673790D01*
X125367753Y-97611460D01*
X125357126Y-97608613D01*
X125208018Y-97582320D01*
X125118000Y-97657854D01*
X125117999Y-98798191D01*
X125191808Y-98872000D01*
X125539001Y-98872000D01*
X125539001Y-99127999D01*
X125191809Y-99127999D01*
X125118000Y-99201808D01*
X125117999Y-100342146D01*
X125208017Y-100417679D01*
X125357125Y-100391387D01*
X125367753Y-100388540D01*
X125539001Y-100326210D01*
X125539000Y-112913789D01*
X125367753Y-112851460D01*
X125357126Y-112848613D01*
X125120897Y-112806959D01*
X125109936Y-112806000D01*
X124870064Y-112806000D01*
X124859103Y-112806959D01*
X124622874Y-112848613D01*
X124612247Y-112851460D01*
X124386840Y-112933502D01*
X124376868Y-112938152D01*
X124169132Y-113058088D01*
X124160119Y-113064399D01*
X123976366Y-113218587D01*
X123968587Y-113226366D01*
X123861000Y-113354582D01*
X123861000Y-99885418D01*
X123968587Y-100013634D01*
X123976366Y-100021413D01*
X124160119Y-100175601D01*
X124169132Y-100181912D01*
X124376868Y-100301848D01*
X124386840Y-100306498D01*
X124612247Y-100388540D01*
X124622874Y-100391387D01*
X124771982Y-100417680D01*
X124862000Y-100342146D01*
X124862001Y-99201808D01*
X124862000Y-99201807D01*
X124862001Y-97657854D01*
X124771983Y-97582321D01*
X124622875Y-97608613D01*
X124612247Y-97611460D01*
X124386840Y-97693502D01*
X124376868Y-97698152D01*
X124169132Y-97818088D01*
X124160119Y-97824399D01*
X123976366Y-97978587D01*
X123968587Y-97986366D01*
X123861000Y-98114582D01*
X123861000Y-94037214D01*
X125539001Y-95715216D01*
G37*
X125539001Y-95715216D02*
X125539001Y-97673790D01*
X125367753Y-97611460D01*
X125357126Y-97608613D01*
X125208018Y-97582320D01*
X125118000Y-97657854D01*
X125117999Y-98798191D01*
X125191808Y-98872000D01*
X125539001Y-98872000D01*
X125539001Y-99127999D01*
X125191809Y-99127999D01*
X125118000Y-99201808D01*
X125117999Y-100342146D01*
X125208017Y-100417679D01*
X125357125Y-100391387D01*
X125367753Y-100388540D01*
X125539001Y-100326210D01*
X125539000Y-112913789D01*
X125367753Y-112851460D01*
X125357126Y-112848613D01*
X125120897Y-112806959D01*
X125109936Y-112806000D01*
X124870064Y-112806000D01*
X124859103Y-112806959D01*
X124622874Y-112848613D01*
X124612247Y-112851460D01*
X124386840Y-112933502D01*
X124376868Y-112938152D01*
X124169132Y-113058088D01*
X124160119Y-113064399D01*
X123976366Y-113218587D01*
X123968587Y-113226366D01*
X123861000Y-113354582D01*
X123861000Y-99885418D01*
X123968587Y-100013634D01*
X123976366Y-100021413D01*
X124160119Y-100175601D01*
X124169132Y-100181912D01*
X124376868Y-100301848D01*
X124386840Y-100306498D01*
X124612247Y-100388540D01*
X124622874Y-100391387D01*
X124771982Y-100417680D01*
X124862000Y-100342146D01*
X124862001Y-99201808D01*
X124862000Y-99201807D01*
X124862001Y-97657854D01*
X124771983Y-97582321D01*
X124622875Y-97608613D01*
X124612247Y-97611460D01*
X124386840Y-97693502D01*
X124376868Y-97698152D01*
X124169132Y-97818088D01*
X124160119Y-97824399D01*
X123976366Y-97978587D01*
X123968587Y-97986366D01*
X123861000Y-98114582D01*
X123861000Y-94037214D01*
X125539001Y-95715216D01*
G36*
X128039000Y-96715215D02*
G01*
X128039000Y-97659230D01*
X127907753Y-97611460D01*
X127897126Y-97608613D01*
X127748018Y-97582320D01*
X127658000Y-97657854D01*
X127657999Y-98798192D01*
X127658000Y-98798193D01*
X127657999Y-100342146D01*
X127748017Y-100417679D01*
X127754716Y-100416498D01*
X127754000Y-100421937D01*
X127754000Y-100678062D01*
X127756156Y-100694438D01*
X127822446Y-100941835D01*
X127828767Y-100957095D01*
X127956829Y-101178905D01*
X127966884Y-101192009D01*
X128147991Y-101373116D01*
X128161095Y-101383171D01*
X128382905Y-101511233D01*
X128398165Y-101517554D01*
X128645562Y-101583844D01*
X128661938Y-101586000D01*
X128918062Y-101586000D01*
X128934438Y-101583844D01*
X129181835Y-101517554D01*
X129197095Y-101511233D01*
X129418905Y-101383171D01*
X129432009Y-101373116D01*
X129613116Y-101192009D01*
X129623171Y-101178905D01*
X129751233Y-100957095D01*
X129757554Y-100941835D01*
X129823844Y-100694438D01*
X129826000Y-100678062D01*
X129826000Y-100421938D01*
X129824808Y-100412888D01*
X129939103Y-100433041D01*
X129950064Y-100434000D01*
X130189936Y-100434000D01*
X130200897Y-100433041D01*
X130437126Y-100391387D01*
X130447753Y-100388540D01*
X130639000Y-100318931D01*
X130639001Y-107699427D01*
X130639001Y-107910489D01*
X130642103Y-107930078D01*
X130657739Y-107978199D01*
X130665654Y-108028177D01*
X130671783Y-108047040D01*
X130694753Y-108092118D01*
X130710389Y-108140243D01*
X130719393Y-108157915D01*
X130749138Y-108198856D01*
X130772108Y-108243935D01*
X130783765Y-108259980D01*
X130826556Y-108302770D01*
X131264899Y-108741113D01*
X131134438Y-108706156D01*
X131118062Y-108704000D01*
X130861938Y-108704000D01*
X130845562Y-108706156D01*
X130598165Y-108772446D01*
X130582905Y-108778767D01*
X130361095Y-108906829D01*
X130347991Y-108916884D01*
X130285876Y-108979000D01*
X129554821Y-108979000D01*
X129554809Y-108979001D01*
X129499509Y-108979001D01*
X129479920Y-108982103D01*
X129431805Y-108997737D01*
X129381823Y-109005654D01*
X129362961Y-109011782D01*
X129317873Y-109034755D01*
X129269754Y-109050390D01*
X129252084Y-109059394D01*
X129211150Y-109089134D01*
X129166066Y-109112106D01*
X129150020Y-109123764D01*
X129110404Y-109163381D01*
X129110389Y-109163394D01*
X127070197Y-111203589D01*
X127070190Y-111203594D01*
X127061000Y-111212784D01*
X127061000Y-100355329D01*
X127152247Y-100388540D01*
X127162874Y-100391387D01*
X127311982Y-100417680D01*
X127402000Y-100342146D01*
X127402001Y-99201809D01*
X127328192Y-99128000D01*
X127061000Y-99128000D01*
X127061000Y-98872001D01*
X127328191Y-98872001D01*
X127402000Y-98798192D01*
X127402001Y-97657854D01*
X127311983Y-97582321D01*
X127162875Y-97608613D01*
X127152247Y-97611460D01*
X127061000Y-97644671D01*
X127061000Y-95737215D01*
X128039000Y-96715215D01*
G37*
X128039000Y-96715215D02*
X128039000Y-97659230D01*
X127907753Y-97611460D01*
X127897126Y-97608613D01*
X127748018Y-97582320D01*
X127658000Y-97657854D01*
X127657999Y-98798192D01*
X127658000Y-98798193D01*
X127657999Y-100342146D01*
X127748017Y-100417679D01*
X127754716Y-100416498D01*
X127754000Y-100421937D01*
X127754000Y-100678062D01*
X127756156Y-100694438D01*
X127822446Y-100941835D01*
X127828767Y-100957095D01*
X127956829Y-101178905D01*
X127966884Y-101192009D01*
X128147991Y-101373116D01*
X128161095Y-101383171D01*
X128382905Y-101511233D01*
X128398165Y-101517554D01*
X128645562Y-101583844D01*
X128661938Y-101586000D01*
X128918062Y-101586000D01*
X128934438Y-101583844D01*
X129181835Y-101517554D01*
X129197095Y-101511233D01*
X129418905Y-101383171D01*
X129432009Y-101373116D01*
X129613116Y-101192009D01*
X129623171Y-101178905D01*
X129751233Y-100957095D01*
X129757554Y-100941835D01*
X129823844Y-100694438D01*
X129826000Y-100678062D01*
X129826000Y-100421938D01*
X129824808Y-100412888D01*
X129939103Y-100433041D01*
X129950064Y-100434000D01*
X130189936Y-100434000D01*
X130200897Y-100433041D01*
X130437126Y-100391387D01*
X130447753Y-100388540D01*
X130639000Y-100318931D01*
X130639001Y-107699427D01*
X130639001Y-107910489D01*
X130642103Y-107930078D01*
X130657739Y-107978199D01*
X130665654Y-108028177D01*
X130671783Y-108047040D01*
X130694753Y-108092118D01*
X130710389Y-108140243D01*
X130719393Y-108157915D01*
X130749138Y-108198856D01*
X130772108Y-108243935D01*
X130783765Y-108259980D01*
X130826556Y-108302770D01*
X131264899Y-108741113D01*
X131134438Y-108706156D01*
X131118062Y-108704000D01*
X130861938Y-108704000D01*
X130845562Y-108706156D01*
X130598165Y-108772446D01*
X130582905Y-108778767D01*
X130361095Y-108906829D01*
X130347991Y-108916884D01*
X130285876Y-108979000D01*
X129554821Y-108979000D01*
X129554809Y-108979001D01*
X129499509Y-108979001D01*
X129479920Y-108982103D01*
X129431805Y-108997737D01*
X129381823Y-109005654D01*
X129362961Y-109011782D01*
X129317873Y-109034755D01*
X129269754Y-109050390D01*
X129252084Y-109059394D01*
X129211150Y-109089134D01*
X129166066Y-109112106D01*
X129150020Y-109123764D01*
X129110404Y-109163381D01*
X129110389Y-109163394D01*
X127070197Y-111203589D01*
X127070190Y-111203594D01*
X127061000Y-111212784D01*
X127061000Y-100355329D01*
X127152247Y-100388540D01*
X127162874Y-100391387D01*
X127311982Y-100417680D01*
X127402000Y-100342146D01*
X127402001Y-99201809D01*
X127328192Y-99128000D01*
X127061000Y-99128000D01*
X127061000Y-98872001D01*
X127328191Y-98872001D01*
X127402000Y-98798192D01*
X127402001Y-97657854D01*
X127311983Y-97582321D01*
X127162875Y-97608613D01*
X127152247Y-97611460D01*
X127061000Y-97644671D01*
X127061000Y-95737215D01*
X128039000Y-96715215D01*
G36*
X171339001Y-53715217D02*
G01*
X171339000Y-58484784D01*
X170491639Y-59332146D01*
X170342395Y-59481390D01*
X170330738Y-59497435D01*
X170307768Y-59542514D01*
X170278023Y-59583455D01*
X170269019Y-59601127D01*
X170253383Y-59649252D01*
X170230413Y-59694330D01*
X170224284Y-59713193D01*
X170216369Y-59763171D01*
X170200733Y-59811292D01*
X170197631Y-59830881D01*
X170197631Y-59891396D01*
X170197630Y-70855178D01*
X170197631Y-70855190D01*
X170197631Y-70910489D01*
X170200733Y-70930077D01*
X170216366Y-70978191D01*
X170224283Y-71028176D01*
X170230412Y-71047037D01*
X170253383Y-71092120D01*
X170269020Y-71140245D01*
X170278024Y-71157917D01*
X170307768Y-71198855D01*
X170330736Y-71243933D01*
X170342393Y-71259978D01*
X170498820Y-71416406D01*
X170498824Y-71416409D01*
X170879405Y-71796991D01*
X171028650Y-71946236D01*
X171044696Y-71957894D01*
X171089779Y-71980865D01*
X171130713Y-72010605D01*
X171148384Y-72019610D01*
X171196503Y-72035245D01*
X171241591Y-72058218D01*
X171260453Y-72064346D01*
X171310435Y-72072263D01*
X171358550Y-72087897D01*
X171378139Y-72090999D01*
X171403523Y-72090999D01*
X171438088Y-72150868D01*
X171444399Y-72159881D01*
X171598587Y-72343634D01*
X171606366Y-72351413D01*
X171790119Y-72505601D01*
X171799132Y-72511912D01*
X171951705Y-72600000D01*
X171799132Y-72688088D01*
X171790119Y-72694399D01*
X171606366Y-72848587D01*
X171598587Y-72856366D01*
X171444399Y-73040119D01*
X171438088Y-73049132D01*
X171318152Y-73256868D01*
X171313502Y-73266840D01*
X171231460Y-73492247D01*
X171228613Y-73502874D01*
X171186959Y-73739103D01*
X171186000Y-73750064D01*
X171186000Y-73989936D01*
X171186959Y-74000897D01*
X171228613Y-74237126D01*
X171231460Y-74247753D01*
X171313502Y-74473160D01*
X171318152Y-74483132D01*
X171438088Y-74690868D01*
X171444399Y-74699881D01*
X171598587Y-74883634D01*
X171606366Y-74891413D01*
X171790119Y-75045601D01*
X171799132Y-75051912D01*
X171951705Y-75140000D01*
X171799132Y-75228088D01*
X171790119Y-75234399D01*
X171606366Y-75388587D01*
X171598587Y-75396366D01*
X171444399Y-75580119D01*
X171438088Y-75589132D01*
X171318152Y-75796868D01*
X171313502Y-75806840D01*
X171231460Y-76032247D01*
X171228613Y-76042874D01*
X171186959Y-76279103D01*
X171186000Y-76290064D01*
X171186000Y-76529936D01*
X171186959Y-76540897D01*
X171228613Y-76777126D01*
X171231460Y-76787753D01*
X171313502Y-77013160D01*
X171318152Y-77023132D01*
X171438088Y-77230868D01*
X171444399Y-77239881D01*
X171598587Y-77423634D01*
X171606366Y-77431413D01*
X171790119Y-77585601D01*
X171799132Y-77591912D01*
X171951705Y-77680000D01*
X171799132Y-77768088D01*
X171790119Y-77774399D01*
X171606366Y-77928587D01*
X171598587Y-77936366D01*
X171444399Y-78120119D01*
X171438088Y-78129132D01*
X171318152Y-78336868D01*
X171313502Y-78346840D01*
X171231460Y-78572247D01*
X171228613Y-78582874D01*
X171186959Y-78819103D01*
X171186000Y-78830064D01*
X171186000Y-79069936D01*
X171186959Y-79080897D01*
X171228613Y-79317126D01*
X171231460Y-79327753D01*
X171313502Y-79553160D01*
X171318152Y-79563132D01*
X171438088Y-79770868D01*
X171444399Y-79779881D01*
X171598587Y-79963634D01*
X171606366Y-79971413D01*
X171790119Y-80125601D01*
X171799132Y-80131912D01*
X171951705Y-80220000D01*
X171799132Y-80308088D01*
X171790119Y-80314399D01*
X171606366Y-80468587D01*
X171598587Y-80476366D01*
X171444399Y-80660119D01*
X171438088Y-80669132D01*
X171318152Y-80876868D01*
X171313502Y-80886840D01*
X171231460Y-81112247D01*
X171228613Y-81122874D01*
X171186959Y-81359103D01*
X171186000Y-81370064D01*
X171186000Y-81609936D01*
X171186959Y-81620897D01*
X171228613Y-81857126D01*
X171231460Y-81867753D01*
X171313502Y-82093160D01*
X171318152Y-82103132D01*
X171438088Y-82310868D01*
X171444399Y-82319881D01*
X171598587Y-82503634D01*
X171606366Y-82511413D01*
X171790119Y-82665601D01*
X171799132Y-82671912D01*
X171951705Y-82760000D01*
X171799132Y-82848088D01*
X171790119Y-82854399D01*
X171606366Y-83008587D01*
X171598587Y-83016366D01*
X171444399Y-83200119D01*
X171438088Y-83209132D01*
X171318152Y-83416868D01*
X171313502Y-83426840D01*
X171231460Y-83652247D01*
X171228613Y-83662874D01*
X171186959Y-83899103D01*
X171186000Y-83910064D01*
X171186000Y-84149936D01*
X171186959Y-84160897D01*
X171228613Y-84397126D01*
X171231460Y-84407753D01*
X171313502Y-84633160D01*
X171318152Y-84643132D01*
X171438088Y-84850868D01*
X171444399Y-84859881D01*
X171598587Y-85043634D01*
X171606366Y-85051413D01*
X171790119Y-85205601D01*
X171799132Y-85211912D01*
X171951705Y-85300000D01*
X171799132Y-85388088D01*
X171790119Y-85394399D01*
X171606366Y-85548587D01*
X171598587Y-85556366D01*
X171444399Y-85740119D01*
X171438088Y-85749132D01*
X171318152Y-85956868D01*
X171313502Y-85966840D01*
X171231460Y-86192247D01*
X171228613Y-86202874D01*
X171186959Y-86439103D01*
X171186000Y-86450064D01*
X171186000Y-86689936D01*
X171186959Y-86700897D01*
X171228613Y-86937126D01*
X171231460Y-86947753D01*
X171313502Y-87173160D01*
X171318152Y-87183132D01*
X171438088Y-87390868D01*
X171444399Y-87399881D01*
X171598587Y-87583634D01*
X171606366Y-87591413D01*
X171790119Y-87745601D01*
X171799132Y-87751912D01*
X171951705Y-87840000D01*
X171799132Y-87928088D01*
X171790119Y-87934399D01*
X171606366Y-88088587D01*
X171598587Y-88096366D01*
X171444399Y-88280119D01*
X171438088Y-88289132D01*
X171318152Y-88496868D01*
X171313502Y-88506840D01*
X171231460Y-88732247D01*
X171228613Y-88742874D01*
X171186959Y-88979103D01*
X171186000Y-88990064D01*
X171186000Y-89229936D01*
X171186959Y-89240897D01*
X171228613Y-89477126D01*
X171231460Y-89487753D01*
X171313502Y-89713160D01*
X171318152Y-89723132D01*
X171438088Y-89930868D01*
X171444399Y-89939881D01*
X171598587Y-90123634D01*
X171606366Y-90131413D01*
X171790119Y-90285601D01*
X171799132Y-90291912D01*
X172006868Y-90411848D01*
X172016840Y-90416498D01*
X172242247Y-90498540D01*
X172252874Y-90501387D01*
X172489103Y-90543041D01*
X172500064Y-90544000D01*
X172739936Y-90544000D01*
X172750897Y-90543041D01*
X172987126Y-90501387D01*
X172997753Y-90498540D01*
X173223160Y-90416498D01*
X173233132Y-90411848D01*
X173440868Y-90291912D01*
X173449881Y-90285601D01*
X173633634Y-90131413D01*
X173641413Y-90123634D01*
X173795601Y-89939881D01*
X173801912Y-89930868D01*
X173921848Y-89723132D01*
X173926498Y-89713160D01*
X174008540Y-89487753D01*
X174011387Y-89477126D01*
X174053041Y-89240897D01*
X174054000Y-89229936D01*
X174054000Y-88990064D01*
X174053041Y-88979103D01*
X174011387Y-88742874D01*
X174008540Y-88732247D01*
X173926498Y-88506840D01*
X173921848Y-88496868D01*
X173801912Y-88289132D01*
X173795601Y-88280119D01*
X173641413Y-88096366D01*
X173633634Y-88088587D01*
X173449881Y-87934399D01*
X173440868Y-87928088D01*
X173288295Y-87840000D01*
X173440868Y-87751912D01*
X173449881Y-87745601D01*
X173633634Y-87591413D01*
X173641413Y-87583634D01*
X173795601Y-87399881D01*
X173801912Y-87390868D01*
X173921848Y-87183132D01*
X173926498Y-87173160D01*
X173942755Y-87128495D01*
X173943935Y-87127894D01*
X173959980Y-87116236D01*
X174116407Y-86959809D01*
X174116412Y-86959802D01*
X182139001Y-78937214D01*
X182139000Y-94584785D01*
X170884786Y-105839000D01*
X160825425Y-105839000D01*
X160833171Y-105828905D01*
X160961233Y-105607095D01*
X160967554Y-105591835D01*
X161033844Y-105344438D01*
X161036000Y-105328062D01*
X161036000Y-105240214D01*
X162314523Y-103961691D01*
X162238767Y-104092905D01*
X162232446Y-104108165D01*
X162166156Y-104355562D01*
X162164000Y-104371938D01*
X162164000Y-104628062D01*
X162166156Y-104644438D01*
X162232446Y-104891835D01*
X162238767Y-104907095D01*
X162366829Y-105128905D01*
X162376884Y-105142009D01*
X162557991Y-105323116D01*
X162571095Y-105333171D01*
X162792905Y-105461233D01*
X162808165Y-105467554D01*
X163055562Y-105533844D01*
X163071938Y-105536000D01*
X163328062Y-105536000D01*
X163344438Y-105533844D01*
X163591835Y-105467554D01*
X163607095Y-105461233D01*
X163828905Y-105333171D01*
X163842009Y-105323116D01*
X164023116Y-105142009D01*
X164033171Y-105128905D01*
X164161233Y-104907095D01*
X164167554Y-104891835D01*
X164233844Y-104644438D01*
X164236000Y-104628062D01*
X164236000Y-104540214D01*
X167473444Y-101302771D01*
X167516236Y-101259980D01*
X167527894Y-101243934D01*
X167550865Y-101198851D01*
X167580605Y-101157917D01*
X167589610Y-101140246D01*
X167605245Y-101092127D01*
X167628218Y-101047039D01*
X167634346Y-101028177D01*
X167642263Y-100978195D01*
X167657897Y-100930080D01*
X167660999Y-100910491D01*
X167660999Y-100855191D01*
X167661000Y-100855179D01*
X167661000Y-100340770D01*
X167792247Y-100388540D01*
X167802874Y-100391387D01*
X168039103Y-100433041D01*
X168050064Y-100434000D01*
X168289936Y-100434000D01*
X168300897Y-100433041D01*
X168537126Y-100391387D01*
X168547753Y-100388540D01*
X168773160Y-100306498D01*
X168783132Y-100301848D01*
X168990868Y-100181912D01*
X168999881Y-100175601D01*
X169183634Y-100021413D01*
X169191413Y-100013634D01*
X169345601Y-99829881D01*
X169351912Y-99820868D01*
X169440000Y-99668295D01*
X169528088Y-99820868D01*
X169534399Y-99829881D01*
X169688587Y-100013634D01*
X169696366Y-100021413D01*
X169880119Y-100175601D01*
X169889132Y-100181912D01*
X170096868Y-100301848D01*
X170106840Y-100306498D01*
X170332247Y-100388540D01*
X170342874Y-100391387D01*
X170579103Y-100433041D01*
X170590064Y-100434000D01*
X170829936Y-100434000D01*
X170840897Y-100433041D01*
X171077126Y-100391387D01*
X171087753Y-100388540D01*
X171313160Y-100306498D01*
X171323132Y-100301848D01*
X171530868Y-100181912D01*
X171539881Y-100175601D01*
X171723634Y-100021413D01*
X171731413Y-100013634D01*
X171885601Y-99829881D01*
X171891912Y-99820868D01*
X171980000Y-99668295D01*
X172068088Y-99820868D01*
X172074399Y-99829881D01*
X172228587Y-100013634D01*
X172236366Y-100021413D01*
X172420119Y-100175601D01*
X172429132Y-100181912D01*
X172636868Y-100301848D01*
X172646840Y-100306498D01*
X172872247Y-100388540D01*
X172882874Y-100391387D01*
X173119103Y-100433041D01*
X173130064Y-100434000D01*
X173369936Y-100434000D01*
X173380897Y-100433041D01*
X173617126Y-100391387D01*
X173627753Y-100388540D01*
X173853160Y-100306498D01*
X173863132Y-100301848D01*
X174070868Y-100181912D01*
X174079881Y-100175601D01*
X174263634Y-100021413D01*
X174271413Y-100013634D01*
X174425601Y-99829881D01*
X174431912Y-99820868D01*
X174551848Y-99613132D01*
X174556498Y-99603160D01*
X174638540Y-99377753D01*
X174641387Y-99367126D01*
X174683041Y-99130897D01*
X174684000Y-99119936D01*
X174684000Y-98880064D01*
X174683041Y-98869103D01*
X174641387Y-98632874D01*
X174638540Y-98622247D01*
X174556498Y-98396840D01*
X174551848Y-98386868D01*
X174431912Y-98179132D01*
X174425601Y-98170119D01*
X174271413Y-97986366D01*
X174263634Y-97978587D01*
X174079881Y-97824399D01*
X174070868Y-97818088D01*
X173863132Y-97698152D01*
X173853160Y-97693502D01*
X173627753Y-97611460D01*
X173617126Y-97608613D01*
X173380897Y-97566959D01*
X173369936Y-97566000D01*
X173130064Y-97566000D01*
X173119103Y-97566959D01*
X172882874Y-97608613D01*
X172872247Y-97611460D01*
X172646840Y-97693502D01*
X172636868Y-97698152D01*
X172429132Y-97818088D01*
X172420119Y-97824399D01*
X172236366Y-97978587D01*
X172228587Y-97986366D01*
X172074399Y-98170119D01*
X172068088Y-98179132D01*
X171980000Y-98331705D01*
X171891912Y-98179132D01*
X171885601Y-98170119D01*
X171731413Y-97986366D01*
X171723634Y-97978587D01*
X171539881Y-97824399D01*
X171530868Y-97818088D01*
X171323132Y-97698152D01*
X171313160Y-97693502D01*
X171087753Y-97611460D01*
X171077126Y-97608613D01*
X170840897Y-97566959D01*
X170829936Y-97566000D01*
X170590064Y-97566000D01*
X170579103Y-97566959D01*
X170342874Y-97608613D01*
X170332247Y-97611460D01*
X170106840Y-97693502D01*
X170096868Y-97698152D01*
X169889132Y-97818088D01*
X169880119Y-97824399D01*
X169696366Y-97978587D01*
X169688587Y-97986366D01*
X169534399Y-98170119D01*
X169528088Y-98179132D01*
X169440000Y-98331705D01*
X169351912Y-98179132D01*
X169345601Y-98170119D01*
X169191413Y-97986366D01*
X169183634Y-97978587D01*
X168999881Y-97824399D01*
X168990868Y-97818088D01*
X168783132Y-97698152D01*
X168773160Y-97693502D01*
X168547753Y-97611460D01*
X168537126Y-97608613D01*
X168300897Y-97566959D01*
X168289936Y-97566000D01*
X168050064Y-97566000D01*
X168039103Y-97566959D01*
X167802874Y-97608613D01*
X167792247Y-97611460D01*
X167661000Y-97659230D01*
X167661000Y-96115215D01*
X169576606Y-94199611D01*
X169576619Y-94199596D01*
X169616236Y-94159980D01*
X169627894Y-94143934D01*
X169650866Y-94098850D01*
X169680606Y-94057916D01*
X169689610Y-94040246D01*
X169705245Y-93992127D01*
X169728218Y-93947039D01*
X169734346Y-93928177D01*
X169742263Y-93878195D01*
X169757897Y-93830080D01*
X169760999Y-93810491D01*
X169760999Y-93755191D01*
X169761000Y-93755179D01*
X169761000Y-74844821D01*
X169760999Y-74844809D01*
X169760999Y-74789510D01*
X169757897Y-74769921D01*
X169742263Y-74721806D01*
X169734347Y-74671823D01*
X169728218Y-74652961D01*
X169705245Y-74607874D01*
X169689611Y-74559756D01*
X169680606Y-74542084D01*
X169650867Y-74501153D01*
X169627894Y-74456065D01*
X169616236Y-74440020D01*
X169561000Y-74384785D01*
X169561000Y-60806191D01*
X169560999Y-60806179D01*
X169560999Y-60750879D01*
X169557897Y-60731290D01*
X169542263Y-60683175D01*
X169534346Y-60633193D01*
X169528218Y-60614331D01*
X169505245Y-60569243D01*
X169489610Y-60521124D01*
X169480606Y-60503454D01*
X169450866Y-60462520D01*
X169427894Y-60417435D01*
X169416236Y-60401389D01*
X169378914Y-60364069D01*
X169378908Y-60364061D01*
X167251000Y-58236156D01*
X167251000Y-55557017D01*
X167378905Y-55483171D01*
X167392009Y-55473116D01*
X167573116Y-55292009D01*
X167583171Y-55278905D01*
X167711233Y-55057095D01*
X167717554Y-55041835D01*
X167783844Y-54794438D01*
X167786000Y-54778062D01*
X167786000Y-54521938D01*
X167783844Y-54505562D01*
X167717554Y-54258165D01*
X167711233Y-54242905D01*
X167583171Y-54021095D01*
X167573116Y-54007991D01*
X167392009Y-53826884D01*
X167378905Y-53816829D01*
X167157095Y-53688767D01*
X167141835Y-53682446D01*
X166894438Y-53616156D01*
X166878062Y-53614000D01*
X166621938Y-53614000D01*
X166605562Y-53616156D01*
X166358165Y-53682446D01*
X166342905Y-53688767D01*
X166121095Y-53816829D01*
X166107991Y-53826884D01*
X166037500Y-53897375D01*
X165867009Y-53726884D01*
X165853905Y-53716829D01*
X165759832Y-53662516D01*
X165875931Y-53463037D01*
X165880500Y-53453392D01*
X165966432Y-53223555D01*
X165969311Y-53213279D01*
X166015347Y-52971952D01*
X166016462Y-52960729D01*
X166019078Y-52688219D01*
X166018179Y-52676977D01*
X165976785Y-52434811D01*
X165974104Y-52424481D01*
X165892600Y-52193037D01*
X165888216Y-52183306D01*
X165768881Y-51968904D01*
X165762921Y-51960052D01*
X165622981Y-51786000D01*
X169409786Y-51786000D01*
X171339001Y-53715217D01*
G37*
X171339001Y-53715217D02*
X171339000Y-58484784D01*
X170491639Y-59332146D01*
X170342395Y-59481390D01*
X170330738Y-59497435D01*
X170307768Y-59542514D01*
X170278023Y-59583455D01*
X170269019Y-59601127D01*
X170253383Y-59649252D01*
X170230413Y-59694330D01*
X170224284Y-59713193D01*
X170216369Y-59763171D01*
X170200733Y-59811292D01*
X170197631Y-59830881D01*
X170197631Y-59891396D01*
X170197630Y-70855178D01*
X170197631Y-70855190D01*
X170197631Y-70910489D01*
X170200733Y-70930077D01*
X170216366Y-70978191D01*
X170224283Y-71028176D01*
X170230412Y-71047037D01*
X170253383Y-71092120D01*
X170269020Y-71140245D01*
X170278024Y-71157917D01*
X170307768Y-71198855D01*
X170330736Y-71243933D01*
X170342393Y-71259978D01*
X170498820Y-71416406D01*
X170498824Y-71416409D01*
X170879405Y-71796991D01*
X171028650Y-71946236D01*
X171044696Y-71957894D01*
X171089779Y-71980865D01*
X171130713Y-72010605D01*
X171148384Y-72019610D01*
X171196503Y-72035245D01*
X171241591Y-72058218D01*
X171260453Y-72064346D01*
X171310435Y-72072263D01*
X171358550Y-72087897D01*
X171378139Y-72090999D01*
X171403523Y-72090999D01*
X171438088Y-72150868D01*
X171444399Y-72159881D01*
X171598587Y-72343634D01*
X171606366Y-72351413D01*
X171790119Y-72505601D01*
X171799132Y-72511912D01*
X171951705Y-72600000D01*
X171799132Y-72688088D01*
X171790119Y-72694399D01*
X171606366Y-72848587D01*
X171598587Y-72856366D01*
X171444399Y-73040119D01*
X171438088Y-73049132D01*
X171318152Y-73256868D01*
X171313502Y-73266840D01*
X171231460Y-73492247D01*
X171228613Y-73502874D01*
X171186959Y-73739103D01*
X171186000Y-73750064D01*
X171186000Y-73989936D01*
X171186959Y-74000897D01*
X171228613Y-74237126D01*
X171231460Y-74247753D01*
X171313502Y-74473160D01*
X171318152Y-74483132D01*
X171438088Y-74690868D01*
X171444399Y-74699881D01*
X171598587Y-74883634D01*
X171606366Y-74891413D01*
X171790119Y-75045601D01*
X171799132Y-75051912D01*
X171951705Y-75140000D01*
X171799132Y-75228088D01*
X171790119Y-75234399D01*
X171606366Y-75388587D01*
X171598587Y-75396366D01*
X171444399Y-75580119D01*
X171438088Y-75589132D01*
X171318152Y-75796868D01*
X171313502Y-75806840D01*
X171231460Y-76032247D01*
X171228613Y-76042874D01*
X171186959Y-76279103D01*
X171186000Y-76290064D01*
X171186000Y-76529936D01*
X171186959Y-76540897D01*
X171228613Y-76777126D01*
X171231460Y-76787753D01*
X171313502Y-77013160D01*
X171318152Y-77023132D01*
X171438088Y-77230868D01*
X171444399Y-77239881D01*
X171598587Y-77423634D01*
X171606366Y-77431413D01*
X171790119Y-77585601D01*
X171799132Y-77591912D01*
X171951705Y-77680000D01*
X171799132Y-77768088D01*
X171790119Y-77774399D01*
X171606366Y-77928587D01*
X171598587Y-77936366D01*
X171444399Y-78120119D01*
X171438088Y-78129132D01*
X171318152Y-78336868D01*
X171313502Y-78346840D01*
X171231460Y-78572247D01*
X171228613Y-78582874D01*
X171186959Y-78819103D01*
X171186000Y-78830064D01*
X171186000Y-79069936D01*
X171186959Y-79080897D01*
X171228613Y-79317126D01*
X171231460Y-79327753D01*
X171313502Y-79553160D01*
X171318152Y-79563132D01*
X171438088Y-79770868D01*
X171444399Y-79779881D01*
X171598587Y-79963634D01*
X171606366Y-79971413D01*
X171790119Y-80125601D01*
X171799132Y-80131912D01*
X171951705Y-80220000D01*
X171799132Y-80308088D01*
X171790119Y-80314399D01*
X171606366Y-80468587D01*
X171598587Y-80476366D01*
X171444399Y-80660119D01*
X171438088Y-80669132D01*
X171318152Y-80876868D01*
X171313502Y-80886840D01*
X171231460Y-81112247D01*
X171228613Y-81122874D01*
X171186959Y-81359103D01*
X171186000Y-81370064D01*
X171186000Y-81609936D01*
X171186959Y-81620897D01*
X171228613Y-81857126D01*
X171231460Y-81867753D01*
X171313502Y-82093160D01*
X171318152Y-82103132D01*
X171438088Y-82310868D01*
X171444399Y-82319881D01*
X171598587Y-82503634D01*
X171606366Y-82511413D01*
X171790119Y-82665601D01*
X171799132Y-82671912D01*
X171951705Y-82760000D01*
X171799132Y-82848088D01*
X171790119Y-82854399D01*
X171606366Y-83008587D01*
X171598587Y-83016366D01*
X171444399Y-83200119D01*
X171438088Y-83209132D01*
X171318152Y-83416868D01*
X171313502Y-83426840D01*
X171231460Y-83652247D01*
X171228613Y-83662874D01*
X171186959Y-83899103D01*
X171186000Y-83910064D01*
X171186000Y-84149936D01*
X171186959Y-84160897D01*
X171228613Y-84397126D01*
X171231460Y-84407753D01*
X171313502Y-84633160D01*
X171318152Y-84643132D01*
X171438088Y-84850868D01*
X171444399Y-84859881D01*
X171598587Y-85043634D01*
X171606366Y-85051413D01*
X171790119Y-85205601D01*
X171799132Y-85211912D01*
X171951705Y-85300000D01*
X171799132Y-85388088D01*
X171790119Y-85394399D01*
X171606366Y-85548587D01*
X171598587Y-85556366D01*
X171444399Y-85740119D01*
X171438088Y-85749132D01*
X171318152Y-85956868D01*
X171313502Y-85966840D01*
X171231460Y-86192247D01*
X171228613Y-86202874D01*
X171186959Y-86439103D01*
X171186000Y-86450064D01*
X171186000Y-86689936D01*
X171186959Y-86700897D01*
X171228613Y-86937126D01*
X171231460Y-86947753D01*
X171313502Y-87173160D01*
X171318152Y-87183132D01*
X171438088Y-87390868D01*
X171444399Y-87399881D01*
X171598587Y-87583634D01*
X171606366Y-87591413D01*
X171790119Y-87745601D01*
X171799132Y-87751912D01*
X171951705Y-87840000D01*
X171799132Y-87928088D01*
X171790119Y-87934399D01*
X171606366Y-88088587D01*
X171598587Y-88096366D01*
X171444399Y-88280119D01*
X171438088Y-88289132D01*
X171318152Y-88496868D01*
X171313502Y-88506840D01*
X171231460Y-88732247D01*
X171228613Y-88742874D01*
X171186959Y-88979103D01*
X171186000Y-88990064D01*
X171186000Y-89229936D01*
X171186959Y-89240897D01*
X171228613Y-89477126D01*
X171231460Y-89487753D01*
X171313502Y-89713160D01*
X171318152Y-89723132D01*
X171438088Y-89930868D01*
X171444399Y-89939881D01*
X171598587Y-90123634D01*
X171606366Y-90131413D01*
X171790119Y-90285601D01*
X171799132Y-90291912D01*
X172006868Y-90411848D01*
X172016840Y-90416498D01*
X172242247Y-90498540D01*
X172252874Y-90501387D01*
X172489103Y-90543041D01*
X172500064Y-90544000D01*
X172739936Y-90544000D01*
X172750897Y-90543041D01*
X172987126Y-90501387D01*
X172997753Y-90498540D01*
X173223160Y-90416498D01*
X173233132Y-90411848D01*
X173440868Y-90291912D01*
X173449881Y-90285601D01*
X173633634Y-90131413D01*
X173641413Y-90123634D01*
X173795601Y-89939881D01*
X173801912Y-89930868D01*
X173921848Y-89723132D01*
X173926498Y-89713160D01*
X174008540Y-89487753D01*
X174011387Y-89477126D01*
X174053041Y-89240897D01*
X174054000Y-89229936D01*
X174054000Y-88990064D01*
X174053041Y-88979103D01*
X174011387Y-88742874D01*
X174008540Y-88732247D01*
X173926498Y-88506840D01*
X173921848Y-88496868D01*
X173801912Y-88289132D01*
X173795601Y-88280119D01*
X173641413Y-88096366D01*
X173633634Y-88088587D01*
X173449881Y-87934399D01*
X173440868Y-87928088D01*
X173288295Y-87840000D01*
X173440868Y-87751912D01*
X173449881Y-87745601D01*
X173633634Y-87591413D01*
X173641413Y-87583634D01*
X173795601Y-87399881D01*
X173801912Y-87390868D01*
X173921848Y-87183132D01*
X173926498Y-87173160D01*
X173942755Y-87128495D01*
X173943935Y-87127894D01*
X173959980Y-87116236D01*
X174116407Y-86959809D01*
X174116412Y-86959802D01*
X182139001Y-78937214D01*
X182139000Y-94584785D01*
X170884786Y-105839000D01*
X160825425Y-105839000D01*
X160833171Y-105828905D01*
X160961233Y-105607095D01*
X160967554Y-105591835D01*
X161033844Y-105344438D01*
X161036000Y-105328062D01*
X161036000Y-105240214D01*
X162314523Y-103961691D01*
X162238767Y-104092905D01*
X162232446Y-104108165D01*
X162166156Y-104355562D01*
X162164000Y-104371938D01*
X162164000Y-104628062D01*
X162166156Y-104644438D01*
X162232446Y-104891835D01*
X162238767Y-104907095D01*
X162366829Y-105128905D01*
X162376884Y-105142009D01*
X162557991Y-105323116D01*
X162571095Y-105333171D01*
X162792905Y-105461233D01*
X162808165Y-105467554D01*
X163055562Y-105533844D01*
X163071938Y-105536000D01*
X163328062Y-105536000D01*
X163344438Y-105533844D01*
X163591835Y-105467554D01*
X163607095Y-105461233D01*
X163828905Y-105333171D01*
X163842009Y-105323116D01*
X164023116Y-105142009D01*
X164033171Y-105128905D01*
X164161233Y-104907095D01*
X164167554Y-104891835D01*
X164233844Y-104644438D01*
X164236000Y-104628062D01*
X164236000Y-104540214D01*
X167473444Y-101302771D01*
X167516236Y-101259980D01*
X167527894Y-101243934D01*
X167550865Y-101198851D01*
X167580605Y-101157917D01*
X167589610Y-101140246D01*
X167605245Y-101092127D01*
X167628218Y-101047039D01*
X167634346Y-101028177D01*
X167642263Y-100978195D01*
X167657897Y-100930080D01*
X167660999Y-100910491D01*
X167660999Y-100855191D01*
X167661000Y-100855179D01*
X167661000Y-100340770D01*
X167792247Y-100388540D01*
X167802874Y-100391387D01*
X168039103Y-100433041D01*
X168050064Y-100434000D01*
X168289936Y-100434000D01*
X168300897Y-100433041D01*
X168537126Y-100391387D01*
X168547753Y-100388540D01*
X168773160Y-100306498D01*
X168783132Y-100301848D01*
X168990868Y-100181912D01*
X168999881Y-100175601D01*
X169183634Y-100021413D01*
X169191413Y-100013634D01*
X169345601Y-99829881D01*
X169351912Y-99820868D01*
X169440000Y-99668295D01*
X169528088Y-99820868D01*
X169534399Y-99829881D01*
X169688587Y-100013634D01*
X169696366Y-100021413D01*
X169880119Y-100175601D01*
X169889132Y-100181912D01*
X170096868Y-100301848D01*
X170106840Y-100306498D01*
X170332247Y-100388540D01*
X170342874Y-100391387D01*
X170579103Y-100433041D01*
X170590064Y-100434000D01*
X170829936Y-100434000D01*
X170840897Y-100433041D01*
X171077126Y-100391387D01*
X171087753Y-100388540D01*
X171313160Y-100306498D01*
X171323132Y-100301848D01*
X171530868Y-100181912D01*
X171539881Y-100175601D01*
X171723634Y-100021413D01*
X171731413Y-100013634D01*
X171885601Y-99829881D01*
X171891912Y-99820868D01*
X171980000Y-99668295D01*
X172068088Y-99820868D01*
X172074399Y-99829881D01*
X172228587Y-100013634D01*
X172236366Y-100021413D01*
X172420119Y-100175601D01*
X172429132Y-100181912D01*
X172636868Y-100301848D01*
X172646840Y-100306498D01*
X172872247Y-100388540D01*
X172882874Y-100391387D01*
X173119103Y-100433041D01*
X173130064Y-100434000D01*
X173369936Y-100434000D01*
X173380897Y-100433041D01*
X173617126Y-100391387D01*
X173627753Y-100388540D01*
X173853160Y-100306498D01*
X173863132Y-100301848D01*
X174070868Y-100181912D01*
X174079881Y-100175601D01*
X174263634Y-100021413D01*
X174271413Y-100013634D01*
X174425601Y-99829881D01*
X174431912Y-99820868D01*
X174551848Y-99613132D01*
X174556498Y-99603160D01*
X174638540Y-99377753D01*
X174641387Y-99367126D01*
X174683041Y-99130897D01*
X174684000Y-99119936D01*
X174684000Y-98880064D01*
X174683041Y-98869103D01*
X174641387Y-98632874D01*
X174638540Y-98622247D01*
X174556498Y-98396840D01*
X174551848Y-98386868D01*
X174431912Y-98179132D01*
X174425601Y-98170119D01*
X174271413Y-97986366D01*
X174263634Y-97978587D01*
X174079881Y-97824399D01*
X174070868Y-97818088D01*
X173863132Y-97698152D01*
X173853160Y-97693502D01*
X173627753Y-97611460D01*
X173617126Y-97608613D01*
X173380897Y-97566959D01*
X173369936Y-97566000D01*
X173130064Y-97566000D01*
X173119103Y-97566959D01*
X172882874Y-97608613D01*
X172872247Y-97611460D01*
X172646840Y-97693502D01*
X172636868Y-97698152D01*
X172429132Y-97818088D01*
X172420119Y-97824399D01*
X172236366Y-97978587D01*
X172228587Y-97986366D01*
X172074399Y-98170119D01*
X172068088Y-98179132D01*
X171980000Y-98331705D01*
X171891912Y-98179132D01*
X171885601Y-98170119D01*
X171731413Y-97986366D01*
X171723634Y-97978587D01*
X171539881Y-97824399D01*
X171530868Y-97818088D01*
X171323132Y-97698152D01*
X171313160Y-97693502D01*
X171087753Y-97611460D01*
X171077126Y-97608613D01*
X170840897Y-97566959D01*
X170829936Y-97566000D01*
X170590064Y-97566000D01*
X170579103Y-97566959D01*
X170342874Y-97608613D01*
X170332247Y-97611460D01*
X170106840Y-97693502D01*
X170096868Y-97698152D01*
X169889132Y-97818088D01*
X169880119Y-97824399D01*
X169696366Y-97978587D01*
X169688587Y-97986366D01*
X169534399Y-98170119D01*
X169528088Y-98179132D01*
X169440000Y-98331705D01*
X169351912Y-98179132D01*
X169345601Y-98170119D01*
X169191413Y-97986366D01*
X169183634Y-97978587D01*
X168999881Y-97824399D01*
X168990868Y-97818088D01*
X168783132Y-97698152D01*
X168773160Y-97693502D01*
X168547753Y-97611460D01*
X168537126Y-97608613D01*
X168300897Y-97566959D01*
X168289936Y-97566000D01*
X168050064Y-97566000D01*
X168039103Y-97566959D01*
X167802874Y-97608613D01*
X167792247Y-97611460D01*
X167661000Y-97659230D01*
X167661000Y-96115215D01*
X169576606Y-94199611D01*
X169576619Y-94199596D01*
X169616236Y-94159980D01*
X169627894Y-94143934D01*
X169650866Y-94098850D01*
X169680606Y-94057916D01*
X169689610Y-94040246D01*
X169705245Y-93992127D01*
X169728218Y-93947039D01*
X169734346Y-93928177D01*
X169742263Y-93878195D01*
X169757897Y-93830080D01*
X169760999Y-93810491D01*
X169760999Y-93755191D01*
X169761000Y-93755179D01*
X169761000Y-74844821D01*
X169760999Y-74844809D01*
X169760999Y-74789510D01*
X169757897Y-74769921D01*
X169742263Y-74721806D01*
X169734347Y-74671823D01*
X169728218Y-74652961D01*
X169705245Y-74607874D01*
X169689611Y-74559756D01*
X169680606Y-74542084D01*
X169650867Y-74501153D01*
X169627894Y-74456065D01*
X169616236Y-74440020D01*
X169561000Y-74384785D01*
X169561000Y-60806191D01*
X169560999Y-60806179D01*
X169560999Y-60750879D01*
X169557897Y-60731290D01*
X169542263Y-60683175D01*
X169534346Y-60633193D01*
X169528218Y-60614331D01*
X169505245Y-60569243D01*
X169489610Y-60521124D01*
X169480606Y-60503454D01*
X169450866Y-60462520D01*
X169427894Y-60417435D01*
X169416236Y-60401389D01*
X169378914Y-60364069D01*
X169378908Y-60364061D01*
X167251000Y-58236156D01*
X167251000Y-55557017D01*
X167378905Y-55483171D01*
X167392009Y-55473116D01*
X167573116Y-55292009D01*
X167583171Y-55278905D01*
X167711233Y-55057095D01*
X167717554Y-55041835D01*
X167783844Y-54794438D01*
X167786000Y-54778062D01*
X167786000Y-54521938D01*
X167783844Y-54505562D01*
X167717554Y-54258165D01*
X167711233Y-54242905D01*
X167583171Y-54021095D01*
X167573116Y-54007991D01*
X167392009Y-53826884D01*
X167378905Y-53816829D01*
X167157095Y-53688767D01*
X167141835Y-53682446D01*
X166894438Y-53616156D01*
X166878062Y-53614000D01*
X166621938Y-53614000D01*
X166605562Y-53616156D01*
X166358165Y-53682446D01*
X166342905Y-53688767D01*
X166121095Y-53816829D01*
X166107991Y-53826884D01*
X166037500Y-53897375D01*
X165867009Y-53726884D01*
X165853905Y-53716829D01*
X165759832Y-53662516D01*
X165875931Y-53463037D01*
X165880500Y-53453392D01*
X165966432Y-53223555D01*
X165969311Y-53213279D01*
X166015347Y-52971952D01*
X166016462Y-52960729D01*
X166019078Y-52688219D01*
X166018179Y-52676977D01*
X165976785Y-52434811D01*
X165974104Y-52424481D01*
X165892600Y-52193037D01*
X165888216Y-52183306D01*
X165768881Y-51968904D01*
X165762921Y-51960052D01*
X165622981Y-51786000D01*
X169409786Y-51786000D01*
X171339001Y-53715217D01*
G36*
X159217939Y-66786920D02*
G01*
X159336738Y-66775062D01*
X159423954Y-66643791D01*
X159429309Y-66633928D01*
X159439001Y-66611532D01*
X159439000Y-69084783D01*
X157533008Y-70990777D01*
X157383764Y-71140021D01*
X157372107Y-71156066D01*
X157349137Y-71201145D01*
X157319392Y-71242086D01*
X157310388Y-71259758D01*
X157294752Y-71307883D01*
X157271782Y-71352961D01*
X157265653Y-71371824D01*
X157257738Y-71421802D01*
X157242102Y-71469923D01*
X157239000Y-71489512D01*
X157239000Y-71550027D01*
X157238999Y-78889183D01*
X157208165Y-78897445D01*
X157192905Y-78903766D01*
X156971095Y-79031828D01*
X156957991Y-79041883D01*
X156776884Y-79222990D01*
X156766829Y-79236094D01*
X156638767Y-79457904D01*
X156632446Y-79473164D01*
X156566156Y-79720561D01*
X156564000Y-79736937D01*
X156564000Y-79993061D01*
X156566156Y-80009437D01*
X156632446Y-80256834D01*
X156638767Y-80272094D01*
X156766829Y-80493904D01*
X156776884Y-80507008D01*
X156957991Y-80688115D01*
X156971095Y-80698170D01*
X157192905Y-80826232D01*
X157208165Y-80832553D01*
X157455562Y-80898843D01*
X157471938Y-80900999D01*
X157728062Y-80900999D01*
X157744438Y-80898843D01*
X157939000Y-80846710D01*
X157939000Y-82055178D01*
X157939001Y-82055190D01*
X157939001Y-82110489D01*
X157942103Y-82130077D01*
X157957737Y-82178192D01*
X157964302Y-82219642D01*
X157964000Y-82221937D01*
X157964000Y-82478062D01*
X157966156Y-82494438D01*
X158032446Y-82741835D01*
X158038767Y-82757095D01*
X158166829Y-82978905D01*
X158176884Y-82992009D01*
X158357991Y-83173116D01*
X158371095Y-83183171D01*
X158592905Y-83311233D01*
X158608165Y-83317554D01*
X158855562Y-83383844D01*
X158871938Y-83386000D01*
X159128062Y-83386000D01*
X159144438Y-83383844D01*
X159168332Y-83377442D01*
X159166156Y-83385562D01*
X159164000Y-83401937D01*
X159164000Y-83658062D01*
X159166156Y-83674438D01*
X159232446Y-83921835D01*
X159238767Y-83937095D01*
X159366829Y-84158905D01*
X159376884Y-84172009D01*
X159557991Y-84353116D01*
X159571095Y-84363171D01*
X159792905Y-84491233D01*
X159808165Y-84497554D01*
X160055562Y-84563844D01*
X160071938Y-84566000D01*
X160328062Y-84566000D01*
X160344438Y-84563844D01*
X160591835Y-84497554D01*
X160607095Y-84491233D01*
X160828905Y-84363171D01*
X160842009Y-84353116D01*
X161023116Y-84172009D01*
X161033171Y-84158905D01*
X161161233Y-83937095D01*
X161167554Y-83921835D01*
X161233844Y-83674438D01*
X161236000Y-83658062D01*
X161236000Y-83401938D01*
X161233844Y-83385562D01*
X161167554Y-83138165D01*
X161161233Y-83122905D01*
X161033171Y-82901095D01*
X161023116Y-82887991D01*
X160952379Y-82817255D01*
X160942264Y-82786123D01*
X160934347Y-82736138D01*
X160928218Y-82717277D01*
X160905247Y-82672194D01*
X160889610Y-82624069D01*
X160880606Y-82606397D01*
X160850864Y-82565462D01*
X160827894Y-82520381D01*
X160816236Y-82504335D01*
X160661000Y-82349099D01*
X160661000Y-81892813D01*
X160692905Y-81911233D01*
X160708165Y-81917554D01*
X160955562Y-81983844D01*
X160971938Y-81986000D01*
X161228062Y-81986000D01*
X161244438Y-81983844D01*
X161491835Y-81917554D01*
X161507095Y-81911233D01*
X161728905Y-81783171D01*
X161742009Y-81773116D01*
X161923116Y-81592009D01*
X161933171Y-81578905D01*
X162061233Y-81357095D01*
X162067554Y-81341835D01*
X162133844Y-81094438D01*
X162136000Y-81078062D01*
X162136000Y-80821938D01*
X162133844Y-80805562D01*
X162067554Y-80558165D01*
X162061233Y-80542905D01*
X161933171Y-80321095D01*
X161923116Y-80307991D01*
X161861000Y-80245876D01*
X161861000Y-74852813D01*
X161892905Y-74871233D01*
X161908165Y-74877554D01*
X162155562Y-74943844D01*
X162171938Y-74946000D01*
X162428062Y-74946000D01*
X162444438Y-74943844D01*
X162691835Y-74877554D01*
X162707095Y-74871233D01*
X162928905Y-74743171D01*
X162942009Y-74733116D01*
X163123116Y-74552009D01*
X163133171Y-74538905D01*
X163261233Y-74317095D01*
X163267554Y-74301835D01*
X163333844Y-74054438D01*
X163336000Y-74038062D01*
X163336000Y-73950215D01*
X163571208Y-73715008D01*
X163566959Y-73739103D01*
X163566000Y-73750064D01*
X163566000Y-73989936D01*
X163566959Y-74000897D01*
X163608613Y-74237126D01*
X163611460Y-74247753D01*
X163693502Y-74473160D01*
X163698152Y-74483132D01*
X163818088Y-74690868D01*
X163824399Y-74699881D01*
X163978587Y-74883634D01*
X163986366Y-74891413D01*
X164170119Y-75045601D01*
X164179132Y-75051912D01*
X164331705Y-75140000D01*
X164179132Y-75228088D01*
X164170119Y-75234399D01*
X163986366Y-75388587D01*
X163978587Y-75396366D01*
X163824399Y-75580119D01*
X163818088Y-75589132D01*
X163698152Y-75796868D01*
X163693502Y-75806840D01*
X163611460Y-76032247D01*
X163608613Y-76042874D01*
X163566959Y-76279103D01*
X163566000Y-76290064D01*
X163566000Y-76529936D01*
X163566959Y-76540897D01*
X163608613Y-76777126D01*
X163611460Y-76787753D01*
X163693502Y-77013160D01*
X163698152Y-77023132D01*
X163818088Y-77230868D01*
X163824399Y-77239881D01*
X163978587Y-77423634D01*
X163986366Y-77431413D01*
X164170119Y-77585601D01*
X164179132Y-77591912D01*
X164331705Y-77680000D01*
X164179132Y-77768088D01*
X164170119Y-77774399D01*
X163986366Y-77928587D01*
X163978587Y-77936366D01*
X163824399Y-78120119D01*
X163818088Y-78129132D01*
X163698152Y-78336868D01*
X163693502Y-78346840D01*
X163611460Y-78572247D01*
X163608613Y-78582874D01*
X163566959Y-78819103D01*
X163566000Y-78830064D01*
X163566000Y-79069936D01*
X163566959Y-79080897D01*
X163608613Y-79317126D01*
X163611460Y-79327753D01*
X163693502Y-79553160D01*
X163698152Y-79563132D01*
X163818088Y-79770868D01*
X163824399Y-79779881D01*
X163978587Y-79963634D01*
X163986366Y-79971413D01*
X164170119Y-80125601D01*
X164179132Y-80131912D01*
X164331705Y-80220000D01*
X164179132Y-80308088D01*
X164170119Y-80314399D01*
X163986366Y-80468587D01*
X163978587Y-80476366D01*
X163824399Y-80660119D01*
X163818088Y-80669132D01*
X163698152Y-80876868D01*
X163693502Y-80886840D01*
X163611460Y-81112247D01*
X163608613Y-81122874D01*
X163566959Y-81359103D01*
X163566000Y-81370064D01*
X163566000Y-81609936D01*
X163566959Y-81620897D01*
X163608613Y-81857126D01*
X163611460Y-81867753D01*
X163693502Y-82093160D01*
X163698152Y-82103132D01*
X163818088Y-82310868D01*
X163824399Y-82319881D01*
X163978587Y-82503634D01*
X163986366Y-82511413D01*
X164170119Y-82665601D01*
X164179132Y-82671912D01*
X164331705Y-82760000D01*
X164179132Y-82848088D01*
X164170119Y-82854399D01*
X163986366Y-83008587D01*
X163978587Y-83016366D01*
X163824399Y-83200119D01*
X163818088Y-83209132D01*
X163698152Y-83416868D01*
X163693502Y-83426840D01*
X163611460Y-83652247D01*
X163608613Y-83662874D01*
X163566959Y-83899103D01*
X163566000Y-83910064D01*
X163566000Y-84149936D01*
X163566959Y-84160897D01*
X163608613Y-84397126D01*
X163611460Y-84407753D01*
X163693502Y-84633160D01*
X163698152Y-84643132D01*
X163818088Y-84850868D01*
X163824399Y-84859881D01*
X163978587Y-85043634D01*
X163986366Y-85051413D01*
X164170119Y-85205601D01*
X164179132Y-85211912D01*
X164331705Y-85300000D01*
X164179132Y-85388088D01*
X164170119Y-85394399D01*
X163986366Y-85548587D01*
X163978587Y-85556366D01*
X163824399Y-85740119D01*
X163818088Y-85749132D01*
X163698152Y-85956868D01*
X163693502Y-85966840D01*
X163611460Y-86192247D01*
X163608613Y-86202874D01*
X163566959Y-86439103D01*
X163566000Y-86450064D01*
X163566000Y-86689936D01*
X163566959Y-86700897D01*
X163608613Y-86937126D01*
X163611460Y-86947753D01*
X163693502Y-87173160D01*
X163698152Y-87183132D01*
X163818088Y-87390868D01*
X163824399Y-87399881D01*
X163978587Y-87583634D01*
X163986366Y-87591413D01*
X164170119Y-87745601D01*
X164179132Y-87751912D01*
X164331705Y-87840000D01*
X164179132Y-87928088D01*
X164170119Y-87934399D01*
X163986366Y-88088587D01*
X163978587Y-88096366D01*
X163824399Y-88280119D01*
X163818088Y-88289132D01*
X163698152Y-88496868D01*
X163693502Y-88506840D01*
X163611460Y-88732247D01*
X163608613Y-88742874D01*
X163582320Y-88891982D01*
X163657854Y-88982000D01*
X166342146Y-88982000D01*
X166417680Y-88891982D01*
X166391387Y-88742874D01*
X166388540Y-88732247D01*
X166306498Y-88506840D01*
X166301848Y-88496868D01*
X166181912Y-88289132D01*
X166175601Y-88280119D01*
X166021413Y-88096366D01*
X166013634Y-88088587D01*
X165829881Y-87934399D01*
X165820868Y-87928088D01*
X165668295Y-87840000D01*
X165820868Y-87751912D01*
X165829881Y-87745601D01*
X166013634Y-87591413D01*
X166021413Y-87583634D01*
X166175601Y-87399881D01*
X166181912Y-87390868D01*
X166301848Y-87183132D01*
X166306498Y-87173160D01*
X166388540Y-86947753D01*
X166391387Y-86937126D01*
X166433041Y-86700897D01*
X166434000Y-86689936D01*
X166434000Y-86450064D01*
X166433041Y-86439103D01*
X166391387Y-86202874D01*
X166388540Y-86192247D01*
X166306498Y-85966840D01*
X166301848Y-85956868D01*
X166181912Y-85749132D01*
X166175601Y-85740119D01*
X166021413Y-85556366D01*
X166013634Y-85548587D01*
X165829881Y-85394399D01*
X165820868Y-85388088D01*
X165668295Y-85300000D01*
X165820868Y-85211912D01*
X165829881Y-85205601D01*
X166013634Y-85051413D01*
X166021413Y-85043634D01*
X166175601Y-84859881D01*
X166181912Y-84850868D01*
X166301848Y-84643132D01*
X166306498Y-84633160D01*
X166388540Y-84407753D01*
X166391387Y-84397126D01*
X166433041Y-84160897D01*
X166434000Y-84149936D01*
X166434000Y-83910064D01*
X166433041Y-83899103D01*
X166391387Y-83662874D01*
X166388540Y-83652247D01*
X166306498Y-83426840D01*
X166301848Y-83416868D01*
X166181912Y-83209132D01*
X166175601Y-83200119D01*
X166021413Y-83016366D01*
X166013634Y-83008587D01*
X165829881Y-82854399D01*
X165820868Y-82848088D01*
X165668295Y-82760000D01*
X165820868Y-82671912D01*
X165829881Y-82665601D01*
X166013634Y-82511413D01*
X166021413Y-82503634D01*
X166175601Y-82319881D01*
X166181912Y-82310868D01*
X166301848Y-82103132D01*
X166306498Y-82093160D01*
X166388540Y-81867753D01*
X166391387Y-81857126D01*
X166433041Y-81620897D01*
X166434000Y-81609936D01*
X166434000Y-81370064D01*
X166433041Y-81359103D01*
X166391387Y-81122874D01*
X166388540Y-81112247D01*
X166306498Y-80886840D01*
X166301848Y-80876868D01*
X166181912Y-80669132D01*
X166175601Y-80660119D01*
X166021413Y-80476366D01*
X166013634Y-80468587D01*
X165829881Y-80314399D01*
X165820868Y-80308088D01*
X165668295Y-80220000D01*
X165820868Y-80131912D01*
X165829881Y-80125601D01*
X166013634Y-79971413D01*
X166021413Y-79963634D01*
X166175601Y-79779881D01*
X166181912Y-79770868D01*
X166301848Y-79563132D01*
X166306498Y-79553160D01*
X166388540Y-79327753D01*
X166391387Y-79317126D01*
X166433041Y-79080897D01*
X166434000Y-79069936D01*
X166434000Y-78830064D01*
X166433041Y-78819103D01*
X166399175Y-78627040D01*
X166826945Y-78199271D01*
X166833375Y-78191743D01*
X166839000Y-78184000D01*
X166839001Y-92184783D01*
X163940197Y-95083589D01*
X163940190Y-95083594D01*
X163783763Y-95240022D01*
X163772106Y-95256067D01*
X163749138Y-95301145D01*
X163719394Y-95342083D01*
X163710390Y-95359755D01*
X163694753Y-95407880D01*
X163671782Y-95452963D01*
X163665653Y-95471824D01*
X163657736Y-95521809D01*
X163642103Y-95569923D01*
X163639001Y-95589511D01*
X163639001Y-95644810D01*
X163639000Y-95644822D01*
X163639000Y-97673789D01*
X163467753Y-97611460D01*
X163457126Y-97608613D01*
X163220897Y-97566959D01*
X163209936Y-97566000D01*
X162970064Y-97566000D01*
X162959103Y-97566959D01*
X162767040Y-97600825D01*
X162116410Y-96950195D01*
X162116407Y-96950191D01*
X161959980Y-96793764D01*
X161943934Y-96782106D01*
X161898847Y-96759133D01*
X161857916Y-96729394D01*
X161840244Y-96720389D01*
X161792126Y-96704755D01*
X161747039Y-96681782D01*
X161728176Y-96675653D01*
X161678193Y-96667737D01*
X161630078Y-96652103D01*
X161610489Y-96649001D01*
X161555191Y-96649001D01*
X161555179Y-96649000D01*
X157525216Y-96649000D01*
X155441000Y-94564786D01*
X155441000Y-89328018D01*
X163582320Y-89328018D01*
X163608613Y-89477126D01*
X163611460Y-89487753D01*
X163693502Y-89713160D01*
X163698152Y-89723132D01*
X163818088Y-89930868D01*
X163824399Y-89939881D01*
X163978587Y-90123634D01*
X163986366Y-90131413D01*
X164170119Y-90285601D01*
X164179132Y-90291912D01*
X164386868Y-90411848D01*
X164396840Y-90416498D01*
X164622247Y-90498540D01*
X164632874Y-90501387D01*
X164781982Y-90527680D01*
X164872000Y-90452146D01*
X164872000Y-89311809D01*
X165128000Y-89311809D01*
X165128000Y-90452146D01*
X165218018Y-90527680D01*
X165367126Y-90501387D01*
X165377753Y-90498540D01*
X165603160Y-90416498D01*
X165613132Y-90411848D01*
X165820868Y-90291912D01*
X165829881Y-90285601D01*
X166013634Y-90131413D01*
X166021413Y-90123634D01*
X166175601Y-89939881D01*
X166181912Y-89930868D01*
X166301848Y-89723132D01*
X166306498Y-89713160D01*
X166388540Y-89487753D01*
X166391387Y-89477126D01*
X166417680Y-89328018D01*
X166342146Y-89238000D01*
X165201809Y-89238000D01*
X165128000Y-89311809D01*
X164872000Y-89311809D01*
X164798191Y-89238000D01*
X163657854Y-89238000D01*
X163582320Y-89328018D01*
X155441000Y-89328018D01*
X155441000Y-73925215D01*
X155445216Y-73921000D01*
X155765179Y-73921000D01*
X155765191Y-73920999D01*
X155820489Y-73920999D01*
X155840078Y-73917897D01*
X155888193Y-73902263D01*
X155938176Y-73894347D01*
X155957039Y-73888218D01*
X156002126Y-73865245D01*
X156050244Y-73849611D01*
X156067916Y-73840606D01*
X156108847Y-73810867D01*
X156153934Y-73787894D01*
X156169980Y-73776236D01*
X156326407Y-73619809D01*
X156326410Y-73619805D01*
X156953444Y-72992772D01*
X156996236Y-72949980D01*
X157007894Y-72933934D01*
X157030865Y-72888852D01*
X157060606Y-72847917D01*
X157069610Y-72830245D01*
X157085243Y-72782129D01*
X157108218Y-72737040D01*
X157114347Y-72718177D01*
X157122263Y-72668194D01*
X157137896Y-72620079D01*
X157140999Y-72600491D01*
X157140999Y-72545191D01*
X157141000Y-72545179D01*
X157141000Y-69042385D01*
X157140999Y-69042373D01*
X157140999Y-68987073D01*
X157137897Y-68967484D01*
X157122263Y-68919369D01*
X157114346Y-68869387D01*
X157108218Y-68850525D01*
X157085245Y-68805437D01*
X157069610Y-68757318D01*
X157060606Y-68739648D01*
X157030866Y-68698714D01*
X157007894Y-68653630D01*
X156996236Y-68637584D01*
X156956619Y-68597968D01*
X156956606Y-68597953D01*
X156617218Y-68258566D01*
X156617218Y-68170720D01*
X156615062Y-68154344D01*
X156548772Y-67906947D01*
X156542451Y-67891687D01*
X156414389Y-67669877D01*
X156404334Y-67656773D01*
X156223227Y-67475666D01*
X156210123Y-67465611D01*
X155988313Y-67337549D01*
X155973053Y-67331228D01*
X155939160Y-67322146D01*
X155988474Y-67317485D01*
X155999509Y-67315440D01*
X156218012Y-67254432D01*
X156228510Y-67250465D01*
X156432756Y-67151729D01*
X156442386Y-67145966D01*
X156625920Y-67012621D01*
X156634377Y-67005243D01*
X156670224Y-66967862D01*
X157463157Y-66967862D01*
X157472945Y-67084426D01*
X157569652Y-67153153D01*
X157579342Y-67158816D01*
X157784610Y-67255408D01*
X157795150Y-67259265D01*
X158014279Y-67317980D01*
X158025335Y-67319910D01*
X158251399Y-67338893D01*
X158262622Y-67338834D01*
X158488474Y-67317485D01*
X158499509Y-67315440D01*
X158718012Y-67254432D01*
X158728510Y-67250465D01*
X158932756Y-67151729D01*
X158942386Y-67145965D01*
X159027892Y-67083841D01*
X159037007Y-66968026D01*
X158302191Y-66233210D01*
X158197809Y-66233210D01*
X157463157Y-66967862D01*
X156670224Y-66967862D01*
X156791396Y-66841506D01*
X156798413Y-66832747D01*
X156923955Y-66643790D01*
X156929309Y-66633928D01*
X156999596Y-66471507D01*
X157077393Y-66646242D01*
X157082851Y-66656049D01*
X157164126Y-66775640D01*
X157282181Y-66786800D01*
X158250000Y-65818980D01*
X159217939Y-66786920D01*
G37*
X159217939Y-66786920D02*
X159336738Y-66775062D01*
X159423954Y-66643791D01*
X159429309Y-66633928D01*
X159439001Y-66611532D01*
X159439000Y-69084783D01*
X157533008Y-70990777D01*
X157383764Y-71140021D01*
X157372107Y-71156066D01*
X157349137Y-71201145D01*
X157319392Y-71242086D01*
X157310388Y-71259758D01*
X157294752Y-71307883D01*
X157271782Y-71352961D01*
X157265653Y-71371824D01*
X157257738Y-71421802D01*
X157242102Y-71469923D01*
X157239000Y-71489512D01*
X157239000Y-71550027D01*
X157238999Y-78889183D01*
X157208165Y-78897445D01*
X157192905Y-78903766D01*
X156971095Y-79031828D01*
X156957991Y-79041883D01*
X156776884Y-79222990D01*
X156766829Y-79236094D01*
X156638767Y-79457904D01*
X156632446Y-79473164D01*
X156566156Y-79720561D01*
X156564000Y-79736937D01*
X156564000Y-79993061D01*
X156566156Y-80009437D01*
X156632446Y-80256834D01*
X156638767Y-80272094D01*
X156766829Y-80493904D01*
X156776884Y-80507008D01*
X156957991Y-80688115D01*
X156971095Y-80698170D01*
X157192905Y-80826232D01*
X157208165Y-80832553D01*
X157455562Y-80898843D01*
X157471938Y-80900999D01*
X157728062Y-80900999D01*
X157744438Y-80898843D01*
X157939000Y-80846710D01*
X157939000Y-82055178D01*
X157939001Y-82055190D01*
X157939001Y-82110489D01*
X157942103Y-82130077D01*
X157957737Y-82178192D01*
X157964302Y-82219642D01*
X157964000Y-82221937D01*
X157964000Y-82478062D01*
X157966156Y-82494438D01*
X158032446Y-82741835D01*
X158038767Y-82757095D01*
X158166829Y-82978905D01*
X158176884Y-82992009D01*
X158357991Y-83173116D01*
X158371095Y-83183171D01*
X158592905Y-83311233D01*
X158608165Y-83317554D01*
X158855562Y-83383844D01*
X158871938Y-83386000D01*
X159128062Y-83386000D01*
X159144438Y-83383844D01*
X159168332Y-83377442D01*
X159166156Y-83385562D01*
X159164000Y-83401937D01*
X159164000Y-83658062D01*
X159166156Y-83674438D01*
X159232446Y-83921835D01*
X159238767Y-83937095D01*
X159366829Y-84158905D01*
X159376884Y-84172009D01*
X159557991Y-84353116D01*
X159571095Y-84363171D01*
X159792905Y-84491233D01*
X159808165Y-84497554D01*
X160055562Y-84563844D01*
X160071938Y-84566000D01*
X160328062Y-84566000D01*
X160344438Y-84563844D01*
X160591835Y-84497554D01*
X160607095Y-84491233D01*
X160828905Y-84363171D01*
X160842009Y-84353116D01*
X161023116Y-84172009D01*
X161033171Y-84158905D01*
X161161233Y-83937095D01*
X161167554Y-83921835D01*
X161233844Y-83674438D01*
X161236000Y-83658062D01*
X161236000Y-83401938D01*
X161233844Y-83385562D01*
X161167554Y-83138165D01*
X161161233Y-83122905D01*
X161033171Y-82901095D01*
X161023116Y-82887991D01*
X160952379Y-82817255D01*
X160942264Y-82786123D01*
X160934347Y-82736138D01*
X160928218Y-82717277D01*
X160905247Y-82672194D01*
X160889610Y-82624069D01*
X160880606Y-82606397D01*
X160850864Y-82565462D01*
X160827894Y-82520381D01*
X160816236Y-82504335D01*
X160661000Y-82349099D01*
X160661000Y-81892813D01*
X160692905Y-81911233D01*
X160708165Y-81917554D01*
X160955562Y-81983844D01*
X160971938Y-81986000D01*
X161228062Y-81986000D01*
X161244438Y-81983844D01*
X161491835Y-81917554D01*
X161507095Y-81911233D01*
X161728905Y-81783171D01*
X161742009Y-81773116D01*
X161923116Y-81592009D01*
X161933171Y-81578905D01*
X162061233Y-81357095D01*
X162067554Y-81341835D01*
X162133844Y-81094438D01*
X162136000Y-81078062D01*
X162136000Y-80821938D01*
X162133844Y-80805562D01*
X162067554Y-80558165D01*
X162061233Y-80542905D01*
X161933171Y-80321095D01*
X161923116Y-80307991D01*
X161861000Y-80245876D01*
X161861000Y-74852813D01*
X161892905Y-74871233D01*
X161908165Y-74877554D01*
X162155562Y-74943844D01*
X162171938Y-74946000D01*
X162428062Y-74946000D01*
X162444438Y-74943844D01*
X162691835Y-74877554D01*
X162707095Y-74871233D01*
X162928905Y-74743171D01*
X162942009Y-74733116D01*
X163123116Y-74552009D01*
X163133171Y-74538905D01*
X163261233Y-74317095D01*
X163267554Y-74301835D01*
X163333844Y-74054438D01*
X163336000Y-74038062D01*
X163336000Y-73950215D01*
X163571208Y-73715008D01*
X163566959Y-73739103D01*
X163566000Y-73750064D01*
X163566000Y-73989936D01*
X163566959Y-74000897D01*
X163608613Y-74237126D01*
X163611460Y-74247753D01*
X163693502Y-74473160D01*
X163698152Y-74483132D01*
X163818088Y-74690868D01*
X163824399Y-74699881D01*
X163978587Y-74883634D01*
X163986366Y-74891413D01*
X164170119Y-75045601D01*
X164179132Y-75051912D01*
X164331705Y-75140000D01*
X164179132Y-75228088D01*
X164170119Y-75234399D01*
X163986366Y-75388587D01*
X163978587Y-75396366D01*
X163824399Y-75580119D01*
X163818088Y-75589132D01*
X163698152Y-75796868D01*
X163693502Y-75806840D01*
X163611460Y-76032247D01*
X163608613Y-76042874D01*
X163566959Y-76279103D01*
X163566000Y-76290064D01*
X163566000Y-76529936D01*
X163566959Y-76540897D01*
X163608613Y-76777126D01*
X163611460Y-76787753D01*
X163693502Y-77013160D01*
X163698152Y-77023132D01*
X163818088Y-77230868D01*
X163824399Y-77239881D01*
X163978587Y-77423634D01*
X163986366Y-77431413D01*
X164170119Y-77585601D01*
X164179132Y-77591912D01*
X164331705Y-77680000D01*
X164179132Y-77768088D01*
X164170119Y-77774399D01*
X163986366Y-77928587D01*
X163978587Y-77936366D01*
X163824399Y-78120119D01*
X163818088Y-78129132D01*
X163698152Y-78336868D01*
X163693502Y-78346840D01*
X163611460Y-78572247D01*
X163608613Y-78582874D01*
X163566959Y-78819103D01*
X163566000Y-78830064D01*
X163566000Y-79069936D01*
X163566959Y-79080897D01*
X163608613Y-79317126D01*
X163611460Y-79327753D01*
X163693502Y-79553160D01*
X163698152Y-79563132D01*
X163818088Y-79770868D01*
X163824399Y-79779881D01*
X163978587Y-79963634D01*
X163986366Y-79971413D01*
X164170119Y-80125601D01*
X164179132Y-80131912D01*
X164331705Y-80220000D01*
X164179132Y-80308088D01*
X164170119Y-80314399D01*
X163986366Y-80468587D01*
X163978587Y-80476366D01*
X163824399Y-80660119D01*
X163818088Y-80669132D01*
X163698152Y-80876868D01*
X163693502Y-80886840D01*
X163611460Y-81112247D01*
X163608613Y-81122874D01*
X163566959Y-81359103D01*
X163566000Y-81370064D01*
X163566000Y-81609936D01*
X163566959Y-81620897D01*
X163608613Y-81857126D01*
X163611460Y-81867753D01*
X163693502Y-82093160D01*
X163698152Y-82103132D01*
X163818088Y-82310868D01*
X163824399Y-82319881D01*
X163978587Y-82503634D01*
X163986366Y-82511413D01*
X164170119Y-82665601D01*
X164179132Y-82671912D01*
X164331705Y-82760000D01*
X164179132Y-82848088D01*
X164170119Y-82854399D01*
X163986366Y-83008587D01*
X163978587Y-83016366D01*
X163824399Y-83200119D01*
X163818088Y-83209132D01*
X163698152Y-83416868D01*
X163693502Y-83426840D01*
X163611460Y-83652247D01*
X163608613Y-83662874D01*
X163566959Y-83899103D01*
X163566000Y-83910064D01*
X163566000Y-84149936D01*
X163566959Y-84160897D01*
X163608613Y-84397126D01*
X163611460Y-84407753D01*
X163693502Y-84633160D01*
X163698152Y-84643132D01*
X163818088Y-84850868D01*
X163824399Y-84859881D01*
X163978587Y-85043634D01*
X163986366Y-85051413D01*
X164170119Y-85205601D01*
X164179132Y-85211912D01*
X164331705Y-85300000D01*
X164179132Y-85388088D01*
X164170119Y-85394399D01*
X163986366Y-85548587D01*
X163978587Y-85556366D01*
X163824399Y-85740119D01*
X163818088Y-85749132D01*
X163698152Y-85956868D01*
X163693502Y-85966840D01*
X163611460Y-86192247D01*
X163608613Y-86202874D01*
X163566959Y-86439103D01*
X163566000Y-86450064D01*
X163566000Y-86689936D01*
X163566959Y-86700897D01*
X163608613Y-86937126D01*
X163611460Y-86947753D01*
X163693502Y-87173160D01*
X163698152Y-87183132D01*
X163818088Y-87390868D01*
X163824399Y-87399881D01*
X163978587Y-87583634D01*
X163986366Y-87591413D01*
X164170119Y-87745601D01*
X164179132Y-87751912D01*
X164331705Y-87840000D01*
X164179132Y-87928088D01*
X164170119Y-87934399D01*
X163986366Y-88088587D01*
X163978587Y-88096366D01*
X163824399Y-88280119D01*
X163818088Y-88289132D01*
X163698152Y-88496868D01*
X163693502Y-88506840D01*
X163611460Y-88732247D01*
X163608613Y-88742874D01*
X163582320Y-88891982D01*
X163657854Y-88982000D01*
X166342146Y-88982000D01*
X166417680Y-88891982D01*
X166391387Y-88742874D01*
X166388540Y-88732247D01*
X166306498Y-88506840D01*
X166301848Y-88496868D01*
X166181912Y-88289132D01*
X166175601Y-88280119D01*
X166021413Y-88096366D01*
X166013634Y-88088587D01*
X165829881Y-87934399D01*
X165820868Y-87928088D01*
X165668295Y-87840000D01*
X165820868Y-87751912D01*
X165829881Y-87745601D01*
X166013634Y-87591413D01*
X166021413Y-87583634D01*
X166175601Y-87399881D01*
X166181912Y-87390868D01*
X166301848Y-87183132D01*
X166306498Y-87173160D01*
X166388540Y-86947753D01*
X166391387Y-86937126D01*
X166433041Y-86700897D01*
X166434000Y-86689936D01*
X166434000Y-86450064D01*
X166433041Y-86439103D01*
X166391387Y-86202874D01*
X166388540Y-86192247D01*
X166306498Y-85966840D01*
X166301848Y-85956868D01*
X166181912Y-85749132D01*
X166175601Y-85740119D01*
X166021413Y-85556366D01*
X166013634Y-85548587D01*
X165829881Y-85394399D01*
X165820868Y-85388088D01*
X165668295Y-85300000D01*
X165820868Y-85211912D01*
X165829881Y-85205601D01*
X166013634Y-85051413D01*
X166021413Y-85043634D01*
X166175601Y-84859881D01*
X166181912Y-84850868D01*
X166301848Y-84643132D01*
X166306498Y-84633160D01*
X166388540Y-84407753D01*
X166391387Y-84397126D01*
X166433041Y-84160897D01*
X166434000Y-84149936D01*
X166434000Y-83910064D01*
X166433041Y-83899103D01*
X166391387Y-83662874D01*
X166388540Y-83652247D01*
X166306498Y-83426840D01*
X166301848Y-83416868D01*
X166181912Y-83209132D01*
X166175601Y-83200119D01*
X166021413Y-83016366D01*
X166013634Y-83008587D01*
X165829881Y-82854399D01*
X165820868Y-82848088D01*
X165668295Y-82760000D01*
X165820868Y-82671912D01*
X165829881Y-82665601D01*
X166013634Y-82511413D01*
X166021413Y-82503634D01*
X166175601Y-82319881D01*
X166181912Y-82310868D01*
X166301848Y-82103132D01*
X166306498Y-82093160D01*
X166388540Y-81867753D01*
X166391387Y-81857126D01*
X166433041Y-81620897D01*
X166434000Y-81609936D01*
X166434000Y-81370064D01*
X166433041Y-81359103D01*
X166391387Y-81122874D01*
X166388540Y-81112247D01*
X166306498Y-80886840D01*
X166301848Y-80876868D01*
X166181912Y-80669132D01*
X166175601Y-80660119D01*
X166021413Y-80476366D01*
X166013634Y-80468587D01*
X165829881Y-80314399D01*
X165820868Y-80308088D01*
X165668295Y-80220000D01*
X165820868Y-80131912D01*
X165829881Y-80125601D01*
X166013634Y-79971413D01*
X166021413Y-79963634D01*
X166175601Y-79779881D01*
X166181912Y-79770868D01*
X166301848Y-79563132D01*
X166306498Y-79553160D01*
X166388540Y-79327753D01*
X166391387Y-79317126D01*
X166433041Y-79080897D01*
X166434000Y-79069936D01*
X166434000Y-78830064D01*
X166433041Y-78819103D01*
X166399175Y-78627040D01*
X166826945Y-78199271D01*
X166833375Y-78191743D01*
X166839000Y-78184000D01*
X166839001Y-92184783D01*
X163940197Y-95083589D01*
X163940190Y-95083594D01*
X163783763Y-95240022D01*
X163772106Y-95256067D01*
X163749138Y-95301145D01*
X163719394Y-95342083D01*
X163710390Y-95359755D01*
X163694753Y-95407880D01*
X163671782Y-95452963D01*
X163665653Y-95471824D01*
X163657736Y-95521809D01*
X163642103Y-95569923D01*
X163639001Y-95589511D01*
X163639001Y-95644810D01*
X163639000Y-95644822D01*
X163639000Y-97673789D01*
X163467753Y-97611460D01*
X163457126Y-97608613D01*
X163220897Y-97566959D01*
X163209936Y-97566000D01*
X162970064Y-97566000D01*
X162959103Y-97566959D01*
X162767040Y-97600825D01*
X162116410Y-96950195D01*
X162116407Y-96950191D01*
X161959980Y-96793764D01*
X161943934Y-96782106D01*
X161898847Y-96759133D01*
X161857916Y-96729394D01*
X161840244Y-96720389D01*
X161792126Y-96704755D01*
X161747039Y-96681782D01*
X161728176Y-96675653D01*
X161678193Y-96667737D01*
X161630078Y-96652103D01*
X161610489Y-96649001D01*
X161555191Y-96649001D01*
X161555179Y-96649000D01*
X157525216Y-96649000D01*
X155441000Y-94564786D01*
X155441000Y-89328018D01*
X163582320Y-89328018D01*
X163608613Y-89477126D01*
X163611460Y-89487753D01*
X163693502Y-89713160D01*
X163698152Y-89723132D01*
X163818088Y-89930868D01*
X163824399Y-89939881D01*
X163978587Y-90123634D01*
X163986366Y-90131413D01*
X164170119Y-90285601D01*
X164179132Y-90291912D01*
X164386868Y-90411848D01*
X164396840Y-90416498D01*
X164622247Y-90498540D01*
X164632874Y-90501387D01*
X164781982Y-90527680D01*
X164872000Y-90452146D01*
X164872000Y-89311809D01*
X165128000Y-89311809D01*
X165128000Y-90452146D01*
X165218018Y-90527680D01*
X165367126Y-90501387D01*
X165377753Y-90498540D01*
X165603160Y-90416498D01*
X165613132Y-90411848D01*
X165820868Y-90291912D01*
X165829881Y-90285601D01*
X166013634Y-90131413D01*
X166021413Y-90123634D01*
X166175601Y-89939881D01*
X166181912Y-89930868D01*
X166301848Y-89723132D01*
X166306498Y-89713160D01*
X166388540Y-89487753D01*
X166391387Y-89477126D01*
X166417680Y-89328018D01*
X166342146Y-89238000D01*
X165201809Y-89238000D01*
X165128000Y-89311809D01*
X164872000Y-89311809D01*
X164798191Y-89238000D01*
X163657854Y-89238000D01*
X163582320Y-89328018D01*
X155441000Y-89328018D01*
X155441000Y-73925215D01*
X155445216Y-73921000D01*
X155765179Y-73921000D01*
X155765191Y-73920999D01*
X155820489Y-73920999D01*
X155840078Y-73917897D01*
X155888193Y-73902263D01*
X155938176Y-73894347D01*
X155957039Y-73888218D01*
X156002126Y-73865245D01*
X156050244Y-73849611D01*
X156067916Y-73840606D01*
X156108847Y-73810867D01*
X156153934Y-73787894D01*
X156169980Y-73776236D01*
X156326407Y-73619809D01*
X156326410Y-73619805D01*
X156953444Y-72992772D01*
X156996236Y-72949980D01*
X157007894Y-72933934D01*
X157030865Y-72888852D01*
X157060606Y-72847917D01*
X157069610Y-72830245D01*
X157085243Y-72782129D01*
X157108218Y-72737040D01*
X157114347Y-72718177D01*
X157122263Y-72668194D01*
X157137896Y-72620079D01*
X157140999Y-72600491D01*
X157140999Y-72545191D01*
X157141000Y-72545179D01*
X157141000Y-69042385D01*
X157140999Y-69042373D01*
X157140999Y-68987073D01*
X157137897Y-68967484D01*
X157122263Y-68919369D01*
X157114346Y-68869387D01*
X157108218Y-68850525D01*
X157085245Y-68805437D01*
X157069610Y-68757318D01*
X157060606Y-68739648D01*
X157030866Y-68698714D01*
X157007894Y-68653630D01*
X156996236Y-68637584D01*
X156956619Y-68597968D01*
X156956606Y-68597953D01*
X156617218Y-68258566D01*
X156617218Y-68170720D01*
X156615062Y-68154344D01*
X156548772Y-67906947D01*
X156542451Y-67891687D01*
X156414389Y-67669877D01*
X156404334Y-67656773D01*
X156223227Y-67475666D01*
X156210123Y-67465611D01*
X155988313Y-67337549D01*
X155973053Y-67331228D01*
X155939160Y-67322146D01*
X155988474Y-67317485D01*
X155999509Y-67315440D01*
X156218012Y-67254432D01*
X156228510Y-67250465D01*
X156432756Y-67151729D01*
X156442386Y-67145966D01*
X156625920Y-67012621D01*
X156634377Y-67005243D01*
X156670224Y-66967862D01*
X157463157Y-66967862D01*
X157472945Y-67084426D01*
X157569652Y-67153153D01*
X157579342Y-67158816D01*
X157784610Y-67255408D01*
X157795150Y-67259265D01*
X158014279Y-67317980D01*
X158025335Y-67319910D01*
X158251399Y-67338893D01*
X158262622Y-67338834D01*
X158488474Y-67317485D01*
X158499509Y-67315440D01*
X158718012Y-67254432D01*
X158728510Y-67250465D01*
X158932756Y-67151729D01*
X158942386Y-67145965D01*
X159027892Y-67083841D01*
X159037007Y-66968026D01*
X158302191Y-66233210D01*
X158197809Y-66233210D01*
X157463157Y-66967862D01*
X156670224Y-66967862D01*
X156791396Y-66841506D01*
X156798413Y-66832747D01*
X156923955Y-66643790D01*
X156929309Y-66633928D01*
X156999596Y-66471507D01*
X157077393Y-66646242D01*
X157082851Y-66656049D01*
X157164126Y-66775640D01*
X157282181Y-66786800D01*
X158250000Y-65818980D01*
X159217939Y-66786920D01*
G36*
X181188968Y-56074414D02*
G01*
X181188967Y-65356373D01*
X181043299Y-65276291D01*
X181033022Y-65271780D01*
X180818012Y-65199421D01*
X180807100Y-65196801D01*
X180582673Y-65163661D01*
X180571469Y-65163015D01*
X180344722Y-65170140D01*
X180333580Y-65171489D01*
X180111678Y-65218656D01*
X180100952Y-65221956D01*
X179890909Y-65307672D01*
X179880936Y-65312820D01*
X179725829Y-65411254D01*
X179712551Y-65531531D01*
X180681020Y-66500000D01*
X179713157Y-67467862D01*
X179722945Y-67584426D01*
X179819652Y-67653153D01*
X179829342Y-67658816D01*
X180034610Y-67755408D01*
X180045150Y-67759265D01*
X180264279Y-67817980D01*
X180275335Y-67819910D01*
X180501399Y-67838893D01*
X180512622Y-67838834D01*
X180738474Y-67817485D01*
X180749509Y-67815440D01*
X180968012Y-67754432D01*
X180978510Y-67750465D01*
X181182756Y-67651729D01*
X181188967Y-67648012D01*
X181188967Y-72034818D01*
X175034786Y-78189000D01*
X173836476Y-78189000D01*
X173801912Y-78129132D01*
X173795601Y-78120119D01*
X173641413Y-77936366D01*
X173633634Y-77928587D01*
X173449881Y-77774399D01*
X173440868Y-77768088D01*
X173288295Y-77680000D01*
X173440868Y-77591912D01*
X173449881Y-77585601D01*
X173633634Y-77431413D01*
X173641413Y-77423634D01*
X173795601Y-77239881D01*
X173801912Y-77230868D01*
X173836477Y-77170999D01*
X173861859Y-77170999D01*
X173881448Y-77167897D01*
X173929563Y-77152263D01*
X173979546Y-77144347D01*
X173998409Y-77138218D01*
X174043496Y-77115245D01*
X174091614Y-77099611D01*
X174109286Y-77090606D01*
X174150217Y-77060867D01*
X174195304Y-77037894D01*
X174211350Y-77026236D01*
X174308943Y-76928643D01*
X174366829Y-77028905D01*
X174376884Y-77042009D01*
X174557991Y-77223116D01*
X174571095Y-77233171D01*
X174792905Y-77361233D01*
X174808165Y-77367554D01*
X175055562Y-77433844D01*
X175071938Y-77436000D01*
X175328062Y-77436000D01*
X175344438Y-77433844D01*
X175591835Y-77367554D01*
X175607095Y-77361233D01*
X175828905Y-77233171D01*
X175842009Y-77223116D01*
X176023116Y-77042009D01*
X176033171Y-77028905D01*
X176161233Y-76807095D01*
X176167554Y-76791835D01*
X176233844Y-76544438D01*
X176236000Y-76528062D01*
X176236000Y-76440214D01*
X177323477Y-75352738D01*
X177366270Y-75309946D01*
X177377927Y-75293901D01*
X177400895Y-75248823D01*
X177430639Y-75207885D01*
X177439643Y-75190213D01*
X177455280Y-75142088D01*
X177478251Y-75097005D01*
X177484380Y-75078144D01*
X177492297Y-75028159D01*
X177507930Y-74980045D01*
X177511032Y-74960457D01*
X177511032Y-74905158D01*
X177511033Y-74905146D01*
X177511033Y-67744313D01*
X177534610Y-67755408D01*
X177545150Y-67759265D01*
X177764279Y-67817980D01*
X177775335Y-67819910D01*
X178001399Y-67838893D01*
X178012622Y-67838834D01*
X178238474Y-67817485D01*
X178249509Y-67815440D01*
X178468012Y-67754432D01*
X178478510Y-67750465D01*
X178682756Y-67651729D01*
X178692386Y-67645966D01*
X178875920Y-67512621D01*
X178884377Y-67505243D01*
X179041396Y-67341506D01*
X179048413Y-67332747D01*
X179173955Y-67143790D01*
X179179309Y-67133928D01*
X179249596Y-66971507D01*
X179327393Y-67146242D01*
X179332851Y-67156049D01*
X179414126Y-67275640D01*
X179532181Y-67286800D01*
X180266790Y-66552191D01*
X180266790Y-66447809D01*
X179531366Y-65712385D01*
X179417057Y-65720176D01*
X179368788Y-65783763D01*
X179362822Y-65793272D01*
X179259830Y-65995407D01*
X179255644Y-66005820D01*
X179248440Y-66029681D01*
X179210871Y-65928661D01*
X179206039Y-65918532D01*
X179090558Y-65723264D01*
X179084009Y-65714150D01*
X178935775Y-65542419D01*
X178927715Y-65534609D01*
X178751413Y-65391841D01*
X178742097Y-65385582D01*
X178543299Y-65276291D01*
X178533022Y-65271780D01*
X178318012Y-65199421D01*
X178307100Y-65196801D01*
X178082673Y-65163661D01*
X178071469Y-65163015D01*
X177844722Y-65170140D01*
X177833580Y-65171489D01*
X177611678Y-65218656D01*
X177600952Y-65221956D01*
X177511033Y-65258651D01*
X177511033Y-52396478D01*
X181188968Y-56074414D01*
G37*
X181188968Y-56074414D02*
X181188967Y-65356373D01*
X181043299Y-65276291D01*
X181033022Y-65271780D01*
X180818012Y-65199421D01*
X180807100Y-65196801D01*
X180582673Y-65163661D01*
X180571469Y-65163015D01*
X180344722Y-65170140D01*
X180333580Y-65171489D01*
X180111678Y-65218656D01*
X180100952Y-65221956D01*
X179890909Y-65307672D01*
X179880936Y-65312820D01*
X179725829Y-65411254D01*
X179712551Y-65531531D01*
X180681020Y-66500000D01*
X179713157Y-67467862D01*
X179722945Y-67584426D01*
X179819652Y-67653153D01*
X179829342Y-67658816D01*
X180034610Y-67755408D01*
X180045150Y-67759265D01*
X180264279Y-67817980D01*
X180275335Y-67819910D01*
X180501399Y-67838893D01*
X180512622Y-67838834D01*
X180738474Y-67817485D01*
X180749509Y-67815440D01*
X180968012Y-67754432D01*
X180978510Y-67750465D01*
X181182756Y-67651729D01*
X181188967Y-67648012D01*
X181188967Y-72034818D01*
X175034786Y-78189000D01*
X173836476Y-78189000D01*
X173801912Y-78129132D01*
X173795601Y-78120119D01*
X173641413Y-77936366D01*
X173633634Y-77928587D01*
X173449881Y-77774399D01*
X173440868Y-77768088D01*
X173288295Y-77680000D01*
X173440868Y-77591912D01*
X173449881Y-77585601D01*
X173633634Y-77431413D01*
X173641413Y-77423634D01*
X173795601Y-77239881D01*
X173801912Y-77230868D01*
X173836477Y-77170999D01*
X173861859Y-77170999D01*
X173881448Y-77167897D01*
X173929563Y-77152263D01*
X173979546Y-77144347D01*
X173998409Y-77138218D01*
X174043496Y-77115245D01*
X174091614Y-77099611D01*
X174109286Y-77090606D01*
X174150217Y-77060867D01*
X174195304Y-77037894D01*
X174211350Y-77026236D01*
X174308943Y-76928643D01*
X174366829Y-77028905D01*
X174376884Y-77042009D01*
X174557991Y-77223116D01*
X174571095Y-77233171D01*
X174792905Y-77361233D01*
X174808165Y-77367554D01*
X175055562Y-77433844D01*
X175071938Y-77436000D01*
X175328062Y-77436000D01*
X175344438Y-77433844D01*
X175591835Y-77367554D01*
X175607095Y-77361233D01*
X175828905Y-77233171D01*
X175842009Y-77223116D01*
X176023116Y-77042009D01*
X176033171Y-77028905D01*
X176161233Y-76807095D01*
X176167554Y-76791835D01*
X176233844Y-76544438D01*
X176236000Y-76528062D01*
X176236000Y-76440214D01*
X177323477Y-75352738D01*
X177366270Y-75309946D01*
X177377927Y-75293901D01*
X177400895Y-75248823D01*
X177430639Y-75207885D01*
X177439643Y-75190213D01*
X177455280Y-75142088D01*
X177478251Y-75097005D01*
X177484380Y-75078144D01*
X177492297Y-75028159D01*
X177507930Y-74980045D01*
X177511032Y-74960457D01*
X177511032Y-74905158D01*
X177511033Y-74905146D01*
X177511033Y-67744313D01*
X177534610Y-67755408D01*
X177545150Y-67759265D01*
X177764279Y-67817980D01*
X177775335Y-67819910D01*
X178001399Y-67838893D01*
X178012622Y-67838834D01*
X178238474Y-67817485D01*
X178249509Y-67815440D01*
X178468012Y-67754432D01*
X178478510Y-67750465D01*
X178682756Y-67651729D01*
X178692386Y-67645966D01*
X178875920Y-67512621D01*
X178884377Y-67505243D01*
X179041396Y-67341506D01*
X179048413Y-67332747D01*
X179173955Y-67143790D01*
X179179309Y-67133928D01*
X179249596Y-66971507D01*
X179327393Y-67146242D01*
X179332851Y-67156049D01*
X179414126Y-67275640D01*
X179532181Y-67286800D01*
X180266790Y-66552191D01*
X180266790Y-66447809D01*
X179531366Y-65712385D01*
X179417057Y-65720176D01*
X179368788Y-65783763D01*
X179362822Y-65793272D01*
X179259830Y-65995407D01*
X179255644Y-66005820D01*
X179248440Y-66029681D01*
X179210871Y-65928661D01*
X179206039Y-65918532D01*
X179090558Y-65723264D01*
X179084009Y-65714150D01*
X178935775Y-65542419D01*
X178927715Y-65534609D01*
X178751413Y-65391841D01*
X178742097Y-65385582D01*
X178543299Y-65276291D01*
X178533022Y-65271780D01*
X178318012Y-65199421D01*
X178307100Y-65196801D01*
X178082673Y-65163661D01*
X178071469Y-65163015D01*
X177844722Y-65170140D01*
X177833580Y-65171489D01*
X177611678Y-65218656D01*
X177600952Y-65221956D01*
X177511033Y-65258651D01*
X177511033Y-52396478D01*
X181188968Y-56074414D01*
M02*
