G04 #@! TF.GenerationSoftware,KiCad,Pcbnew,(5.99.0-1468-g7e1294a4b)*
G04 #@! TF.CreationDate,2020-10-04T20:21:57+02:00*
G04 #@! TF.ProjectId,GB Dumper_SMD,47422044-756d-4706-9572-5f534d442e6b,rev?*
G04 #@! TF.SameCoordinates,Original*
G04 #@! TF.FileFunction,Other,User*
%FSLAX46Y46*%
G04 Gerber Fmt 4.6, Leading zero omitted, Abs format (unit mm)*
G04 Created by KiCad (PCBNEW (5.99.0-1468-g7e1294a4b)) date 2020-10-04 20:21:57*
%MOMM*%
%LPD*%
G01*
G04 APERTURE LIST*
%ADD10C,0.200000*%
%ADD11C,0.203200*%
G04 APERTURE END LIST*
D10*
X184010000Y-40700000D02*
G75*
G03*
X184010000Y-40700000I-3450000J0D01*
G01*
X112350000Y-40700000D02*
G75*
G03*
X112350000Y-40700000I-3450000J0D01*
G01*
X112350000Y-116200000D02*
G75*
G03*
X112350000Y-116200000I-3450000J0D01*
G01*
X184310000Y-116200000D02*
G75*
G03*
X184310000Y-116200000I-3450000J0D01*
G01*
X175700000Y-97950000D02*
X122500000Y-97950000D01*
X175700000Y-115300000D02*
X122500000Y-115300000D01*
X175700000Y-97950000D02*
X175700000Y-115300000D01*
X122500000Y-97950000D02*
X122500000Y-115300000D01*
D11*
X116210000Y-41910000D02*
X173810000Y-41910000D01*
X173810000Y-41910000D02*
X173810000Y-59310000D01*
X173810000Y-59310000D02*
X116210000Y-59310000D01*
X116210000Y-59310000D02*
X116210000Y-41910000D01*
D10*
X163900000Y-64700000D02*
X163900000Y-90650000D01*
X163900000Y-90650000D02*
X173700000Y-90650000D01*
X173700000Y-90650000D02*
X173700000Y-64700000D01*
X173700000Y-64700000D02*
X163900000Y-64700000D01*
X141900000Y-64200000D02*
X141900000Y-90150000D01*
X141900000Y-90150000D02*
X151700000Y-90150000D01*
X151700000Y-90150000D02*
X151700000Y-64200000D01*
X151700000Y-64200000D02*
X141900000Y-64200000D01*
X154350000Y-64150000D02*
X154350000Y-67850000D01*
X154350000Y-67850000D02*
X159650000Y-67850000D01*
X159650000Y-67850000D02*
X159650000Y-64150000D01*
X159650000Y-64150000D02*
X154350000Y-64150000D01*
X181900000Y-68350000D02*
X181900000Y-64650000D01*
X181900000Y-64650000D02*
X176600000Y-64650000D01*
X176600000Y-64650000D02*
X176600000Y-68350000D01*
X176600000Y-68350000D02*
X181900000Y-68350000D01*
M02*
