G04 #@! TF.GenerationSoftware,KiCad,Pcbnew,(5.99.0-1468-g7e1294a4b)*
G04 #@! TF.CreationDate,2020-10-04T20:21:57+02:00*
G04 #@! TF.ProjectId,GB Dumper_SMD,47422044-756d-4706-9572-5f534d442e6b,rev?*
G04 #@! TF.SameCoordinates,Original*
G04 #@! TF.FileFunction,Legend,Top*
G04 #@! TF.FilePolarity,Positive*
%FSLAX46Y46*%
G04 Gerber Fmt 4.6, Leading zero omitted, Abs format (unit mm)*
G04 Created by KiCad (PCBNEW (5.99.0-1468-g7e1294a4b)) date 2020-10-04 20:21:57*
%MOMM*%
%LPD*%
G01*
G04 APERTURE LIST*
%ADD10C,0.200000*%
%ADD11C,0.300000*%
%ADD12C,0.203200*%
G04 APERTURE END LIST*
D10*
X134320952Y-105662380D02*
X134320952Y-106376666D01*
X134273333Y-106519523D01*
X134178095Y-106614761D01*
X134035238Y-106662380D01*
X133940000Y-106662380D01*
X135273333Y-106662380D02*
X134797142Y-106662380D01*
X134797142Y-105662380D01*
X136178095Y-106567142D02*
X136130476Y-106614761D01*
X135987619Y-106662380D01*
X135892380Y-106662380D01*
X135749523Y-106614761D01*
X135654285Y-106519523D01*
X135606666Y-106424285D01*
X135559047Y-106233809D01*
X135559047Y-106090952D01*
X135606666Y-105900476D01*
X135654285Y-105805238D01*
X135749523Y-105710000D01*
X135892380Y-105662380D01*
X135987619Y-105662380D01*
X136130476Y-105710000D01*
X136178095Y-105757619D01*
X136892380Y-105662380D02*
X136892380Y-106376666D01*
X136844761Y-106519523D01*
X136749523Y-106614761D01*
X136606666Y-106662380D01*
X136511428Y-106662380D01*
X137844761Y-106662380D02*
X137368571Y-106662380D01*
X137368571Y-105662380D01*
X138749523Y-106567142D02*
X138701904Y-106614761D01*
X138559047Y-106662380D01*
X138463809Y-106662380D01*
X138320952Y-106614761D01*
X138225714Y-106519523D01*
X138178095Y-106424285D01*
X138130476Y-106233809D01*
X138130476Y-106090952D01*
X138178095Y-105900476D01*
X138225714Y-105805238D01*
X138320952Y-105710000D01*
X138463809Y-105662380D01*
X138559047Y-105662380D01*
X138701904Y-105710000D01*
X138749523Y-105757619D01*
X139463809Y-105662380D02*
X139463809Y-106376666D01*
X139416190Y-106519523D01*
X139320952Y-106614761D01*
X139178095Y-106662380D01*
X139082857Y-106662380D01*
X140416190Y-106662380D02*
X139940000Y-106662380D01*
X139940000Y-105662380D01*
X141320952Y-106567142D02*
X141273333Y-106614761D01*
X141130476Y-106662380D01*
X141035238Y-106662380D01*
X140892380Y-106614761D01*
X140797142Y-106519523D01*
X140749523Y-106424285D01*
X140701904Y-106233809D01*
X140701904Y-106090952D01*
X140749523Y-105900476D01*
X140797142Y-105805238D01*
X140892380Y-105710000D01*
X141035238Y-105662380D01*
X141130476Y-105662380D01*
X141273333Y-105710000D01*
X141320952Y-105757619D01*
X142035238Y-105662380D02*
X142035238Y-106376666D01*
X141987619Y-106519523D01*
X141892380Y-106614761D01*
X141749523Y-106662380D01*
X141654285Y-106662380D01*
X142987619Y-106662380D02*
X142511428Y-106662380D01*
X142511428Y-105662380D01*
X143892380Y-106567142D02*
X143844761Y-106614761D01*
X143701904Y-106662380D01*
X143606666Y-106662380D01*
X143463809Y-106614761D01*
X143368571Y-106519523D01*
X143320952Y-106424285D01*
X143273333Y-106233809D01*
X143273333Y-106090952D01*
X143320952Y-105900476D01*
X143368571Y-105805238D01*
X143463809Y-105710000D01*
X143606666Y-105662380D01*
X143701904Y-105662380D01*
X143844761Y-105710000D01*
X143892380Y-105757619D01*
D11*
X174137142Y-105325714D02*
X174208571Y-105111428D01*
X174208571Y-104754285D01*
X174137142Y-104611428D01*
X174065714Y-104540000D01*
X173922857Y-104468571D01*
X173780000Y-104468571D01*
X173637142Y-104540000D01*
X173565714Y-104611428D01*
X173494285Y-104754285D01*
X173422857Y-105040000D01*
X173351428Y-105182857D01*
X173280000Y-105254285D01*
X173137142Y-105325714D01*
X172994285Y-105325714D01*
X172851428Y-105254285D01*
X172780000Y-105182857D01*
X172708571Y-105040000D01*
X172708571Y-104682857D01*
X172780000Y-104468571D01*
X172708571Y-103968571D02*
X174208571Y-103611428D01*
X173137142Y-103325714D01*
X174208571Y-103040000D01*
X172708571Y-102682857D01*
X174208571Y-102111428D02*
X172708571Y-102111428D01*
X172708571Y-101754285D01*
X172780000Y-101540000D01*
X172922857Y-101397142D01*
X173065714Y-101325714D01*
X173351428Y-101254285D01*
X173565714Y-101254285D01*
X173851428Y-101325714D01*
X173994285Y-101397142D01*
X174137142Y-101540000D01*
X174208571Y-101754285D01*
X174208571Y-102111428D01*
X123428571Y-107312857D02*
X124642857Y-107312857D01*
X124785714Y-107241428D01*
X124857142Y-107170000D01*
X124928571Y-107027142D01*
X124928571Y-106741428D01*
X124857142Y-106598571D01*
X124785714Y-106527142D01*
X124642857Y-106455714D01*
X123428571Y-106455714D01*
X124857142Y-105812857D02*
X124928571Y-105598571D01*
X124928571Y-105241428D01*
X124857142Y-105098571D01*
X124785714Y-105027142D01*
X124642857Y-104955714D01*
X124500000Y-104955714D01*
X124357142Y-105027142D01*
X124285714Y-105098571D01*
X124214285Y-105241428D01*
X124142857Y-105527142D01*
X124071428Y-105670000D01*
X124000000Y-105741428D01*
X123857142Y-105812857D01*
X123714285Y-105812857D01*
X123571428Y-105741428D01*
X123500000Y-105670000D01*
X123428571Y-105527142D01*
X123428571Y-105170000D01*
X123500000Y-104955714D01*
X124142857Y-103812857D02*
X124214285Y-103598571D01*
X124285714Y-103527142D01*
X124428571Y-103455714D01*
X124642857Y-103455714D01*
X124785714Y-103527142D01*
X124857142Y-103598571D01*
X124928571Y-103741428D01*
X124928571Y-104312857D01*
X123428571Y-104312857D01*
X123428571Y-103812857D01*
X123500000Y-103670000D01*
X123571428Y-103598571D01*
X123714285Y-103527142D01*
X123857142Y-103527142D01*
X124000000Y-103598571D01*
X124071428Y-103670000D01*
X124142857Y-103812857D01*
X124142857Y-104312857D01*
G36*
X111940929Y-102190512D02*
G01*
X111979394Y-102225197D01*
X112215204Y-102497503D01*
X112369779Y-102876573D01*
X112459657Y-103471101D01*
X112501380Y-104389780D01*
X112511490Y-105721750D01*
X112506523Y-107036992D01*
X112475260Y-107929146D01*
X112393159Y-108515547D01*
X112235678Y-108913529D01*
X111978274Y-109240427D01*
X111722809Y-109492367D01*
X111051687Y-109988289D01*
X110592153Y-110005428D01*
X110368167Y-109547886D01*
X110349787Y-109257268D01*
X110492459Y-108757658D01*
X110822660Y-108665236D01*
X111018574Y-108631642D01*
X111156036Y-108438526D01*
X111248413Y-108002051D01*
X111309070Y-107238383D01*
X111351373Y-106063685D01*
X111371415Y-105223211D01*
X111405107Y-103802780D01*
X111443088Y-102847954D01*
X111500511Y-102284024D01*
X111592525Y-102036281D01*
X111734281Y-102030014D01*
X111940929Y-102190512D01*
G37*
D10*
X111940929Y-102190512D02*
X111979394Y-102225197D01*
X112215204Y-102497503D01*
X112369779Y-102876573D01*
X112459657Y-103471101D01*
X112501380Y-104389780D01*
X112511490Y-105721750D01*
X112506523Y-107036992D01*
X112475260Y-107929146D01*
X112393159Y-108515547D01*
X112235678Y-108913529D01*
X111978274Y-109240427D01*
X111722809Y-109492367D01*
X111051687Y-109988289D01*
X110592153Y-110005428D01*
X110368167Y-109547886D01*
X110349787Y-109257268D01*
X110492459Y-108757658D01*
X110822660Y-108665236D01*
X111018574Y-108631642D01*
X111156036Y-108438526D01*
X111248413Y-108002051D01*
X111309070Y-107238383D01*
X111351373Y-106063685D01*
X111371415Y-105223211D01*
X111405107Y-103802780D01*
X111443088Y-102847954D01*
X111500511Y-102284024D01*
X111592525Y-102036281D01*
X111734281Y-102030014D01*
X111940929Y-102190512D01*
G36*
X110348198Y-106417803D02*
G01*
X110874082Y-106484645D01*
X111103789Y-106653444D01*
X111159412Y-106971159D01*
X111160426Y-107081489D01*
X111110027Y-107498346D01*
X110862298Y-107695848D01*
X110272438Y-107754441D01*
X109944468Y-107757021D01*
X109188036Y-107790218D01*
X108829945Y-107933791D01*
X108729936Y-108253711D01*
X108728511Y-108328962D01*
X108842846Y-108749245D01*
X109267158Y-108760042D01*
X109268936Y-108759578D01*
X109677619Y-108759776D01*
X109806553Y-109145081D01*
X109809362Y-109276969D01*
X109640837Y-109896422D01*
X109199776Y-110098183D01*
X108582948Y-109859116D01*
X108309443Y-109635594D01*
X107871740Y-109086898D01*
X107678742Y-108391115D01*
X107647660Y-107709919D01*
X107647660Y-106405957D01*
X109404043Y-106405957D01*
X110348198Y-106417803D01*
G37*
X110348198Y-106417803D02*
X110874082Y-106484645D01*
X111103789Y-106653444D01*
X111159412Y-106971159D01*
X111160426Y-107081489D01*
X111110027Y-107498346D01*
X110862298Y-107695848D01*
X110272438Y-107754441D01*
X109944468Y-107757021D01*
X109188036Y-107790218D01*
X108829945Y-107933791D01*
X108729936Y-108253711D01*
X108728511Y-108328962D01*
X108842846Y-108749245D01*
X109267158Y-108760042D01*
X109268936Y-108759578D01*
X109677619Y-108759776D01*
X109806553Y-109145081D01*
X109809362Y-109276969D01*
X109640837Y-109896422D01*
X109199776Y-110098183D01*
X108582948Y-109859116D01*
X108309443Y-109635594D01*
X107871740Y-109086898D01*
X107678742Y-108391115D01*
X107647660Y-107709919D01*
X107647660Y-106405957D01*
X109404043Y-106405957D01*
X110348198Y-106417803D01*
G36*
X110189376Y-100140203D02*
G01*
X110656337Y-100666938D01*
X111027685Y-101304078D01*
X111160426Y-101809304D01*
X111160426Y-102446969D01*
X110472750Y-101800931D01*
X109801105Y-101363798D01*
X109288632Y-101430591D01*
X108966112Y-101980284D01*
X108863617Y-102900123D01*
X108951615Y-103663814D01*
X109166225Y-104128691D01*
X109433377Y-104223692D01*
X109678997Y-103877757D01*
X109725113Y-103726603D01*
X109909805Y-103338932D01*
X110207665Y-103428795D01*
X110247686Y-103461008D01*
X110592867Y-104034913D01*
X110434279Y-104723361D01*
X109942649Y-105326815D01*
X109265297Y-105963154D01*
X108456479Y-105188257D01*
X107958689Y-104627640D01*
X107718601Y-104045161D01*
X107648863Y-103205114D01*
X107647660Y-103005735D01*
X107687710Y-102123275D01*
X107875141Y-101541903D01*
X108310872Y-101024283D01*
X108602807Y-100759481D01*
X109210722Y-100262472D01*
X109659270Y-99961762D01*
X109771662Y-99920851D01*
X110189376Y-100140203D01*
G37*
X110189376Y-100140203D02*
X110656337Y-100666938D01*
X111027685Y-101304078D01*
X111160426Y-101809304D01*
X111160426Y-102446969D01*
X110472750Y-101800931D01*
X109801105Y-101363798D01*
X109288632Y-101430591D01*
X108966112Y-101980284D01*
X108863617Y-102900123D01*
X108951615Y-103663814D01*
X109166225Y-104128691D01*
X109433377Y-104223692D01*
X109678997Y-103877757D01*
X109725113Y-103726603D01*
X109909805Y-103338932D01*
X110207665Y-103428795D01*
X110247686Y-103461008D01*
X110592867Y-104034913D01*
X110434279Y-104723361D01*
X109942649Y-105326815D01*
X109265297Y-105963154D01*
X108456479Y-105188257D01*
X107958689Y-104627640D01*
X107718601Y-104045161D01*
X107648863Y-103205114D01*
X107647660Y-103005735D01*
X107687710Y-102123275D01*
X107875141Y-101541903D01*
X108310872Y-101024283D01*
X108602807Y-100759481D01*
X109210722Y-100262472D01*
X109659270Y-99961762D01*
X109771662Y-99920851D01*
X110189376Y-100140203D01*
G36*
X112233778Y-88359171D02*
G01*
X112477241Y-88612710D01*
X112511490Y-88977234D01*
X112415602Y-89471908D01*
X112018999Y-89642540D01*
X111754894Y-89652766D01*
X110919717Y-89825524D01*
X110464456Y-90368713D01*
X110349787Y-91138936D01*
X110513122Y-92022296D01*
X111026683Y-92503822D01*
X111754894Y-92625106D01*
X112166855Y-92648928D01*
X112393137Y-92803442D01*
X112489361Y-93213221D01*
X112511152Y-94002836D01*
X112511490Y-94319570D01*
X112511490Y-96014033D01*
X110079575Y-98434681D01*
X109076741Y-99421646D01*
X108390516Y-100060297D01*
X107963123Y-100392058D01*
X107736783Y-100458350D01*
X107653720Y-100300597D01*
X107647660Y-100178183D01*
X107806496Y-99659810D01*
X108309199Y-98941570D01*
X109195061Y-97970402D01*
X109539149Y-97624042D01*
X110444180Y-96696506D01*
X111013116Y-96021552D01*
X111316634Y-95495960D01*
X111425410Y-95016509D01*
X111430639Y-94861608D01*
X111332139Y-94202823D01*
X111075874Y-93976170D01*
X110672112Y-93794567D01*
X110121665Y-93345252D01*
X109995023Y-93218299D01*
X109517445Y-92591223D01*
X109306037Y-91877444D01*
X109268936Y-91138936D01*
X109467949Y-89904399D01*
X110023803Y-88974008D01*
X110874722Y-88422430D01*
X111616299Y-88301702D01*
X112233778Y-88359171D01*
G37*
X112233778Y-88359171D02*
X112477241Y-88612710D01*
X112511490Y-88977234D01*
X112415602Y-89471908D01*
X112018999Y-89642540D01*
X111754894Y-89652766D01*
X110919717Y-89825524D01*
X110464456Y-90368713D01*
X110349787Y-91138936D01*
X110513122Y-92022296D01*
X111026683Y-92503822D01*
X111754894Y-92625106D01*
X112166855Y-92648928D01*
X112393137Y-92803442D01*
X112489361Y-93213221D01*
X112511152Y-94002836D01*
X112511490Y-94319570D01*
X112511490Y-96014033D01*
X110079575Y-98434681D01*
X109076741Y-99421646D01*
X108390516Y-100060297D01*
X107963123Y-100392058D01*
X107736783Y-100458350D01*
X107653720Y-100300597D01*
X107647660Y-100178183D01*
X107806496Y-99659810D01*
X108309199Y-98941570D01*
X109195061Y-97970402D01*
X109539149Y-97624042D01*
X110444180Y-96696506D01*
X111013116Y-96021552D01*
X111316634Y-95495960D01*
X111425410Y-95016509D01*
X111430639Y-94861608D01*
X111332139Y-94202823D01*
X111075874Y-93976170D01*
X110672112Y-93794567D01*
X110121665Y-93345252D01*
X109995023Y-93218299D01*
X109517445Y-92591223D01*
X109306037Y-91877444D01*
X109268936Y-91138936D01*
X109467949Y-89904399D01*
X110023803Y-88974008D01*
X110874722Y-88422430D01*
X111616299Y-88301702D01*
X112233778Y-88359171D01*
G36*
X110167469Y-94260686D02*
G01*
X110652586Y-94338846D01*
X110851189Y-94533738D01*
X110890177Y-94898237D01*
X110890213Y-94921915D01*
X110763552Y-95451641D01*
X110349787Y-95597447D01*
X109918545Y-95764644D01*
X109809362Y-96239892D01*
X109647971Y-96886048D01*
X109404043Y-97218723D01*
X109137463Y-97366429D01*
X109021759Y-97148545D01*
X108998724Y-96576277D01*
X108952183Y-95922510D01*
X108740171Y-95648829D01*
X108323192Y-95597447D01*
X107808973Y-95485842D01*
X107650513Y-95046405D01*
X107647660Y-94921915D01*
X107681988Y-94547526D01*
X107869573Y-94345394D01*
X108337313Y-94262643D01*
X109212109Y-94246398D01*
X109268936Y-94246383D01*
X110167469Y-94260686D01*
G37*
X110167469Y-94260686D02*
X110652586Y-94338846D01*
X110851189Y-94533738D01*
X110890177Y-94898237D01*
X110890213Y-94921915D01*
X110763552Y-95451641D01*
X110349787Y-95597447D01*
X109918545Y-95764644D01*
X109809362Y-96239892D01*
X109647971Y-96886048D01*
X109404043Y-97218723D01*
X109137463Y-97366429D01*
X109021759Y-97148545D01*
X108998724Y-96576277D01*
X108952183Y-95922510D01*
X108740171Y-95648829D01*
X108323192Y-95597447D01*
X107808973Y-95485842D01*
X107650513Y-95046405D01*
X107647660Y-94921915D01*
X107681988Y-94547526D01*
X107869573Y-94345394D01*
X108337313Y-94262643D01*
X109212109Y-94246398D01*
X109268936Y-94246383D01*
X110167469Y-94260686D01*
G36*
X108837410Y-90575009D02*
G01*
X108995871Y-91014446D01*
X108998724Y-91138936D01*
X108887119Y-91653154D01*
X108447682Y-91811615D01*
X108323192Y-91814468D01*
X107808973Y-91702863D01*
X107650513Y-91263426D01*
X107647660Y-91138936D01*
X107759264Y-90624718D01*
X108198702Y-90466257D01*
X108323192Y-90463404D01*
X108837410Y-90575009D01*
G37*
X108837410Y-90575009D02*
X108995871Y-91014446D01*
X108998724Y-91138936D01*
X108887119Y-91653154D01*
X108447682Y-91811615D01*
X108323192Y-91814468D01*
X107808973Y-91702863D01*
X107650513Y-91263426D01*
X107647660Y-91138936D01*
X107759264Y-90624718D01*
X108198702Y-90466257D01*
X108323192Y-90463404D01*
X108837410Y-90575009D01*
G36*
X118692107Y-74942214D02*
G01*
X118778852Y-75476518D01*
X118733861Y-75791831D01*
X118409514Y-76690141D01*
X117999601Y-77222816D01*
X117259132Y-77576945D01*
X116470580Y-77649203D01*
X115904579Y-77445164D01*
X115784085Y-77177184D01*
X116036470Y-76550223D01*
X116320704Y-76239014D01*
X116731889Y-76008588D01*
X116854381Y-76379393D01*
X116857324Y-76552956D01*
X116989870Y-77157809D01*
X117190963Y-77312253D01*
X117575422Y-77009148D01*
X117795778Y-76310127D01*
X117764736Y-75530635D01*
X117721527Y-75395046D01*
X117731665Y-74920878D01*
X118200426Y-74808028D01*
X118692107Y-74942214D01*
G37*
X118692107Y-74942214D02*
X118778852Y-75476518D01*
X118733861Y-75791831D01*
X118409514Y-76690141D01*
X117999601Y-77222816D01*
X117259132Y-77576945D01*
X116470580Y-77649203D01*
X115904579Y-77445164D01*
X115784085Y-77177184D01*
X116036470Y-76550223D01*
X116320704Y-76239014D01*
X116731889Y-76008588D01*
X116854381Y-76379393D01*
X116857324Y-76552956D01*
X116989870Y-77157809D01*
X117190963Y-77312253D01*
X117575422Y-77009148D01*
X117795778Y-76310127D01*
X117764736Y-75530635D01*
X117721527Y-75395046D01*
X117731665Y-74920878D01*
X118200426Y-74808028D01*
X118692107Y-74942214D01*
G36*
X117044830Y-62874012D02*
G01*
X117378978Y-63604182D01*
X117528445Y-64898271D01*
X117507046Y-66819395D01*
X117492247Y-67122080D01*
X117429503Y-68797442D01*
X117456985Y-69856981D01*
X117582090Y-70395557D01*
X117756823Y-70515070D01*
X118415516Y-70581052D01*
X119227394Y-70718534D01*
X119950773Y-70766120D01*
X120446869Y-70441879D01*
X120920577Y-69678215D01*
X121886808Y-68423787D01*
X123333726Y-67207545D01*
X125037677Y-66193515D01*
X126425104Y-65641259D01*
X127774129Y-65268201D01*
X128564114Y-65166737D01*
X128906780Y-65359453D01*
X128913850Y-65868932D01*
X128856141Y-66132676D01*
X128121867Y-68021742D01*
X126943203Y-69830098D01*
X125477070Y-71373801D01*
X123880391Y-72468909D01*
X123210764Y-72750116D01*
X122271746Y-73107727D01*
X121848160Y-73485013D01*
X121766276Y-74093980D01*
X121792902Y-74480370D01*
X122090586Y-76102564D01*
X122631485Y-77257929D01*
X123360397Y-77832884D01*
X123431484Y-77851860D01*
X124249915Y-77946443D01*
X125385077Y-77968366D01*
X126633111Y-77928871D01*
X127790160Y-77839199D01*
X128652365Y-77710591D01*
X129015868Y-77554288D01*
X129017375Y-77543841D01*
X129162534Y-77103159D01*
X129548065Y-76182075D01*
X130103821Y-74944787D01*
X130392863Y-74324123D01*
X131298933Y-72639007D01*
X132316046Y-71133958D01*
X133355295Y-69903177D01*
X134327770Y-69040866D01*
X135144563Y-68641227D01*
X135659815Y-68743601D01*
X136022235Y-69438933D01*
X136160558Y-70583687D01*
X136075725Y-71948104D01*
X135768679Y-73302424D01*
X135639674Y-73656842D01*
X135115144Y-74537473D01*
X134215736Y-75655656D01*
X133119157Y-76794432D01*
X132911459Y-76987674D01*
X131844768Y-77973703D01*
X131230154Y-78618895D01*
X130990392Y-79063838D01*
X131048255Y-79449119D01*
X131313882Y-79896040D01*
X131715202Y-80702969D01*
X132187151Y-81931999D01*
X132610828Y-83261464D01*
X133070991Y-84654761D01*
X133588813Y-85899140D01*
X134028872Y-86688612D01*
X134484062Y-87666329D01*
X134723620Y-88913281D01*
X134736981Y-90173167D01*
X134513582Y-91189689D01*
X134231398Y-91602717D01*
X133534160Y-91867573D01*
X132561140Y-91917479D01*
X132532102Y-91914831D01*
X131815615Y-91810631D01*
X131622419Y-91656123D01*
X132841093Y-91555784D01*
X134208028Y-91443239D01*
X134314727Y-89606395D01*
X134296926Y-88265174D01*
X133993398Y-87237037D01*
X133546466Y-86480224D01*
X132938782Y-85338212D01*
X132407778Y-83931885D01*
X132237408Y-83308618D01*
X131843665Y-81954309D01*
X131342274Y-80674693D01*
X131106808Y-80208142D01*
X130410306Y-78989947D01*
X132719896Y-76791241D01*
X134234910Y-75183272D01*
X135195129Y-73711426D01*
X135689669Y-72199885D01*
X135810414Y-70693943D01*
X135709991Y-69537214D01*
X135379575Y-69035233D01*
X134760930Y-69166290D01*
X133795818Y-69908672D01*
X133768962Y-69932876D01*
X132559319Y-71298980D01*
X131370781Y-73112654D01*
X130354139Y-75117825D01*
X129739517Y-76775633D01*
X129316059Y-78206619D01*
X126753593Y-78285211D01*
X125354284Y-78301068D01*
X124147284Y-78267138D01*
X123393515Y-78190767D01*
X123392704Y-78190592D01*
X122553714Y-77658187D01*
X121891406Y-76524512D01*
X121462725Y-74893701D01*
X121417779Y-74579217D01*
X121347782Y-73604264D01*
X121526609Y-73071737D01*
X122047327Y-72725732D01*
X122100821Y-72701048D01*
X122918058Y-72399025D01*
X123410957Y-72303802D01*
X124210875Y-72006959D01*
X125199240Y-71215457D01*
X126251090Y-70077836D01*
X127241463Y-68742636D01*
X128045396Y-67358396D01*
X128482548Y-66275302D01*
X128595825Y-65723010D01*
X128358256Y-65558069D01*
X127603764Y-65678305D01*
X127535894Y-65692904D01*
X124992557Y-66590098D01*
X122808524Y-68105854D01*
X121099618Y-70070364D01*
X120425207Y-70959402D01*
X119943039Y-71331980D01*
X119493921Y-71294872D01*
X119366178Y-71233040D01*
X118506288Y-70963909D01*
X117634010Y-70872816D01*
X116957172Y-70832577D01*
X116718001Y-70575860D01*
X116802825Y-69898670D01*
X116886464Y-69531267D01*
X117065853Y-68408801D01*
X117168890Y-67048271D01*
X117196055Y-65647250D01*
X117147828Y-64403308D01*
X117024690Y-63514019D01*
X116871041Y-63189745D01*
X116472187Y-63310053D01*
X115975540Y-63982793D01*
X115437576Y-65061731D01*
X114914772Y-66400636D01*
X114463604Y-67853274D01*
X114140546Y-69273412D01*
X114002075Y-70514818D01*
X114000559Y-70622272D01*
X113875194Y-71920035D01*
X113567170Y-73115385D01*
X113428361Y-73435774D01*
X113085378Y-74410774D01*
X113018267Y-75621886D01*
X113100586Y-76593315D01*
X113376777Y-78017506D01*
X113897316Y-78885224D01*
X114810620Y-79349028D01*
X115962958Y-79535551D01*
X116559205Y-79634096D01*
X116906579Y-79902656D01*
X117105880Y-80515793D01*
X117257907Y-81648069D01*
X117275766Y-81809030D01*
X117523669Y-83442302D01*
X117888167Y-85182479D01*
X118101576Y-85997055D01*
X118431229Y-87414072D01*
X118398291Y-88423568D01*
X117952144Y-89261920D01*
X117248206Y-89982265D01*
X116695165Y-90640482D01*
X116499578Y-91140939D01*
X116793246Y-91510243D01*
X117525944Y-91624140D01*
X118475212Y-91499911D01*
X119418587Y-91154839D01*
X119849924Y-90880654D01*
X120504940Y-90156609D01*
X120791992Y-89425831D01*
X120792535Y-89400238D01*
X121025038Y-88745481D01*
X121625464Y-87825702D01*
X122223521Y-87108845D01*
X122997932Y-86181478D01*
X123517568Y-85392169D01*
X123654507Y-85011796D01*
X123796633Y-84516238D01*
X124179614Y-84640071D01*
X124738354Y-85355904D01*
X124829487Y-85506183D01*
X125362976Y-86761456D01*
X125269208Y-87779172D01*
X124526558Y-88702744D01*
X124322296Y-88870060D01*
X123593664Y-89624611D01*
X123508050Y-90193742D01*
X124056257Y-90508447D01*
X124546035Y-90548873D01*
X125283426Y-90262168D01*
X126166663Y-89534819D01*
X127021281Y-88565969D01*
X127672816Y-87554765D01*
X127946805Y-86700350D01*
X127947465Y-86666253D01*
X128002662Y-86138592D01*
X128241856Y-85971632D01*
X128775451Y-86190768D01*
X129713852Y-86821394D01*
X130219544Y-87188870D01*
X131176447Y-87915285D01*
X131672464Y-88445728D01*
X131824841Y-89005762D01*
X131750824Y-89820953D01*
X131714581Y-90065081D01*
X131491670Y-91551557D01*
X131482995Y-91544619D01*
X131410949Y-90913250D01*
X131450516Y-90129212D01*
X131476531Y-89145722D01*
X131307210Y-88510491D01*
X130804355Y-87969947D01*
X129930094Y-87339491D01*
X128984818Y-86730925D01*
X128482152Y-86537502D01*
X128309906Y-86722558D01*
X128305211Y-86808481D01*
X128097308Y-87391068D01*
X127558051Y-88303555D01*
X126963662Y-89135781D01*
X125814132Y-90342395D01*
X124748292Y-90898698D01*
X123808868Y-90790586D01*
X123281271Y-90351336D01*
X123069329Y-89922391D01*
X123271828Y-89451541D01*
X123952960Y-88761643D01*
X124757517Y-87933194D01*
X125042334Y-87277114D01*
X124875768Y-86558253D01*
X124697693Y-86199760D01*
X124454893Y-85842795D01*
X124164752Y-85807058D01*
X123688532Y-86157716D01*
X122887496Y-86959930D01*
X122730088Y-87123927D01*
X121903227Y-88079722D01*
X121331367Y-88918204D01*
X121150282Y-89396134D01*
X120919270Y-90059455D01*
X120352142Y-90875688D01*
X120241438Y-90999711D01*
X119276370Y-91747415D01*
X118094005Y-91978710D01*
X117975710Y-91979859D01*
X117035186Y-91922115D01*
X116435806Y-91779438D01*
X116380329Y-91741361D01*
X116155418Y-91131951D01*
X116504325Y-90269911D01*
X117210028Y-89357160D01*
X118278225Y-88140551D01*
X117720400Y-86262148D01*
X117357680Y-84791386D01*
X117043939Y-83097691D01*
X116920512Y-82189549D01*
X116767267Y-80983016D01*
X116579684Y-80315452D01*
X116258349Y-80013300D01*
X115703847Y-79902999D01*
X115605211Y-79893297D01*
X114287579Y-79662193D01*
X113462758Y-79174823D01*
X112991825Y-78280721D01*
X112735855Y-76829420D01*
X112730475Y-76779720D01*
X112639344Y-75275752D01*
X112769888Y-74200011D01*
X113064884Y-73446856D01*
X113417030Y-72362848D01*
X113615495Y-70923760D01*
X113637606Y-70280415D01*
X113720590Y-68965403D01*
X114017338Y-67691364D01*
X114599543Y-66192717D01*
X114946133Y-65433072D01*
X115563999Y-64175753D01*
X116090117Y-63212997D01*
X116440521Y-62694304D01*
X116512188Y-62644647D01*
X117044830Y-62874012D01*
G37*
X117044830Y-62874012D02*
X117378978Y-63604182D01*
X117528445Y-64898271D01*
X117507046Y-66819395D01*
X117492247Y-67122080D01*
X117429503Y-68797442D01*
X117456985Y-69856981D01*
X117582090Y-70395557D01*
X117756823Y-70515070D01*
X118415516Y-70581052D01*
X119227394Y-70718534D01*
X119950773Y-70766120D01*
X120446869Y-70441879D01*
X120920577Y-69678215D01*
X121886808Y-68423787D01*
X123333726Y-67207545D01*
X125037677Y-66193515D01*
X126425104Y-65641259D01*
X127774129Y-65268201D01*
X128564114Y-65166737D01*
X128906780Y-65359453D01*
X128913850Y-65868932D01*
X128856141Y-66132676D01*
X128121867Y-68021742D01*
X126943203Y-69830098D01*
X125477070Y-71373801D01*
X123880391Y-72468909D01*
X123210764Y-72750116D01*
X122271746Y-73107727D01*
X121848160Y-73485013D01*
X121766276Y-74093980D01*
X121792902Y-74480370D01*
X122090586Y-76102564D01*
X122631485Y-77257929D01*
X123360397Y-77832884D01*
X123431484Y-77851860D01*
X124249915Y-77946443D01*
X125385077Y-77968366D01*
X126633111Y-77928871D01*
X127790160Y-77839199D01*
X128652365Y-77710591D01*
X129015868Y-77554288D01*
X129017375Y-77543841D01*
X129162534Y-77103159D01*
X129548065Y-76182075D01*
X130103821Y-74944787D01*
X130392863Y-74324123D01*
X131298933Y-72639007D01*
X132316046Y-71133958D01*
X133355295Y-69903177D01*
X134327770Y-69040866D01*
X135144563Y-68641227D01*
X135659815Y-68743601D01*
X136022235Y-69438933D01*
X136160558Y-70583687D01*
X136075725Y-71948104D01*
X135768679Y-73302424D01*
X135639674Y-73656842D01*
X135115144Y-74537473D01*
X134215736Y-75655656D01*
X133119157Y-76794432D01*
X132911459Y-76987674D01*
X131844768Y-77973703D01*
X131230154Y-78618895D01*
X130990392Y-79063838D01*
X131048255Y-79449119D01*
X131313882Y-79896040D01*
X131715202Y-80702969D01*
X132187151Y-81931999D01*
X132610828Y-83261464D01*
X133070991Y-84654761D01*
X133588813Y-85899140D01*
X134028872Y-86688612D01*
X134484062Y-87666329D01*
X134723620Y-88913281D01*
X134736981Y-90173167D01*
X134513582Y-91189689D01*
X134231398Y-91602717D01*
X133534160Y-91867573D01*
X132561140Y-91917479D01*
X132532102Y-91914831D01*
X131815615Y-91810631D01*
X131622419Y-91656123D01*
X132841093Y-91555784D01*
X134208028Y-91443239D01*
X134314727Y-89606395D01*
X134296926Y-88265174D01*
X133993398Y-87237037D01*
X133546466Y-86480224D01*
X132938782Y-85338212D01*
X132407778Y-83931885D01*
X132237408Y-83308618D01*
X131843665Y-81954309D01*
X131342274Y-80674693D01*
X131106808Y-80208142D01*
X130410306Y-78989947D01*
X132719896Y-76791241D01*
X134234910Y-75183272D01*
X135195129Y-73711426D01*
X135689669Y-72199885D01*
X135810414Y-70693943D01*
X135709991Y-69537214D01*
X135379575Y-69035233D01*
X134760930Y-69166290D01*
X133795818Y-69908672D01*
X133768962Y-69932876D01*
X132559319Y-71298980D01*
X131370781Y-73112654D01*
X130354139Y-75117825D01*
X129739517Y-76775633D01*
X129316059Y-78206619D01*
X126753593Y-78285211D01*
X125354284Y-78301068D01*
X124147284Y-78267138D01*
X123393515Y-78190767D01*
X123392704Y-78190592D01*
X122553714Y-77658187D01*
X121891406Y-76524512D01*
X121462725Y-74893701D01*
X121417779Y-74579217D01*
X121347782Y-73604264D01*
X121526609Y-73071737D01*
X122047327Y-72725732D01*
X122100821Y-72701048D01*
X122918058Y-72399025D01*
X123410957Y-72303802D01*
X124210875Y-72006959D01*
X125199240Y-71215457D01*
X126251090Y-70077836D01*
X127241463Y-68742636D01*
X128045396Y-67358396D01*
X128482548Y-66275302D01*
X128595825Y-65723010D01*
X128358256Y-65558069D01*
X127603764Y-65678305D01*
X127535894Y-65692904D01*
X124992557Y-66590098D01*
X122808524Y-68105854D01*
X121099618Y-70070364D01*
X120425207Y-70959402D01*
X119943039Y-71331980D01*
X119493921Y-71294872D01*
X119366178Y-71233040D01*
X118506288Y-70963909D01*
X117634010Y-70872816D01*
X116957172Y-70832577D01*
X116718001Y-70575860D01*
X116802825Y-69898670D01*
X116886464Y-69531267D01*
X117065853Y-68408801D01*
X117168890Y-67048271D01*
X117196055Y-65647250D01*
X117147828Y-64403308D01*
X117024690Y-63514019D01*
X116871041Y-63189745D01*
X116472187Y-63310053D01*
X115975540Y-63982793D01*
X115437576Y-65061731D01*
X114914772Y-66400636D01*
X114463604Y-67853274D01*
X114140546Y-69273412D01*
X114002075Y-70514818D01*
X114000559Y-70622272D01*
X113875194Y-71920035D01*
X113567170Y-73115385D01*
X113428361Y-73435774D01*
X113085378Y-74410774D01*
X113018267Y-75621886D01*
X113100586Y-76593315D01*
X113376777Y-78017506D01*
X113897316Y-78885224D01*
X114810620Y-79349028D01*
X115962958Y-79535551D01*
X116559205Y-79634096D01*
X116906579Y-79902656D01*
X117105880Y-80515793D01*
X117257907Y-81648069D01*
X117275766Y-81809030D01*
X117523669Y-83442302D01*
X117888167Y-85182479D01*
X118101576Y-85997055D01*
X118431229Y-87414072D01*
X118398291Y-88423568D01*
X117952144Y-89261920D01*
X117248206Y-89982265D01*
X116695165Y-90640482D01*
X116499578Y-91140939D01*
X116793246Y-91510243D01*
X117525944Y-91624140D01*
X118475212Y-91499911D01*
X119418587Y-91154839D01*
X119849924Y-90880654D01*
X120504940Y-90156609D01*
X120791992Y-89425831D01*
X120792535Y-89400238D01*
X121025038Y-88745481D01*
X121625464Y-87825702D01*
X122223521Y-87108845D01*
X122997932Y-86181478D01*
X123517568Y-85392169D01*
X123654507Y-85011796D01*
X123796633Y-84516238D01*
X124179614Y-84640071D01*
X124738354Y-85355904D01*
X124829487Y-85506183D01*
X125362976Y-86761456D01*
X125269208Y-87779172D01*
X124526558Y-88702744D01*
X124322296Y-88870060D01*
X123593664Y-89624611D01*
X123508050Y-90193742D01*
X124056257Y-90508447D01*
X124546035Y-90548873D01*
X125283426Y-90262168D01*
X126166663Y-89534819D01*
X127021281Y-88565969D01*
X127672816Y-87554765D01*
X127946805Y-86700350D01*
X127947465Y-86666253D01*
X128002662Y-86138592D01*
X128241856Y-85971632D01*
X128775451Y-86190768D01*
X129713852Y-86821394D01*
X130219544Y-87188870D01*
X131176447Y-87915285D01*
X131672464Y-88445728D01*
X131824841Y-89005762D01*
X131750824Y-89820953D01*
X131714581Y-90065081D01*
X131491670Y-91551557D01*
X131482995Y-91544619D01*
X131410949Y-90913250D01*
X131450516Y-90129212D01*
X131476531Y-89145722D01*
X131307210Y-88510491D01*
X130804355Y-87969947D01*
X129930094Y-87339491D01*
X128984818Y-86730925D01*
X128482152Y-86537502D01*
X128309906Y-86722558D01*
X128305211Y-86808481D01*
X128097308Y-87391068D01*
X127558051Y-88303555D01*
X126963662Y-89135781D01*
X125814132Y-90342395D01*
X124748292Y-90898698D01*
X123808868Y-90790586D01*
X123281271Y-90351336D01*
X123069329Y-89922391D01*
X123271828Y-89451541D01*
X123952960Y-88761643D01*
X124757517Y-87933194D01*
X125042334Y-87277114D01*
X124875768Y-86558253D01*
X124697693Y-86199760D01*
X124454893Y-85842795D01*
X124164752Y-85807058D01*
X123688532Y-86157716D01*
X122887496Y-86959930D01*
X122730088Y-87123927D01*
X121903227Y-88079722D01*
X121331367Y-88918204D01*
X121150282Y-89396134D01*
X120919270Y-90059455D01*
X120352142Y-90875688D01*
X120241438Y-90999711D01*
X119276370Y-91747415D01*
X118094005Y-91978710D01*
X117975710Y-91979859D01*
X117035186Y-91922115D01*
X116435806Y-91779438D01*
X116380329Y-91741361D01*
X116155418Y-91131951D01*
X116504325Y-90269911D01*
X117210028Y-89357160D01*
X118278225Y-88140551D01*
X117720400Y-86262148D01*
X117357680Y-84791386D01*
X117043939Y-83097691D01*
X116920512Y-82189549D01*
X116767267Y-80983016D01*
X116579684Y-80315452D01*
X116258349Y-80013300D01*
X115703847Y-79902999D01*
X115605211Y-79893297D01*
X114287579Y-79662193D01*
X113462758Y-79174823D01*
X112991825Y-78280721D01*
X112735855Y-76829420D01*
X112730475Y-76779720D01*
X112639344Y-75275752D01*
X112769888Y-74200011D01*
X113064884Y-73446856D01*
X113417030Y-72362848D01*
X113615495Y-70923760D01*
X113637606Y-70280415D01*
X113720590Y-68965403D01*
X114017338Y-67691364D01*
X114599543Y-66192717D01*
X114946133Y-65433072D01*
X115563999Y-64175753D01*
X116090117Y-63212997D01*
X116440521Y-62694304D01*
X116512188Y-62644647D01*
X117044830Y-62874012D01*
X175545000Y-99135000D02*
X174275000Y-99135000D01*
X175545000Y-114105000D02*
X174275000Y-114105000D01*
X122695000Y-114105000D02*
X123965000Y-114105000D01*
X122695000Y-99135000D02*
X123965000Y-99135000D01*
X175545000Y-99135000D02*
X175545000Y-114105000D01*
X122695000Y-99135000D02*
X122695000Y-114105000D01*
X174275000Y-99135000D02*
X174275000Y-98200000D01*
D12*
X118326949Y-42355244D02*
G75*
G03*
X171810000Y-42310000I26683051J69145244D01*
G01*
X120810000Y-56310000D02*
X116510000Y-56310000D01*
X116510000Y-56310000D02*
X116510000Y-42310000D01*
X116510000Y-42310000D02*
X173510000Y-42310000D01*
X173510000Y-42310000D02*
X173510000Y-56310000D01*
X173510000Y-56310000D02*
X169210000Y-56310000D01*
D10*
X169810000Y-64920000D02*
G75*
G02*
X167810000Y-64920000I-1000000J0D01*
G01*
X167810000Y-64920000D02*
X166160000Y-64920000D01*
X166160000Y-64920000D02*
X166160000Y-90440000D01*
X166160000Y-90440000D02*
X171460000Y-90440000D01*
X171460000Y-90440000D02*
X171460000Y-64920000D01*
X171460000Y-64920000D02*
X169810000Y-64920000D01*
X147810000Y-64420000D02*
G75*
G02*
X145810000Y-64420000I-1000000J0D01*
G01*
X145810000Y-64420000D02*
X144160000Y-64420000D01*
X144160000Y-64420000D02*
X144160000Y-89940000D01*
X144160000Y-89940000D02*
X149460000Y-89940000D01*
X149460000Y-89940000D02*
X149460000Y-64420000D01*
X149460000Y-64420000D02*
X147810000Y-64420000D01*
X154640000Y-64440000D02*
X159360000Y-64440000D01*
X154640000Y-67560000D02*
X159360000Y-67560000D01*
X154640000Y-64440000D02*
X154640000Y-67560000D01*
X159360000Y-64440000D02*
X159360000Y-67560000D01*
X181610000Y-68060000D02*
X176890000Y-68060000D01*
X181610000Y-64940000D02*
X176890000Y-64940000D01*
X181610000Y-68060000D02*
X181610000Y-64940000D01*
X176890000Y-68060000D02*
X176890000Y-64940000D01*
X173745619Y-107186666D02*
X173031333Y-107186666D01*
X172888476Y-107139047D01*
X172793238Y-107043809D01*
X172745619Y-106900952D01*
X172745619Y-106805714D01*
X172745619Y-108186666D02*
X172745619Y-107615238D01*
X172745619Y-107900952D02*
X173745619Y-107900952D01*
X173602761Y-107805714D01*
X173507523Y-107710476D01*
X173459904Y-107615238D01*
X168048095Y-63372380D02*
X168048095Y-64181904D01*
X168095714Y-64277142D01*
X168143333Y-64324761D01*
X168238571Y-64372380D01*
X168429047Y-64372380D01*
X168524285Y-64324761D01*
X168571904Y-64277142D01*
X168619523Y-64181904D01*
X168619523Y-63372380D01*
X169048095Y-63467619D02*
X169095714Y-63420000D01*
X169190952Y-63372380D01*
X169429047Y-63372380D01*
X169524285Y-63420000D01*
X169571904Y-63467619D01*
X169619523Y-63562857D01*
X169619523Y-63658095D01*
X169571904Y-63800952D01*
X169000476Y-64372380D01*
X169619523Y-64372380D01*
X146048095Y-62872380D02*
X146048095Y-63681904D01*
X146095714Y-63777142D01*
X146143333Y-63824761D01*
X146238571Y-63872380D01*
X146429047Y-63872380D01*
X146524285Y-63824761D01*
X146571904Y-63777142D01*
X146619523Y-63681904D01*
X146619523Y-62872380D01*
X147619523Y-63872380D02*
X147048095Y-63872380D01*
X147333809Y-63872380D02*
X147333809Y-62872380D01*
X147238571Y-63015238D01*
X147143333Y-63110476D01*
X147048095Y-63158095D01*
M02*
