M48
; DRILL file {KiCad (5.99.0-1468-g7e1294a4b)} date 10/04/20 20:22:00
; FORMAT={-:-/ absolute / inch / decimal}
; #@! TF.CreationDate,2020-10-04T20:22:00+02:00
; #@! TF.GenerationSoftware,Kicad,Pcbnew,(5.99.0-1468-g7e1294a4b)
; #@! TF.FileFunction,Plated,1,2,PTH
FMAT,2
INCH
T1C0.0157
T2C0.0276
T3C0.0315
%
G90
G05
T1
X4.7866Y-3.9091
X4.8465Y-2.1486
X4.9065Y-2.1506
X4.9165Y-4.0008
X4.9656Y-2.1506
X5.0276Y-2.1516
X5.0705Y-3.9587
X5.0709Y-4.4236
X5.1496Y-2.1526
X5.1571Y-4.3205
X5.1681Y-2.0496
X5.2077Y-2.1506
X5.2323Y-4.2327
X5.2451Y-4.2728
X5.2657Y-2.1496
X5.2854Y-2.011
X5.3248Y-2.1516
X5.335Y-4.298
X5.3626Y-4.2358
X5.3829Y-2.1535
X5.4419Y-2.1535
X5.4528Y-4.1047
X5.502Y-2.1526
X5.5443Y-3.4901
X5.565Y-2.1467
X5.5755Y-1.9219
X5.5815Y-2.0244
X5.5819Y-2.0799
X5.6406Y-1.9815
X5.6652Y-1.8494
X5.7102Y-3.526
X5.7157Y-2.6059
X5.7413Y-2.6835
X5.748Y-1.7913
X5.7547Y-2.885
X5.7606Y-2.6098
X5.7732Y-3.2839
X5.774Y-3.4787
X5.7976Y-2.6823
X5.8126Y-3.4579
X5.8142Y-2.6051
X5.815Y-1.7283
X5.815Y-3.3051
X5.8177Y-3.1886
X5.8504Y-1.7913
X5.8622Y-3.4657
X5.8717Y-3.9862
X5.9173Y-1.8494
X5.9802Y-4.195
X5.9843Y-1.6998
X6.0228Y-4.2969
X6.0232Y-2.8854
X6.0295Y-2.1309
X6.0295Y-4.348
X6.0386Y-3.9823
X6.0561Y-4.1841
X6.0594Y-2.7886
X6.063Y-2.7362
X6.0906Y-2.1348
X6.1181Y-2.839
X6.1252Y-2.6889
X6.1496Y-2.1368
X6.1591Y-4.2307
X6.1756Y-4.0134
X6.2047Y-3.1443
X6.2071Y-4.2362
X6.2087Y-2.1368
X6.2598Y-3.2421
X6.2736Y-2.1368
X6.2992Y-4.1417
X6.3071Y-3.2886
X6.3327Y-2.1378
X6.3425Y-3.187
X6.3878Y-2.1398
X6.3898Y-2.9098
X6.4209Y-4.398
X6.4252Y-4.1142
X6.4439Y-2.1447
X6.5049Y-2.1476
X6.565Y-2.1516
X6.6929Y-2.1654
X6.7008Y-3.5118
X6.7591Y-4.6811
X6.8583Y-2.9331
X6.8701Y-2.6732
X6.8906Y-3.8811
X6.8976Y-3.0079
X6.9016Y-3.2795
X7.1102Y-2.5197
T2
X6.1319Y-2.5984
X6.2303Y-2.5984
X7.0079Y-2.6181
X7.1063Y-2.6181
T3
X4.9209Y-3.8976
X4.9209Y-4.4976
X5.0209Y-3.8976
X5.0209Y-4.4976
X5.1209Y-3.8976
X5.1209Y-4.4976
X5.2209Y-3.8976
X5.2209Y-4.4976
X5.3209Y-3.8976
X5.3209Y-4.4976
X5.4209Y-3.8976
X5.4209Y-4.4976
X5.5209Y-3.8976
X5.5209Y-4.4976
X5.6209Y-3.8976
X5.6209Y-4.4976
X5.7209Y-3.8976
X5.7209Y-4.4976
X5.8209Y-3.8976
X5.8209Y-4.4976
X5.9209Y-3.8976
X5.9209Y-4.4976
X6.0209Y-3.8976
X6.0209Y-4.4976
X6.1209Y-3.8976
X6.1209Y-4.4976
X6.2209Y-3.8976
X6.2209Y-4.4976
X6.3209Y-3.8976
X6.3209Y-4.4976
X6.4209Y-3.8976
X6.4209Y-4.4976
X6.5209Y-3.8976
X6.5209Y-4.4976
X6.6209Y-3.8976
X6.6209Y-4.4976
X6.7209Y-3.8976
X6.7209Y-4.4976
X6.8209Y-3.8976
X6.8209Y-4.4976
X6.4961Y-2.6083
X6.4961Y-2.7083
X6.4961Y-2.8083
X6.4961Y-2.9083
X6.4961Y-3.0083
X6.4961Y-3.1083
X6.4961Y-3.2083
X6.4961Y-3.3083
X6.4961Y-3.4083
X6.4961Y-3.5083
X6.7961Y-2.6083
X6.7961Y-2.7083
X6.7961Y-2.8083
X6.7961Y-2.9083
X6.7961Y-3.0083
X6.7961Y-3.1083
X6.7961Y-3.2083
X6.7961Y-3.3083
X6.7961Y-3.4083
X6.7961Y-3.5083
X5.6299Y-2.5886
X5.6299Y-2.6886
X5.6299Y-2.7886
X5.6299Y-2.8886
X5.6299Y-2.9886
X5.6299Y-3.0886
X5.6299Y-3.1886
X5.6299Y-3.2886
X5.6299Y-3.3886
X5.6299Y-3.4886
X5.9299Y-2.5886
X5.9299Y-2.6886
X5.9299Y-2.7886
X5.9299Y-2.8886
X5.9299Y-2.9886
X5.9299Y-3.0886
X5.9299Y-3.1886
X5.9299Y-3.2886
X5.9299Y-3.3886
X5.9299Y-3.4886
T0
M30
