G04 #@! TF.GenerationSoftware,KiCad,Pcbnew,(5.99.0-1468-g7e1294a4b)*
G04 #@! TF.CreationDate,2020-10-04T20:21:57+02:00*
G04 #@! TF.ProjectId,GB Dumper_SMD,47422044-756d-4706-9572-5f534d442e6b,rev?*
G04 #@! TF.SameCoordinates,Original*
G04 #@! TF.FileFunction,Other,Comment*
%FSLAX46Y46*%
G04 Gerber Fmt 4.6, Leading zero omitted, Abs format (unit mm)*
G04 Created by KiCad (PCBNEW (5.99.0-1468-g7e1294a4b)) date 2020-10-04 20:21:57*
%MOMM*%
%LPD*%
G01*
G04 APERTURE LIST*
%ADD10C,0.200000*%
G04 APERTURE END LIST*
D10*
X119379761Y-63777380D02*
X118808333Y-63777380D01*
X119094047Y-63777380D02*
X119094047Y-62777380D01*
X118998809Y-62920238D01*
X118903571Y-63015476D01*
X118808333Y-63063095D01*
X119855952Y-63729761D02*
X119855952Y-63777380D01*
X119808333Y-63872619D01*
X119760714Y-63920238D01*
X120760714Y-62777380D02*
X120284523Y-62777380D01*
X120236904Y-63253571D01*
X120284523Y-63205952D01*
X120379761Y-63158333D01*
X120617857Y-63158333D01*
X120713095Y-63205952D01*
X120760714Y-63253571D01*
X120808333Y-63348809D01*
X120808333Y-63586904D01*
X120760714Y-63682142D01*
X120713095Y-63729761D01*
X120617857Y-63777380D01*
X120379761Y-63777380D01*
X120284523Y-63729761D01*
X120236904Y-63682142D01*
X121713095Y-62777380D02*
X121236904Y-62777380D01*
X121189285Y-63253571D01*
X121236904Y-63205952D01*
X121332142Y-63158333D01*
X121570238Y-63158333D01*
X121665476Y-63205952D01*
X121713095Y-63253571D01*
X121760714Y-63348809D01*
X121760714Y-63586904D01*
X121713095Y-63682142D01*
X121665476Y-63729761D01*
X121570238Y-63777380D01*
X121332142Y-63777380D01*
X121236904Y-63729761D01*
X121189285Y-63682142D01*
X122379761Y-62777380D02*
X122475000Y-62777380D01*
X122570238Y-62825000D01*
X122617857Y-62872619D01*
X122665476Y-62967857D01*
X122713095Y-63158333D01*
X122713095Y-63396428D01*
X122665476Y-63586904D01*
X122617857Y-63682142D01*
X122570238Y-63729761D01*
X122475000Y-63777380D01*
X122379761Y-63777380D01*
X122284523Y-63729761D01*
X122236904Y-63682142D01*
X122189285Y-63586904D01*
X122141666Y-63396428D01*
X122141666Y-63158333D01*
X122189285Y-62967857D01*
X122236904Y-62872619D01*
X122284523Y-62825000D01*
X122379761Y-62777380D01*
X123903571Y-63777380D02*
X123903571Y-63110714D01*
X123903571Y-63205952D02*
X123951190Y-63158333D01*
X124046428Y-63110714D01*
X124189285Y-63110714D01*
X124284523Y-63158333D01*
X124332142Y-63253571D01*
X124332142Y-63777380D01*
X124332142Y-63253571D02*
X124379761Y-63158333D01*
X124475000Y-63110714D01*
X124617857Y-63110714D01*
X124713095Y-63158333D01*
X124760714Y-63253571D01*
X124760714Y-63777380D01*
X125236904Y-63777380D02*
X125236904Y-63110714D01*
X125236904Y-63205952D02*
X125284523Y-63158333D01*
X125379761Y-63110714D01*
X125522619Y-63110714D01*
X125617857Y-63158333D01*
X125665476Y-63253571D01*
X125665476Y-63777380D01*
X125665476Y-63253571D02*
X125713095Y-63158333D01*
X125808333Y-63110714D01*
X125951190Y-63110714D01*
X126046428Y-63158333D01*
X126094047Y-63253571D01*
X126094047Y-63777380D01*
X121700000Y-62025000D02*
X123250000Y-62025000D01*
X121700000Y-59600000D02*
X121700000Y-62611421D01*
X123250000Y-59600000D02*
X123250000Y-62611421D01*
X123250000Y-62025000D02*
X122123496Y-62611421D01*
X123250000Y-62025000D02*
X122123496Y-61438579D01*
X121700000Y-62025000D02*
X122826504Y-62611421D01*
X121700000Y-62025000D02*
X122826504Y-61438579D01*
X205130952Y-82439880D02*
X205083333Y-82535119D01*
X205035714Y-82582738D01*
X204940476Y-82630357D01*
X204892857Y-82630357D01*
X204797619Y-82582738D01*
X204750000Y-82535119D01*
X204702380Y-82439880D01*
X204702380Y-82249404D01*
X204750000Y-82154166D01*
X204797619Y-82106547D01*
X204892857Y-82058928D01*
X204940476Y-82058928D01*
X205035714Y-82106547D01*
X205083333Y-82154166D01*
X205130952Y-82249404D01*
X205130952Y-82439880D01*
X205178571Y-82535119D01*
X205226190Y-82582738D01*
X205321428Y-82630357D01*
X205511904Y-82630357D01*
X205607142Y-82582738D01*
X205654761Y-82535119D01*
X205702380Y-82439880D01*
X205702380Y-82249404D01*
X205654761Y-82154166D01*
X205607142Y-82106547D01*
X205511904Y-82058928D01*
X205321428Y-82058928D01*
X205226190Y-82106547D01*
X205178571Y-82154166D01*
X205130952Y-82249404D01*
X204702380Y-81725595D02*
X204702380Y-81106547D01*
X205083333Y-81439880D01*
X205083333Y-81297023D01*
X205130952Y-81201785D01*
X205178571Y-81154166D01*
X205273809Y-81106547D01*
X205511904Y-81106547D01*
X205607142Y-81154166D01*
X205654761Y-81201785D01*
X205702380Y-81297023D01*
X205702380Y-81582738D01*
X205654761Y-81677976D01*
X205607142Y-81725595D01*
X205654761Y-80630357D02*
X205702380Y-80630357D01*
X205797619Y-80677976D01*
X205845238Y-80725595D01*
X204702380Y-80011309D02*
X204702380Y-79916071D01*
X204750000Y-79820833D01*
X204797619Y-79773214D01*
X204892857Y-79725595D01*
X205083333Y-79677976D01*
X205321428Y-79677976D01*
X205511904Y-79725595D01*
X205607142Y-79773214D01*
X205654761Y-79820833D01*
X205702380Y-79916071D01*
X205702380Y-80011309D01*
X205654761Y-80106547D01*
X205607142Y-80154166D01*
X205511904Y-80201785D01*
X205321428Y-80249404D01*
X205083333Y-80249404D01*
X204892857Y-80201785D01*
X204797619Y-80154166D01*
X204750000Y-80106547D01*
X204702380Y-80011309D01*
X204702380Y-79344642D02*
X204702380Y-78677976D01*
X205702380Y-79106547D01*
X204702380Y-77820833D02*
X204702380Y-78297023D01*
X205178571Y-78344642D01*
X205130952Y-78297023D01*
X205083333Y-78201785D01*
X205083333Y-77963690D01*
X205130952Y-77868452D01*
X205178571Y-77820833D01*
X205273809Y-77773214D01*
X205511904Y-77773214D01*
X205607142Y-77820833D01*
X205654761Y-77868452D01*
X205702380Y-77963690D01*
X205702380Y-78201785D01*
X205654761Y-78297023D01*
X205607142Y-78344642D01*
X205702380Y-76582738D02*
X205035714Y-76582738D01*
X205130952Y-76582738D02*
X205083333Y-76535119D01*
X205035714Y-76439880D01*
X205035714Y-76297023D01*
X205083333Y-76201785D01*
X205178571Y-76154166D01*
X205702380Y-76154166D01*
X205178571Y-76154166D02*
X205083333Y-76106547D01*
X205035714Y-76011309D01*
X205035714Y-75868452D01*
X205083333Y-75773214D01*
X205178571Y-75725595D01*
X205702380Y-75725595D01*
X205702380Y-75249404D02*
X205035714Y-75249404D01*
X205130952Y-75249404D02*
X205083333Y-75201785D01*
X205035714Y-75106547D01*
X205035714Y-74963690D01*
X205083333Y-74868452D01*
X205178571Y-74820833D01*
X205702380Y-74820833D01*
X205178571Y-74820833D02*
X205083333Y-74773214D01*
X205035714Y-74677976D01*
X205035714Y-74535119D01*
X205083333Y-74439880D01*
X205178571Y-74392261D01*
X205702380Y-74392261D01*
X203950000Y-120025000D02*
X203950000Y-36950000D01*
X184150000Y-120025000D02*
X204536421Y-120025000D01*
X184150000Y-36950000D02*
X204536421Y-36950000D01*
X203950000Y-36950000D02*
X204536421Y-38076504D01*
X203950000Y-36950000D02*
X203363579Y-38076504D01*
X203950000Y-120025000D02*
X204536421Y-118898496D01*
X203950000Y-120025000D02*
X203363579Y-118898496D01*
X183760000Y-40700000D02*
G75*
G03*
X183760000Y-40700000I-3200000J0D01*
G01*
X112100000Y-40700000D02*
G75*
G03*
X112100000Y-40700000I-3200000J0D01*
G01*
X112100000Y-116200000D02*
G75*
G03*
X112100000Y-116200000I-3200000J0D01*
G01*
X184060000Y-116200000D02*
G75*
G03*
X184060000Y-116200000I-3200000J0D01*
G01*
M02*
